<svg width="200" height="200" viewBox="0 0 52.917 52.917" xmlns="http://www.w3.org/2000/svg"><path style="fill:#000;fill-opacity:1;stroke:none;stroke-width:.141617;stroke-opacity:1" d="M45.284 7.597a2.687 2.687 0 0 0-1.618.007c-.71.228-.805.374-1.2 1.814a80.138 80.138 0 0 1-.462 1.626 17.39 17.39 0 0 0-.224.795c-.05.202-.16.602-.241.889-.26.895-.566 2.001-.574 2.075-.004.04-.08.322-.17.629-.09.307-.217.774-.285 1.037a181.34 181.34 0 0 1-.454 1.718c-.182.681-.327 1.253-.322 1.272.005.018-.032.164-.081.324-.106.338-.555 2.173-.83 3.385a7.005 7.005 0 0 0-.181 2.04c.026.382.256.906.533 1.218.236.266.34.327.68.402.365.08.447.073.908-.076.402-.13.573-.223.83-.452.5-.447.54-.543 1.219-3.033l.623-2.295c.017-.061.107-.378.202-.703.094-.326.174-.626.178-.667.004-.04.098-.39.209-.78.11-.388.293-1.039.405-1.446.11-.407.296-1.063.41-1.456.115-.393.204-.73.199-.75-.006-.019.076-.33.18-.693.433-1.498 1.274-4.565 1.358-4.953.045-.213.03-.414-.058-.742-.108-.403-.152-.478-.433-.734a2.16 2.16 0 0 0-.802-.452zM17.21.12a2.698 2.698 0 0 0-1.476-.033c-.4.102-.523.162-.724.357-.217.21-.29.397-.668 1.689-.234.799-.446 1.55-.47 1.67-.023.12-.115.453-.206.741-.09.289-.175.596-.19.683a4.184 4.184 0 0 1-.116.457c-.09.292-.48 1.71-.896 3.267-.114.427-.295 1.09-.4 1.474a35.49 35.49 0 0 0-.26.996c-.04.165-.172.698-.298 1.185-.824 3.193-1.02 4.245-.94 5.075.044.46.073.57.245.905.219.427.576.693 1.059.787.346.068.462.06.828-.062.763-.254 1.438-1.005 1.572-1.748.028-.159.127-.54.22-.849.094-.308.19-.658.215-.778.025-.12.119-.469.207-.776.089-.307.268-.942.398-1.41l.402-1.447c.092-.327.223-.81.293-1.074.139-.531.172-.653.488-1.779.12-.428.25-.91.288-1.072.038-.16.134-.507.215-.768.08-.262.144-.487.14-.502-.004-.015.085-.352.198-.75.112-.397.296-1.056.407-1.463.11-.407.278-1.012.372-1.342.466-1.636.499-2.154.172-2.653-.242-.37-.625-.637-1.075-.78zm4.814 2.159-.11.385c-.364 1.3-.556 2.01-.55 2.033.004.015-.1.399-.227.855-.252.898-.483 1.742-.792 2.901a125.8 125.8 0 0 1-.366 1.333c-.093.327-.217.793-.274 1.035a8.484 8.484 0 0 1-.171.63c-.037.104-.138.47-.226.815-.087.344-.2.76-.247.925-.18.613-.536 1.92-.53 1.942.004.012-.09.357-.206.766-.117.409-.21.757-.205.774a2.32 2.32 0 0 1-.091.347 94.455 94.455 0 0 0-.677 2.463v.001c-.053.203-.078.408-.056.456.022.047.324.163.67.257.346.094.945.258 1.332.362.387.105 1.06.292 1.496.415.436.124.806.22.824.216.018-.004.296.068.617.163.473.14 1.227.346 2.172.597.907.24 1.666.446 2.343.636.455.128.84.23.854.226.015-.004.38.091.812.212.43.12.895.249 1.032.285l1.064.29c.449.122 1.076.29 1.395.371.318.082.789.215 1.046.295.258.08.485.142.504.137.02-.006.26.055.534.136.274.08.505.135.512.12a69.1 69.1 0 0 0 .5-1.837c.068-.264.19-.71.274-.99.083-.282.147-.526.142-.545-.006-.018.069-.305.164-.637.183-.64.528-1.9.856-3.121.109-.407.273-1.007.366-1.334.092-.327.214-.792.272-1.034.057-.242.135-.525.17-.63.038-.103.14-.47.228-.815.087-.345.197-.76.245-.924.194-.66.537-1.92.53-1.946-.003-.015.098-.4.226-.855l.4-1.422c.24-.857.417-1.591.386-1.602a42.166 42.166 0 0 0-1.585-.445c-.015.004-.355-.085-.755-.198-.4-.112-1.093-.302-1.54-.421a85.342 85.342 0 0 1-1.472-.407 8.658 8.658 0 0 0-.687-.182c-.015.004-.363-.089-.772-.206-.408-.117-.757-.208-.776-.203a3.165 3.165 0 0 1-.422-.116 15.646 15.646 0 0 0-.795-.221 45.936 45.936 0 0 1-1.034-.275c-.347-.097-.964-.265-1.37-.374a319.552 319.552 0 0 1-2.888-.787 21.687 21.687 0 0 0-.887-.235c-.062-.007-.756-.195-1.904-.517zm19.643 6.052c-.17-.052-.57-.158-.892-.235a10.39 10.39 0 0 1-.677-.177c-.061-.026-.138.159-.25.6a63.246 63.246 0 0 1-.5 1.892c-.11.395-.194.732-.19.748.005.016-.087.367-.203.78-.116.412-.207.764-.203.78.008.03-.082.365-.56 2.096-.13.461-.23.85-.226.864.007.025-.392 1.543-.611 2.323-.063.225-.154.574-.202.775-.083.344-1.1 4.224-1.278 4.873-.044.163-.076.32-.07.347.01.053.218.116 1.295.396.36.093.658.158.662.146.028-.083.352-1.35.428-1.676.05-.22.177-.702.278-1.07.234-.847.854-3.211.97-3.697.049-.201.155-.594.237-.871.082-.278.145-.52.14-.541-.006-.02.087-.366.206-.769.118-.402.21-.75.205-.773-.007-.022.085-.374.202-.783.117-.408.209-.755.205-.77a3.666 3.666 0 0 1 .104-.42c.06-.216.199-.725.304-1.131l.423-1.624c.128-.487.294-1.133.37-1.436l.14-.551zM19.474 2.48c-.262-.062-.326-.057-.354.029-.121.363-.8 2.873-.788 2.916.004.015-.068.304-.16.64-.094.338-.262.962-.375 1.389-.113.427-.294 1.109-.404 1.516-.11.407-.22.838-.245.957-.024.12-.116.469-.204.775-.088.306-.19.689-.23.85-.08.339-.376 1.47-.95 3.62-.098.366-.295 1.13-.44 1.697-.143.567-.3 1.149-.347 1.294-.047.145-.08.294-.073.33.007.035.158.097.334.137.177.04.6.151.94.246.342.094.637.168.656.163.032-.008.31-1.011.523-1.891.049-.202.19-.75.315-1.217l.389-1.464c.089-.337.244-.912.344-1.279.1-.366.178-.678.174-.693-.004-.015.088-.364.204-.775.117-.41.208-.762.202-.782-.005-.02.088-.366.206-.769.119-.402.21-.751.205-.775-.007-.025.077-.346.186-.714.108-.369.193-.686.188-.705a3.346 3.346 0 0 1 .113-.453 50.4 50.4 0 0 0 .326-1.213c.112-.436.298-1.15.413-1.586.453-1.716.466-1.781.373-1.822-.112-.048-1.095-.321-1.52-.421zm3.777 20.127-.026.082c-.11.36-.22.74-.216.764.004.034-.131.49-.26.884-.047.142-.08.265-.072.275.008.008-.027.147-.076.306a22.42 22.42 0 0 0-.171.585c-.046.163-.116.404-.155.534-.04.131-.085.292-.1.357-.014.066-.06.233-.1.372-.04.139-.11.38-.152.534-.043.156-.12.424-.17.595-.05.172-.127.446-.17.61a64.63 64.63 0 0 1-.347 1.217c-.035.115-.1.355-.148.535-.047.18-.13.473-.182.653a29.56 29.56 0 0 0-.314 1.115c-.094.36-.11.416-.208.75-.04.135-.108.372-.152.527a43.5 43.5 0 0 1-.291 1.011 1.19 1.19 0 0 0-.064.272c.007.011.256.088.555.171.732.204 1.968.54 2.293.625.146.038.685.182 1.197.32.513.136.944.247.958.248.024.001.08-.178.27-.86a23.9 23.9 0 0 1 .167-.565c.049-.155.087-.295.085-.312a2.911 2.911 0 0 1 .083-.327c.048-.163.188-.654.188-.654.056-.196.133-.451.172-.567a.88.88 0 0 0 .058-.224c-.01-.013.108-.448.215-.784.02-.065.06-.198.088-.296l.12-.43.15-.536a322.46 322.46 0 0 1 .366-1.307c.043-.156.108-.376.144-.49.037-.115.082-.274.1-.353a2.94 2.94 0 0 1 .08-.282 2.2 2.2 0 0 0 .072-.257c.03-.158.162-.621.268-.943.047-.143.08-.266.073-.275a.8.8 0 0 1 .056-.215c.037-.11.124-.415.192-.677.068-.262.155-.566.193-.676a.777.777 0 0 0 .056-.216.998.998 0 0 1 .072-.245c.046-.127.09-.286.1-.355l.018-.124-.212-.065a22.832 22.832 0 0 0-.65-.177c-.242-.063-.724-.192-1.07-.287-1.43-.39-2.057-.558-2.3-.62-.14-.037-.374-.102-.52-.145zm2.603 14.284c-.456-.118-1.105-.289-1.442-.38a6.709 6.709 0 0 0-.648-.157c-.02.006-.264-.054-.544-.13-.623-.171-2.116-.556-2.616-.675-1.117-.266-2.288-.567-2.355-.605-.043-.024-.097-.038-.122-.032-.042.012-.256.729-.29.97a26.54 26.54 0 0 1-.26 1.03l-.243.92.176.074a.64.64 0 0 0 .224.062c.026-.007.438.09.915.214 1.602.416 1.822.472 2.783.712 1.255.314 1.185.296 1.695.433.244.066.607.152.806.192.2.04.449.102.553.14.21.074 1.444.37 1.493.357.016-.004.088-.248.159-.54.07-.293.229-.923.35-1.401.124-.478.218-.892.21-.92-.007-.028-.387-.147-.843-.265zm-6.49 2.153c-.436-.119-.826-.198-.863-.176-.062.035-.168.401-.495 1.7-.11.435-.205.795-.626 2.358a82.52 82.52 0 0 0-.311 1.178 55.661 55.661 0 0 1-.53 1.956c-.091.314-.161.585-.155.601.006.016-.06.271-.148.567-.088.295-.155.55-.15.564a7.05 7.05 0 0 1-.165.61c-.096.322-.17.6-.162.618.006.018-.062.27-.151.56-.09.29-.165.573-.168.632a2.622 2.622 0 0 1-.105.408 9.075 9.075 0 0 0-.18.65l5.898 1.647c.1-.389.782-2.761.873-3.08.09-.318.16-.588.156-.602a5.082 5.082 0 0 1 .127-.511c.335-1.194.504-1.831.495-1.855-.005-.014.07-.288.166-.608.097-.32.172-.594.166-.61-.006-.014.073-.327.175-.695.38-1.368.456-1.647.447-1.67-.004-.012.07-.287.165-.61.096-.324.169-.6.163-.616-.006-.014.045-.21.113-.434.155-.512.327-1.214.3-1.224-.037-.015-1.27-.35-2.094-.57a594.798 594.798 0 0 1-2.94-.788z"/></svg>