<?xml version="1.0" encoding="UTF-8" standalone="no"?>
<!-- Svg Vector Icons : http://www.onlinewebfonts.com/icon -->

<svg
   version="1.1"
   x="0px"
   y="0px"
   viewBox="0 0 200 200"
   enable-background="new 0 0 1000 1000"
   xml:space="preserve"
   id="svg24"
   sodipodi:docname="9d22630bae3936bbbc0d64dbaddf6d82.svg"
   width="200"
   height="200"
   inkscape:version="1.1 (c68e22c387, 2021-05-23)"
   xmlns:inkscape="http://www.inkscape.org/namespaces/inkscape"
   xmlns:sodipodi="http://sodipodi.sourceforge.net/DTD/sodipodi-0.dtd"
   xmlns="http://www.w3.org/2000/svg"
   xmlns:svg="http://www.w3.org/2000/svg"><defs
   id="defs28" /><sodipodi:namedview
   id="namedview26"
   pagecolor="#505050"
   bordercolor="#ffffff"
   borderopacity="1"
   inkscape:pageshadow="0"
   inkscape:pageopacity="0"
   inkscape:pagecheckerboard="1"
   showgrid="false"
   inkscape:zoom="0.824"
   inkscape:cx="499.3932"
   inkscape:cy="209.34466"
   inkscape:window-width="1920"
   inkscape:window-height="1009"
   inkscape:window-x="-8"
   inkscape:window-y="-8"
   inkscape:window-maximized="1"
   inkscape:current-layer="svg24" />
<metadata
   id="metadata2"> Svg Vector Icons : http://www.onlinewebfonts.com/icon </metadata>
<g
   id="g22"
   transform="matrix(0.20408111,0,0,0.20408111,-2.0405074,-2.0399556)"><g
     transform="matrix(0.1,0,0,-0.1,0,511)"
     id="g20"><path
       d="M 1604.6,3065.9 C 1148.6,2266.8 108.1,400.4 100.4,367.9 c -5.8,-34.5 46,-72.8 360.2,-266.4 222.3,-134.1 385.2,-222.3 408.2,-218.4 28.7,3.8 226.1,339.2 831.6,1414.2 435,774.2 789.5,1421.8 787.6,1435.2 -5.7,30.7 -730.1,481 -772.2,481 -13.4,-0.1 -63.3,-67.1 -111.2,-147.6 z"
       id="path4" /><path
       d="m 7886,2985.4 c -285.5,-176.3 -364.1,-233.8 -362.2,-264.4 1.9,-51.7 1559.8,-2820.7 1598.1,-2841.7 36.4,-19.2 760.7,413.9 778,465.6 15.3,49.8 -1567.5,2857.1 -1615.4,2862.8 -19.1,1.9 -197.3,-97.7 -398.5,-222.3 z"
       id="path6" /><path
       d="M 4900.5,2425.9 C 4601.6,2401 4295,2351.2 4135.9,2301.3 4017.1,2263 3976.9,2240 3923.2,2178.7 3814,2050.3 3365.6,1414.1 3239.1,1207.2 3126,1023.2 3118.4,1002.2 3116.5,891 c -1.9,-113.1 0,-120.7 53.7,-145.6 69,-34.5 291.3,-5.8 450.3,59.4 228,92 519.3,335.3 672.6,565.3 l 67.1,99.6 237.6,76.7 c 130.3,42.2 254.9,76.6 275.9,76.6 67.1,0 873.8,-435 1316.4,-710.9 429.2,-266.4 1211,-824 1655.6,-1182.3 l 226.1,-184 80.5,44.1 c 126.5,72.8 258.7,180.1 431.2,352.6 L 8744.4,105.4 8135,1184.2 c -333.4,594 -613.2,1086.5 -620.8,1096.1 -7.7,7.7 -86.2,-5.7 -174.4,-26.8 -216.5,-55.6 -394.7,-42.2 -824,55.6 -496.3,115 -689.8,138 -1084.6,136.1 -189.6,-2.1 -427.2,-9.8 -530.7,-19.3 z"
       id="path8" /><path
       d="M 1855.6,1161.2 1229.1,47.8 1328.7,-69 c 55.6,-65.2 141.8,-172.5 193.5,-237.6 51.7,-67.1 95.8,-120.7 99.6,-120.7 3.8,0 46,28.7 92,65.2 256.8,195.4 630.4,88.1 791.4,-226.1 l 46,-92 86.2,116.9 c 111.1,151.4 224.2,212.7 396.6,212.7 304.7,0 553.8,-249.1 557.6,-559.5 l 1.9,-130.3 h 70.9 c 109.2,0 298.9,-107.3 383.2,-220.4 84.3,-109.2 138,-266.4 126.5,-373.7 l -5.7,-72.8 86.2,-13.4 c 195.5,-28.7 364.1,-147.5 452.2,-321.9 92,-180.1 84.3,-373.7 -23,-532.7 -36.4,-55.6 -59.4,-105.4 -51.7,-113.1 7.7,-7.7 70.9,-32.6 139.9,-55.6 454.1,-145.6 827.8,-178.2 1009.8,-88.1 97.7,49.8 281.7,224.2 270.2,258.7 -3.8,11.5 -220.4,122.6 -484.8,251 -262.5,128.4 -484.8,241.5 -492.5,254.9 -28.7,44.1 -15.3,107.3 32.6,138 46,30.7 59.4,24.9 569.1,-222.3 551.9,-268.3 615.1,-289.3 810.6,-260.6 120.7,19.2 210.8,101.6 249.1,228 53.7,180.1 92,145.6 -578.7,532.7 -335.3,193.5 -624.7,367.9 -641.9,387.1 -19.2,17.3 -34.5,46 -34.5,61.3 0,44.1 76.7,109.2 115,99.6 19.2,-5.8 320,-174.4 668.8,-375.6 626.6,-362.1 632.4,-366 745.4,-366 143.7,0 226.1,28.7 306.6,103.5 74.7,69 105.4,159 95.8,285.5 l -5.7,93.9 -728.2,438.8 c -400.5,241.5 -739.7,456.1 -755,477.1 -21.1,30.6 -21.1,49.8 -5.7,86.2 44.1,95.8 93.9,72.8 917.9,-423.5 l 781.8,-469.5 143.7,5.7 c 113.1,3.8 157.1,15.3 206.9,49.8 141.8,103.5 182,316.2 84.3,461.8 -63.2,93.9 -293.2,285.5 -799.1,663 -818.1,611.4 -1412.1,988.9 -2209.3,1399 l -178.2,92 -178.2,-53.7 -180.1,-53.7 -130.3,-162.9 c -320,-398.6 -760.7,-634.3 -1149.7,-613.2 -149.5,7.7 -206.9,34.5 -283.6,138 -32.6,42.2 -40.2,78.6 -38.3,189.7 1.9,203.1 74.7,346.8 423.5,843.1 88.1,124.6 159,233.8 159,239.5 0,7.7 -105.4,30.7 -233.8,49.8 -306.6,46 -454.1,92 -624.7,195.5 -76.6,46 -141.8,84.3 -143.7,84.3 -1.9,0.1 -285.5,-500 -630.5,-1113.2 z"
       id="path10" /><path
       d="M 1874.8,-494.4 C 1809.7,-530.8 1574,-852.7 1549,-937 c -47.9,-178.2 111.1,-400.5 314.3,-436.9 124.6,-23 189.7,23 350.7,237.6 132.2,180.1 143.7,201.2 143.7,287.4 0,118.8 -24.9,185.9 -101.6,266.4 -107.3,113 -266.3,149.4 -381.3,88.1 z"
       id="path12" /><path
       d="m 2921.1,-569.2 c -42.2,-19.2 -157.1,-161 -400.5,-492.5 -187.8,-254.9 -352.6,-486.7 -366,-513.6 -93.9,-180.1 78.6,-456.1 297,-477.1 164.8,-15.3 187.8,5.8 475.2,396.7 484.8,659.2 465.6,626.6 465.6,728.2 0.1,247.2 -268.2,452.2 -471.3,358.3 z"
       id="path14" /><path
       d="m 3497.8,-1260.9 c -55.6,-28.7 -565.3,-699.4 -617,-812.5 -86.2,-189.7 80.5,-456.1 298.9,-477.1 161,-15.3 185.9,5.7 448.4,366 350.7,482.9 339.2,463.7 339.2,576.8 0,122.6 -57.5,230 -162.9,302.8 -95.8,67 -226.1,86.1 -306.6,44 z"
       id="path16" /><path
       d="m 4076.5,-1956.5 c -69,-42.2 -410.1,-509.7 -436.9,-597.9 -42.2,-138 55.6,-321.9 214.6,-404.3 90.1,-46 182,-46 260.6,-1.9 74.7,40.3 419.6,500.1 448.4,597.9 28.7,95.8 -5.8,212.7 -93.9,310.4 -114.9,128.4 -277.8,168.6 -392.8,95.8 z"
       id="path18" /></g></g>
</svg>
