<svg xml:space="preserve" width="200" height="200" xmlns="http://www.w3.org/2000/svg"><path d="M30.706 39.676C21.4 55.984.166 94.074.008 94.737c-.118.704.94 1.486 7.351 5.437 4.537 2.737 7.862 4.537 8.331 4.457.586-.077 4.614-6.922 16.971-28.861 8.878-15.8 16.113-29.016 16.074-29.29-.116-.626-14.9-9.816-15.76-9.816-.273.002-1.291 1.37-2.269 3.012zm128.192 1.644c-5.827 3.597-7.43 4.77-7.392 5.395.039 1.055 31.833 57.565 32.614 57.994.743.392 15.525-8.447 15.878-9.502.312-1.017-31.99-58.308-32.968-58.425-.39-.038-4.026 1.994-8.132 4.537zM97.97 52.737c-6.1.509-12.358 1.525-15.605 2.543-2.424.782-3.244 1.251-4.34 2.502-2.229 2.62-11.38 15.604-13.962 19.827-2.308 3.755-2.463 4.183-2.502 6.453-.038 2.308 0 2.463 1.096 2.971 1.408.704 5.945.119 9.19-1.212 4.653-1.878 10.598-6.843 13.727-11.537l1.369-2.032 4.849-1.566c2.66-.86 5.202-1.563 5.63-1.563 1.37 0 17.833 8.878 26.866 14.508 8.759 5.437 24.714 16.817 33.787 24.129l4.615 3.755 1.643-.9c2.581-1.486 5.28-3.676 8.8-7.196l3.283-3.325-12.437-22.016c-6.804-12.122-12.514-22.173-12.669-22.37-.157-.156-1.76.117-3.56.548-4.417 1.135-8.054.861-16.815-1.135-10.129-2.347-14.078-2.816-22.135-2.777-3.87.042-8.718.2-10.83.393z"/><path d="M35.829 78.548 23.043 101.27l2.033 2.384c1.134 1.33 2.894 3.52 3.949 4.849 1.055 1.369 1.955 2.463 2.032 2.463.078 0 .94-.586 1.878-1.33 5.24-3.988 12.865-1.799 16.15 4.614l.94 1.877 1.759-2.386c2.267-3.09 4.575-4.34 8.094-4.34 6.218 0 11.302 5.083 11.38 11.418l.038 2.66h1.447c2.229 0 6.1 2.189 7.82 4.497 1.72 2.229 2.817 5.437 2.582 7.627l-.116 1.485 1.759.274c3.99.585 7.43 3.01 9.228 6.57 1.878 3.675 1.72 7.626-.469 10.87-.743 1.135-1.212 2.152-1.055 2.309.157.157 1.447.665 2.855 1.134 9.267 2.972 16.894 3.637 20.608 1.798 1.994-1.016 5.75-4.575 5.514-5.28-.077-.234-4.498-2.501-9.893-5.122-5.358-2.62-9.894-4.928-10.051-5.202-.586-.9-.313-2.19.665-2.816.939-.627 1.212-.508 11.614 4.537 11.263 5.475 12.553 5.904 16.543 5.318 2.463-.392 4.302-2.073 5.084-4.653 1.095-3.676 1.877-2.971-11.81-10.871-6.843-3.95-12.75-7.509-13.1-7.9-.392-.353-.705-.94-.705-1.251 0-.9 1.566-2.229 2.347-2.033.392.118 6.53 3.56 13.65 7.665 12.787 7.39 12.905 7.47 15.211 7.47 2.933 0 4.615-.586 6.258-2.113 1.524-1.408 2.15-3.245 1.955-5.826l-.117-1.916-14.86-8.956c-8.174-4.928-15.097-9.308-15.409-9.736-.43-.625-.43-1.017-.116-1.76.9-1.955 1.916-1.485 18.732 8.643l15.955 9.582 2.933-.116c2.308-.078 3.206-.313 4.222-1.017 2.894-2.112 3.715-6.453 1.72-9.424-1.289-1.916-5.983-5.827-16.307-13.53-16.696-12.478-28.819-20.182-45.088-28.552l-3.637-1.877-3.636 1.096-3.676 1.096-2.659 3.324c-6.53 8.135-15.524 12.945-23.463 12.514-3.051-.157-4.223-.704-5.788-2.816-.665-.861-.82-1.604-.782-3.871.04-4.145 1.525-7.078 8.643-17.206 1.798-2.543 3.245-4.772 3.245-4.888 0-.157-2.15-.627-4.771-1.017-6.257-.938-9.268-1.877-12.75-3.99-1.563-.938-2.893-1.72-2.932-1.72-.039-.002-5.826 10.204-12.867 22.719z"/><path d="M36.22 112.335c-1.328.743-6.138 7.312-6.648 9.033-.978 3.637 2.267 8.173 6.414 8.916 2.543.47 3.871-.47 7.157-4.849 2.698-3.675 2.933-4.106 2.933-5.865 0-2.425-.508-3.794-2.074-5.437-2.19-2.306-5.434-3.049-7.781-1.798zm21.354 1.527c-.862.392-3.206 3.285-8.174 10.05-3.832 5.203-7.196 9.933-7.47 10.482-1.916 3.676 1.605 9.309 6.062 9.737 3.363.312 3.833-.118 9.698-8.096 9.894-13.453 9.502-12.788 9.502-14.861.002-5.045-5.473-9.229-9.618-7.312zm11.769 14.116c-1.135.586-11.537 14.274-12.592 16.582-1.759 3.871 1.643 9.308 6.1 9.736 3.286.313 3.794-.116 9.151-7.469 7.157-9.855 6.923-9.463 6.923-11.771 0-2.502-1.174-4.694-3.325-6.18-1.955-1.367-4.614-1.757-6.257-.898zm11.81 14.196c-1.408.861-8.37 10.402-8.916 12.202-.861 2.816 1.135 6.57 4.38 8.251 1.838.939 3.714.939 5.318.039 1.524-.823 8.563-10.206 9.15-12.202.586-1.955-.118-4.341-1.916-6.335-2.344-2.62-5.669-3.44-8.016-1.955z"/></svg>