<svg width="200" height="200" viewBox="0 0 52.917 52.917" xmlns="http://www.w3.org/2000/svg"><path style="fill:#000;stroke-width:.00343617" d="M-2790.218-1221.658a2.32 2.32 0 0 1-.58-.114 2.247 2.247 0 0 1-1.524-2c-.01-.145 0-.583.015-.93.098-2.07.58-3.873 1.488-5.567a15.48 15.48 0 0 1 .981-1.58l.077-.11c.01-.01.01-.01 0-.018a15.932 15.932 0 0 1-.222-.32c-.793-1.16-1.346-2.274-1.728-3.477a13.583 13.583 0 0 1-.603-3.579 16.37 16.37 0 0 1 0-1.292c.08-2.2.577-4.085 1.547-5.86.27-.495.578-.987.948-1.512.036-.051.065-.094.065-.096 0 0-.025-.04-.056-.083-.748-1.064-1.278-2.037-1.673-3.077-.564-1.482-.841-3.1-.841-4.91 0-1.74.255-3.3.774-4.733.32-.886.73-1.71 1.28-2.574.14-.22.362-.55.496-.735l.023-.033-.01-.01c0-.01-.04-.055-.077-.108a14.457 14.457 0 0 1-1.327-2.275c-.683-1.485-1.057-3.081-1.143-4.873a12.35 12.35 0 0 1-.015-.93 2.245 2.245 0 0 1 2.666-2.076 2.3 2.3 0 0 1 .703.264 2.256 2.256 0 0 1 .932 1.058 2.275 2.275 0 0 1 .18.966c0 .24.01.375.016.54.06 1.19.296 2.214.726 3.154.054.118.152.32.155.32 0 0 .106-.212.16-.33.418-.92.649-1.904.716-3.053.013-.22.021-.472.021-.67 0-.125 0-.205.014-.296a2.243 2.243 0 0 1 4.165-.883 2.29 2.29 0 0 1 .298.94c.01.054.01.098.01.304 0 .887-.082 1.789-.234 2.615-.297 1.622-.871 3.076-1.782 4.518-.151.24-.37.566-.517.772-.032.045-.037.054-.034.059l.082.117c.78 1.112 1.327 2.143 1.725 3.253.416 1.158.66 2.408.736 3.76.027.487.033 1.058.015 1.537-.082 2.245-.591 4.144-1.595 5.951a15.75 15.75 0 0 1-.893 1.415 2.563 2.563 0 0 0-.072.106s.025.039.056.083c.67.95 1.167 1.838 1.547 2.76.56 1.357.872 2.813.948 4.424.048 1.015 0 2.041-.126 2.969a12.408 12.408 0 0 1-1.64 4.7 16.3 16.3 0 0 1-.784 1.203s0 .012.025.047c.188.263.433.632.614.926a12.52 12.52 0 0 1 1.413 3.171 14.09 14.09 0 0 1 .514 3.82c0 .206 0 .249-.01.304a2.313 2.313 0 0 1-.298.94 2.24 2.24 0 0 1-4.147-.76 2.31 2.31 0 0 1-.03-.42c-.001-.198-.01-.45-.022-.67-.067-1.147-.298-2.134-.715-3.05a6.001 6.001 0 0 0-.161-.333s-.072.141-.12.243c-.453.966-.7 2.009-.761 3.231-.01.165-.012.3-.016.54 0 .237-.01.288-.023.402a2.278 2.278 0 0 1-.283.816 2.248 2.248 0 0 1-2.07 1.108zm6.594-.451c.175-.021.322-.057.467-.114a1.794 1.794 0 0 0 1.123-1.389c.022-.126.022-.131.022-.422 0-.964-.102-1.946-.292-2.847-.339-1.595-.956-3.01-1.953-4.479a3.477 3.477 0 0 0-.157-.224s-.028.031-.057.07a56.5 56.5 0 0 1-.693.903c-.52.67-.706.916-.93 1.23-.214.302-.423.62-.569.867-.023.04-.025.043-.021.052l.039.073.084.16c.51.993.8 2.017.91 3.221.028.31.046.681.047.963 0 .286.014.42.062.603.08.307.243.591.467.816.293.293.69.48 1.103.518.022 0 .046 0 .053.01.036 0 .253 0 .295-.01zm-5.769-10.35c.183-.243.328-.433.657-.856.528-.68.744-.966.974-1.29.126-.18.284-.415.385-.575a9.33 9.33 0 0 0 .174-.287l-.052-.1c-.539-1-.852-2.047-.973-3.255-.046-.45-.063-.882-.057-1.411.011-.945.13-1.826.347-2.596.27-.952.675-1.786 1.333-2.74.238-.346.5-.698.97-1.304.472-.607.555-.715.738-.959.377-.501.656-.902.928-1.331.402-.633.753-1.304 1.02-1.948.562-1.361.865-2.812.928-4.447.011-.28.014-.771.01-1.038-.024-.89-.11-1.68-.268-2.462-.29-1.44-.805-2.726-1.613-4.032-.174-.283-.507-.782-.52-.781 0 0-.026.028-.05.06-.123.167-.348.46-.688.898-.475.611-.673.873-.877 1.155-.192.266-.374.536-.52.769a7.098 7.098 0 0 0-.137.23l.052.1a8.27 8.27 0 0 1 .807 2.186c.109.505.177 1.035.208 1.612.012.232.014.307.014.677 0 .425 0 .573-.028.896-.082 1.144-.322 2.129-.747 3.064-.259.57-.592 1.132-1.056 1.785a34.2 34.2 0 0 1-.884 1.17l-.278.359c-.744.959-1.205 1.623-1.613 2.326-.197.34-.4.732-.56 1.084-.658 1.438-1.016 2.991-1.093 4.742a12.4 12.4 0 0 0-.012.717c0 .403 0 .482.014.752.08 1.736.44 3.288 1.095 4.718.267.582.579 1.143.96 1.73.135.206.326.486.333.486 0 0 .04-.047.082-.103zm2.507-3.599c.468-.951.729-1.967.81-3.155.03-.423.035-.918.017-1.344-.05-1.202-.27-2.212-.684-3.161a6.652 6.652 0 0 0-.202-.423s-.119.236-.18.375c-.42.936-.646 1.947-.703 3.134-.016.339-.018.77 0 1.11.056 1.325.32 2.432.825 3.46.032.066.06.12.061.12l.06-.116zm-.01-16.133a7.776 7.776 0 0 0 .659-1.958c.129-.654.19-1.372.183-2.144 0-.224-.01-.333-.014-.515-.064-1.278-.328-2.356-.822-3.36a2.071 2.071 0 0 0-.06-.116l-.06.12c-.481.978-.743 2.027-.815 3.261-.025.422-.027.892-.01 1.31.057 1.186.284 2.197.702 3.133.062.139.176.375.18.375 0 0 .027-.048.055-.106zm-2.528-12.521c.153-.206.336-.444.705-.919.282-.363.35-.451.476-.616.43-.566.74-1.012.992-1.435.041-.069.044-.074.04-.082 0-.01-.02-.037-.038-.072a9.275 9.275 0 0 1-.179-.35c-.462-.954-.726-1.954-.822-3.11-.025-.3-.035-.519-.04-.875 0-.28-.01-.331-.028-.454a1.806 1.806 0 0 0-.501-.974 1.81 1.81 0 0 0-1.03-.51 1.282 1.282 0 0 0-.24-.014c-.125 0-.15 0-.24.014a1.8 1.8 0 0 0-1.538 1.527c-.016.11-.016.115-.016.393 0 .258 0 .368.014.61.077 1.683.418 3.193 1.036 4.586.332.747.757 1.496 1.278 2.247.065.093.073.105.076.105l.056-.071z" transform="translate(2813.402 1274.572)"/></svg>