<svg width="200" height="200" viewBox="0 0 52.917 52.917" xmlns="http://www.w3.org/2000/svg"><path style="fill:#000;fill-opacity:1;stroke:none;stroke-width:.705924;stroke-opacity:1" d="M-9.33 100.609a3.275 3.275 0 0 0-3.018 1.925c-.214.467-.268.75-.264 1.405.003.67.062.935.297 1.39a3.902 3.902 0 0 0 1.319 1.44c.209.129.49.22.772.292.113.03.226.061.314.089.007.092.01.21.017.375.014.376.022.92.022 1.588 0 1.001-.006 1.512-.022 1.776l-.05-.012a15.58 15.58 0 0 1-.634-.165 50.433 50.433 0 0 1-1.909-.58c-2.79-.901-4.498-1.208-5.697-.888a3.5 3.5 0 0 0-1.274.596c-.441.324-.961.813-1.825 1.654-.659.642-1.103 1.026-1.456 1.236-.352.21-.602.267-.987.27-.198.002-.268-.016-.277-.012-.005-.033-.015-.08-.015-.17v-.662h-1.688v.37c-.075-.037-.146-.068-.232-.116a6.109 6.109 0 0 1-.755-.49c-.187-.152-.32-.265-.425-.348-.106-.083-.137-.142-.32-.194-.023-.007-.049-.008-.082-.01a.722.722 0 0 0-.122.01c-.003 0-.13.06-.133.062l-.054.054a.505.505 0 0 0-.039.05c-.085.14-.063.208-.06.259.006.102.022.174.037.27.17 1.086.967 2.176 1.953 2.676l.232.116v.496h-1.263l-.48 1.494c-.222.687-.706 2.17-1.076 3.298-.369 1.129-1.108 3.383-1.638 5.008-.53 1.625-1.26 3.869-1.626 4.986l-.59 1.787h-3.602l.827.97c1.685 1.983 3.641 3.03 6.757 3.64 1.06.207 1.339.227 3.37.226 2.035 0 2.31-.018 3.353-.226 2.924-.586 5.121-1.722 6.59-3.453l.927-1.097-2.118-.06-1.137-.034-.104-.336c-.102-.317-.392-1.201-.64-1.969a474.09 474.09 0 0 1-.955-2.995c-.277-.881-.572-1.794-.661-2.057-.08-.232-.46-1.424-.843-2.62-.384-1.196-1.002-3.108-1.369-4.246l-.739-2.305-.92-.033-.332-.012v-.06l.728-.034c.3-.014.603-.036.855-.06.253-.026.424-.044.58-.089.847-.246 1.578-.604 2.575-1.263.7-.462 1.111-.714 1.423-.832.312-.119.541-.129.976-.105.774.042 1.197.208 2.84 1.125.59.329 1.284.705 1.572.849.724.362 1.916.775 2.548.85l.105.01-.06 4.352-.056 4.589-.86 1.737-.938 1.886.058 9.238h-5.132v5.192l-3.705 5.192h22.82l-3.703-5.192v-5.192H-6.46l-.036-9.471-.233-.408a62.26 62.26 0 0 1-.87-1.777l-.662-1.389v-8.774l.27-.049c1.061-.207 1.911-.596 4.307-1.93 1.352-.753 2.104-.958 2.857-.856.426.058.827.256 2.046 1.065 1.345.892 2.545 1.304 3.85 1.307.207 0 .256.008.303.012v.099c-.051.003-.12.011-.358.011H4.12l-.253.7c-.106.295-.6 1.816-1.126 3.442a880.016 880.016 0 0 1-1.35 4.142c-.218.657-.824 2.517-1.351 4.142a514.756 514.756 0 0 1-1.198 3.65l-.154.458-1.28.022-2.217.033.634.855c1.028 1.392 2.903 2.624 4.91 3.26 2.654.842 6.146.99 9.033.391 1.26-.261 2.1-.555 3.242-1.114 1.316-.644 2.212-1.356 3.221-2.564l.706-.844H13.66l-.094-.276c-.091-.27-.4-1.223-.678-2.101a243.23 243.23 0 0 0-.656-2.057c-.08-.24-.36-1.098-.612-1.887l-.695-2.172c-.226-.702-1.027-3.206-2.041-6.381l-.54-1.698H7.08v-.104c0-.127.008-.164.013-.201 1.32-.46 2.347-1.614 2.59-2.953l.25-1.352-1.242.998a7.655 7.655 0 0 1-.96.613c-.269.148-.462.225-.65.303v-.508H5.394v.668c0 .096-.01.145-.017.176a.75.75 0 0 1-.165-.017c-.297-.057-.53-.15-.86-.38-.33-.23-.747-.604-1.346-1.191-.965-.946-1.577-1.502-2.173-1.836-.595-.334-1.16-.411-1.897-.409-1.339.004-2.247.198-4.743.998-.695.223-1.413.433-1.98.59a21.48 21.48 0 0 1-.69.183c-.002-.082-.009-.142-.01-.248a63.239 63.239 0 0 1 0-1.594l.017-2.008.099-.027c.923-.273 1.62-.896 2.057-1.82.21-.444.27-.739.27-1.33 0-.59-.063-.887-.276-1.357a3.293 3.293 0 0 0-3.01-1.946zm14.663 16.528a16 16 0 0 1 .039.982c.018 1.057.022 2.956.022 6.336 0 2.083-.008 3.988-.017 5.384a186.6 186.6 0 0 1-.016 1.665c-.002.168-.003.288-.006.391-.057.006-.08.011-.188.017-.378.017-1.075.022-2.305.022a69.82 69.82 0 0 1-2.168-.022c-.082-.003-.103-.007-.165-.011l.017-.056a57.5 57.5 0 0 1 .292-.92c.473-1.435.968-2.94 1.699-5.174.339-1.037 1.016-3.127 1.622-4.99.603-1.858 1.118-3.44 1.174-3.624zm-31.083.166.023 7.213.022 7.418h-2.433a96.67 96.67 0 0 1-1.974-.017c-.174-.004-.285-.011-.408-.017l.044-.148c.1-.334.246-.792.409-1.286.327-.993 1.024-3.133 1.554-4.758l1.622-4.964.954-2.912c.066-.202.13-.376.187-.53zm1.799.01c.025.06.028.06.06.145.196.53.531 1.565 1.158 3.529.368 1.151.975 3.057 1.352 4.23l1.35 4.224c.368 1.151.723 2.256.79 2.46-.113.005-.21.013-.365.017a81.91 81.91 0 0 1-1.924.017c-1.211 0-1.9-.004-2.272-.023-.101-.004-.122-.01-.177-.016-.003-.103-.003-.223-.006-.391a210.74 210.74 0 0 1-.016-1.666 861.41 861.41 0 0 1-.016-5.383c0-4.098-.006-6.058.043-6.948.009-.155.007-.102.023-.194zm31.088.024.005.01c.155.421.426 1.268.938 2.901.232.738.917 2.878 1.842 5.747.657 2.039 1.15 3.582 1.478 4.627.163.522.289.92.37 1.192l.027.093c-.038.003-.04.004-.088.006-.382.016-1.067.021-2.228.021H7.082v-7.4c0-4.213-.005-6.205.044-7.087.003-.053.007-.066.01-.11z" transform="translate(35.98 -97.798)"/></svg>