<?xml version="1.0" encoding="UTF-8" standalone="no"?>
<svg
   width="200"
   height="200"
   id="svg2"
   version="1.1"
   inkscape:version="1.1 (c68e22c387, 2021-05-23)"
   sodipodi:docname="ext-nation.svg"
   xmlns:inkscape="http://www.inkscape.org/namespaces/inkscape"
   xmlns:sodipodi="http://sodipodi.sourceforge.net/DTD/sodipodi-0.dtd"
   xmlns="http://www.w3.org/2000/svg"
   xmlns:svg="http://www.w3.org/2000/svg"
   xmlns:rdf="http://www.w3.org/1999/02/22-rdf-syntax-ns#"
   xmlns:cc="http://creativecommons.org/ns#"
   xmlns:dc="http://purl.org/dc/elements/1.1/">
  <metadata
     id="metadata76">
    <rdf:RDF>
      <cc:Work
         rdf:about="">
        <dc:format>image/svg+xml</dc:format>
        <dc:type
           rdf:resource="http://purl.org/dc/dcmitype/StillImage" />
      </cc:Work>
    </rdf:RDF>
  </metadata>
  <defs
     id="defs74" />
  <sodipodi:namedview
     pagecolor="#ffffff"
     bordercolor="#666666"
     borderopacity="1"
     objecttolerance="10"
     gridtolerance="10"
     guidetolerance="10"
     inkscape:pageopacity="0"
     inkscape:pageshadow="2"
     inkscape:window-width="1920"
     inkscape:window-height="1009"
     id="namedview72"
     showgrid="false"
     fit-margin-top="0"
     fit-margin-left="0"
     fit-margin-right="0"
     fit-margin-bottom="0"
     inkscape:zoom="0.98429265"
     inkscape:cx="-230.11449"
     inkscape:cy="27.938845"
     inkscape:window-x="-8"
     inkscape:window-y="-8"
     inkscape:window-maximized="1"
     inkscape:current-layer="svg2"
     inkscape:pagecheckerboard="1" />
  <!-- <g fill="#ffd323" stroke="#000" stroke-width="1.575"> -->
  <!-- <g fill="#b58f4b" stroke="#000" stroke-width="1.575"> -->
  <g
     style="fill:#ffffff;stroke:#000000;stroke-width:1.575;stroke-miterlimit:4;stroke-dasharray:none"
     id="g56"
     transform="translate(4.9842,-21.21255)" />
  <path
     id="rect10"
     style="fill:#000000;fill-opacity:1;stroke:#000000;stroke-width:0.353651;stroke-miterlimit:4;stroke-dasharray:none;stroke-opacity:1"
     d="M 96.18296,0.17685567 V 4.7879557 h -0.01 -7.6437 -7.6442 v 31.2556203 6.65392 6.65434 83.700044 15.02172 7.72477 6.49474 32.91902 h 7.6442 7.6437 0.01 v 4.61108 h 7.63309 v -4.61108 h 0.01 7.64369 7.17391 v 0.0823 h 4.6531 v -33.00136 -6.49474 -6.49518 -56.383634 l 28.2892,-0.0467 c 3.5595,-21.65224 -0.6214,-39.37013 -13.1444,-51.53272 l -1.6787,1.0352 c -0.01,-0.008 -0.017,-0.0179 -0.026,-0.0263 l 0.01,0.0369 -7.3725,4.54573 c 6.4995,16.94478 0.9419,21.57857 -6.0766,22.60006 v -10.02565 h -4.1829 V 4.7878957 h -7.6441 -7.6437 -0.01 V 0.17679567 Z" />
</svg>
