<svg width="200" height="200" viewBox="0 0 52.917 52.917" xmlns="http://www.w3.org/2000/svg"><path style="fill:#000;stroke:none;stroke-width:.440609;stroke-linecap:square;stroke-opacity:1;paint-order:markers fill stroke" d="M21.845 4.428C11.216 4.435 2.108 12.03.19 22.484h7.437a14.765 14.765 0 0 1 14.217-10.79c6.896 0 12.687 4.727 14.31 11.118H28.61a7.603 7.603 0 0 0-6.671-3.957 7.603 7.603 0 0 0-7.603 7.603 7.603 7.603 0 0 0 7.603 7.603 7.603 7.603 0 0 0 6.666-3.956h7.551c-1.623 6.39-7.415 11.118-14.31 11.118A14.764 14.764 0 0 1 7.34 29.207H0c1.385 11.012 10.746 19.275 21.845 19.282 10.925 0 19.99-7.953 21.728-18.384h1.897l7.447-7.293h-9.344C41.836 12.38 32.77 4.428 21.845 4.428Z"/></svg>