<svg width="200" height="200" viewBox="0 0 52.917 52.917" xmlns="http://www.w3.org/2000/svg"><path d="M168.598 60.364c-15.167 0-27.5 12.333-27.5 27.5s12.333 27.5 27.5 27.5 27.5-12.333 27.5-27.5-12.333-27.5-27.5-27.5z" style="color:#000;font-style:normal;font-variant:normal;font-weight:400;font-stretch:normal;font-size:medium;line-height:normal;font-family:sans-serif;font-variant-ligatures:normal;font-variant-position:normal;font-variant-caps:normal;font-variant-numeric:normal;font-variant-alternates:normal;font-variant-east-asian:normal;font-feature-settings:normal;font-variation-settings:normal;text-indent:0;text-align:start;text-decoration:none;text-decoration-line:none;text-decoration-style:solid;text-decoration-color:#000;letter-spacing:normal;word-spacing:normal;text-transform:none;writing-mode:lr-tb;direction:ltr;text-orientation:mixed;dominant-baseline:auto;baseline-shift:baseline;text-anchor:start;white-space:normal;shape-padding:0;shape-margin:0;inline-size:0;clip-rule:nonzero;display:inline;overflow:visible;visibility:visible;opacity:1;isolation:auto;mix-blend-mode:normal;color-interpolation:sRGB;color-interpolation-filters:linearRGB;solid-color:#000;solid-opacity:1;vector-effect:none;fill:#000;fill-opacity:1;fill-rule:evenodd;stroke:none;stroke-width:3.50109;stroke-linecap:butt;stroke-linejoin:round;stroke-miterlimit:6.3;stroke-dasharray:none;stroke-dashoffset:0;stroke-opacity:1;paint-order:stroke markers fill;color-rendering:auto;image-rendering:auto;shape-rendering:auto;text-rendering:auto;enable-background:accumulate;stop-color:#000;stop-opacity:1" transform="translate(-29.602 -2.767) scale(.33262)"/><path style="color:#000;fill:#000;-inkscape-stroke:none;paint-order:markers fill stroke" d="M168.598 44.514c-21.392 0-36.199 5.677-47.885 13.763-11.687 8.086-20.271 18.427-29.762 27.752l-1.955 1.92 2.04 1.83c11.531 10.342 20.049 20.608 31.222 28.442 11.173 7.833 24.99 12.994 46.34 12.994 21.37 0 35.927-5.41 47.492-13.371 11.565-7.961 20.14-18.296 30.156-28.147l1.84-1.81-1.816-1.832c-9.772-9.863-18.358-20.213-29.99-28.174-11.634-7.961-26.311-13.367-47.682-13.367Zm0 5.142c20.517 0 33.893 5.021 44.775 12.469 10.21 6.987 18.296 16.296 27.48 25.725-9.415 9.442-17.525 18.768-27.68 25.757-10.82 7.448-24.058 12.465-44.575 12.465-20.539 0-32.955-4.747-43.389-12.062-9.798-6.87-18.047-16.29-28.8-26.2 8.94-8.979 16.992-18.22 27.23-25.304 10.959-7.583 24.463-12.85 44.959-12.85z" transform="translate(-29.602 -2.767) scale(.33262)"/></svg>