<?xml version="1.0" encoding="UTF-8" standalone="no"?>
<svg
   width="200"
   height="200"
   viewBox="0 0 52.917 52.917"
   version="1.1"
   id="svg233"
   sodipodi:docname="revolution.svg"
   inkscape:version="1.1 (c68e22c387, 2021-05-23)"
   xmlns:inkscape="http://www.inkscape.org/namespaces/inkscape"
   xmlns:sodipodi="http://sodipodi.sourceforge.net/DTD/sodipodi-0.dtd"
   xmlns="http://www.w3.org/2000/svg"
   xmlns:svg="http://www.w3.org/2000/svg">
  <sodipodi:namedview
     id="namedview235"
     pagecolor="#505050"
     bordercolor="#ffffff"
     borderopacity="1"
     inkscape:pageshadow="0"
     inkscape:pageopacity="0"
     inkscape:pagecheckerboard="1"
     showgrid="false"
     inkscape:zoom="2.06"
     inkscape:cx="16.747573"
     inkscape:cy="71.601942"
     inkscape:window-width="1920"
     inkscape:window-height="1009"
     inkscape:window-x="-8"
     inkscape:window-y="-8"
     inkscape:window-maximized="1"
     inkscape:current-layer="svg233" />
  <defs
     id="defs3">
    <path
       id="a"
       d="M-247.026 132.023h85.196v26.723h-85.196z" />
  </defs>
  <g
     style="visibility:visible;fill:#000000;fill-opacity:1;stroke:none;stroke-width:204.737;stroke-opacity:1"
     transform="matrix(0.00204938,0,0,0.00204938,4.7115041,-0.76853799)"
     id="g225">
    <g
       style="fill:#000000;fill-opacity:1;stroke:none;stroke-width:204.737;stroke-opacity:1"
       id="g29">
      <g
         style="fill:#000000;fill-opacity:1;stroke:none;stroke-width:204.737;stroke-opacity:1"
         id="g27">
        <path
           d="M 8639,426 6546,3840 9419,5161 11318,2109 Z"
           style="fill:#000000;fill-opacity:1;stroke:none;stroke-width:204.737;stroke-opacity:1"
           id="path11" />
        <g
           style="fill:#000000;fill-opacity:1;stroke:none;stroke-width:204.737;stroke-opacity:1"
           id="g25">
          <path
             d="m 8682,453 -2093,3414 -43,-27 -43,-27 2093,-3414 43,27 z"
             style="fill:#000000;fill-opacity:1;stroke:none;stroke-width:204.737;stroke-opacity:1"
             id="path13" />
          <path
             d="m 6546,3840 -21,46 -8,-4 -7,-6 -6,-7 -4,-7 -3,-9 -2,-8 v -9 l 2,-9 3,-8 3,-6 z m 21,-46 2873,1321 -21,46 -21,46 -2873,-1321 21,-46 z m 2852,1367 43,27 -5,7 -7,6 -7,5 -8,3 -9,2 -9,1 -9,-1 -8,-3 -2,-1 z"
             style="fill:#000000;fill-opacity:1;stroke:none;stroke-width:204.737;stroke-opacity:1"
             id="path15" />
          <path
             d="m 9376,5134 1899,-3052 43,27 43,27 -1899,3052 -43,-27 z"
             style="fill:#000000;fill-opacity:1;stroke:none;stroke-width:204.737;stroke-opacity:1"
             id="path17" />
          <path
             d="m 11318,2109 27,-43 7,5 6,7 5,7 4,8 2,9 v 9 l -1,9 -3,8 -4,8 z"
             style="fill:#000000;fill-opacity:1;stroke:none;stroke-width:204.737;stroke-opacity:1"
             id="path19" />
          <path
             d="M 11291,2152 8612,469 l 27,-43 27,-43 2679,1683 -27,43 z"
             style="fill:#000000;fill-opacity:1;stroke:none;stroke-width:204.737;stroke-opacity:1"
             id="path21" />
          <path
             d="m 8639,426 -43,-27 5,-7 6,-6 8,-5 8,-3 8,-2 9,-1 9,1 9,3 8,4 z"
             style="fill:#000000;fill-opacity:1;stroke:none;stroke-width:204.737;stroke-opacity:1"
             id="path23" />
        </g>
      </g>
    </g>
    <g
       style="fill:#000000;fill-opacity:1;stroke:none;stroke-width:204.737;stroke-opacity:1"
       id="g57">
      <g
         style="fill:#000000;fill-opacity:1;stroke:none;stroke-width:204.737;stroke-opacity:1"
         id="g55">
        <path
           d="m 12291,2748 -1800,2958 2191,1093 -148,1184 2484,-3779 z"
           style="fill:#000000;fill-opacity:1;stroke:none;stroke-width:204.737;stroke-opacity:1"
           id="path31" />
        <g
           style="fill:#000000;fill-opacity:1;stroke:none;stroke-width:204.737;stroke-opacity:1"
           id="g53">
          <path
             d="m 12335,2775 -1800,2958 -44,-27 -44,-27 1800,-2958 44,27 z"
             style="fill:#000000;fill-opacity:1;stroke:none;stroke-width:204.737;stroke-opacity:1"
             id="path33" />
          <path
             d="m 10491,5706 -23,46 -7,-5 -7,-6 -6,-7 -4,-8 -3,-8 -1,-9 v -9 l 2,-8 3,-9 2,-4 z"
             style="fill:#000000;fill-opacity:1;stroke:none;stroke-width:204.737;stroke-opacity:1"
             id="path35" />
          <path
             d="m 10514,5660 2191,1093 -23,46 -23,46 -2191,-1093 23,-46 z"
             style="fill:#000000;fill-opacity:1;stroke:none;stroke-width:204.737;stroke-opacity:1"
             id="path37" />
          <path
             d="m 12682,6799 23,-46 7,5 7,6 6,7 4,8 3,8 1,9 v 9 z"
             style="fill:#000000;fill-opacity:1;stroke:none;stroke-width:204.737;stroke-opacity:1"
             id="path39" />
          <path
             d="m 12733,6805 -148,1184 -51,-6 -51,-6 148,-1184 51,6 z"
             style="fill:#000000;fill-opacity:1;stroke:none;stroke-width:204.737;stroke-opacity:1"
             id="path41" />
          <path
             d="m 12534,7983 43,28 -6,7 -7,6 -7,5 -8,3 -9,2 h -9 l -9,-1 -8,-3 -8,-4 -7,-6 -6,-7 -5,-7 -3,-8 -2,-9 v -12 z"
             style="fill:#000000;fill-opacity:1;stroke:none;stroke-width:204.737;stroke-opacity:1"
             id="path43" />
          <path
             d="m 12491,7955 2484,-3779 43,28 43,28 -2484,3779 -43,-28 z"
             style="fill:#000000;fill-opacity:1;stroke:none;stroke-width:204.737;stroke-opacity:1"
             id="path45" />
          <path
             d="m 15018,4204 24,-45 7,5 7,6 5,7 4,8 3,8 1,9 -1,9 -2,9 -3,8 -2,4 z"
             style="fill:#000000;fill-opacity:1;stroke:none;stroke-width:204.737;stroke-opacity:1"
             id="path47" />
          <path
             d="m 14994,4249 -2727,-1456 24,-45 24,-45 2727,1456 -24,45 z"
             style="fill:#000000;fill-opacity:1;stroke:none;stroke-width:204.737;stroke-opacity:1"
             id="path49" />
          <path
             d="m 12291,2748 -44,-27 6,-7 6,-6 8,-5 8,-3 8,-2 9,-1 9,1 9,2 5,3 z"
             style="fill:#000000;fill-opacity:1;stroke:none;stroke-width:204.737;stroke-opacity:1"
             id="path51" />
        </g>
      </g>
    </g>
    <g
       style="fill:#000000;fill-opacity:1;stroke:none;stroke-width:204.737;stroke-opacity:1"
       id="g81">
      <g
         style="fill:#000000;fill-opacity:1;stroke:none;stroke-width:204.737;stroke-opacity:1"
         id="g79">
        <path
           d="m 15701,5479 -3896,5462 2337,864 3847,-4552 h -49 z"
           style="fill:#000000;fill-opacity:1;stroke:none;stroke-width:204.737;stroke-opacity:1"
           id="path59" />
        <g
           style="fill:#000000;fill-opacity:1;stroke:none;stroke-width:204.737;stroke-opacity:1"
           id="g77">
          <path
             d="m 15743,5509 -3896,5462 -42,-30 -42,-30 3896,-5462 42,30 z"
             style="fill:#000000;fill-opacity:1;stroke:none;stroke-width:204.737;stroke-opacity:1"
             id="path61" />
          <path
             d="m 11805,10941 -18,48 -8,-4 -7,-5 -6,-6 -5,-8 -4,-8 -2,-8 -1,-9 1,-9 2,-9 4,-8 2,-4 z"
             style="fill:#000000;fill-opacity:1;stroke:none;stroke-width:204.737;stroke-opacity:1"
             id="path63" />
          <path
             d="m 11823,10893 2337,864 -18,48 -18,48 -2337,-864 18,-48 z"
             style="fill:#000000;fill-opacity:1;stroke:none;stroke-width:204.737;stroke-opacity:1"
             id="path65" />
          <path
             d="m 14142,11805 39,33 -6,6 -8,5 -8,4 -8,2 -9,1 -9,-1 -9,-2 z"
             style="fill:#000000;fill-opacity:1;stroke:none;stroke-width:204.737;stroke-opacity:1"
             id="path67" />
          <path
             d="m 14103,11772 3847,-4552 39,33 39,33 -3847,4552 -39,-33 z"
             style="fill:#000000;fill-opacity:1;stroke:none;stroke-width:204.737;stroke-opacity:1"
             id="path69" />
          <path
             d="m 17989,7253 v -51 l 9,1 8,2 8,4 8,5 6,6 5,7 4,9 2,8 1,9 -1,9 -2,8 -4,8 -5,8 z m 0,51 h -49 v -102 h 49 v 51 z m -49,-51 v 51 l -9,-1 -8,-2 -8,-4 -7,-4 z"
             style="fill:#000000;fill-opacity:1;stroke:none;stroke-width:204.737;stroke-opacity:1"
             id="path71" />
          <path
             d="m 17908,7293 -2239,-1774 32,-40 32,-40 2239,1774 -32,40 z"
             style="fill:#000000;fill-opacity:1;stroke:none;stroke-width:204.737;stroke-opacity:1"
             id="path73" />
          <path
             d="m 15701,5479 -42,-30 6,-6 7,-6 8,-4 8,-3 9,-2 h 9 l 9,2 8,3 8,4 2,2 z"
             style="fill:#000000;fill-opacity:1;stroke:none;stroke-width:204.737;stroke-opacity:1"
             id="path75" />
        </g>
      </g>
    </g>
    <g
       style="fill:#000000;fill-opacity:1;stroke:none;stroke-width:204.737;stroke-opacity:1"
       id="g101">
      <g
         style="fill:#000000;fill-opacity:1;stroke:none;stroke-width:204.737;stroke-opacity:1"
         id="g99">
        <path
           d="m 18573,8255 -3603,4189 1119,1138 4139,-3689 z"
           style="fill:#000000;fill-opacity:1;stroke:none;stroke-width:204.737;stroke-opacity:1"
           id="path83" />
        <g
           style="fill:#000000;fill-opacity:1;stroke:none;stroke-width:204.737;stroke-opacity:1"
           id="g97">
          <path
             d="m 18612,8288 -3603,4189 -39,-33 -39,-33 3603,-4189 39,33 z"
             style="fill:#000000;fill-opacity:1;stroke:none;stroke-width:204.737;stroke-opacity:1"
             id="path85" />
          <path
             d="m 14970,12444 -36,36 -6,-7 -4,-8 -3,-8 -2,-9 v -9 l 2,-9 3,-8 4,-8 3,-3 z m 36,-36 1119,1138 -36,36 -36,36 -1119,-1138 36,-36 z m 1083,1174 34,38 -7,5 -8,4 -9,3 -8,1 -9,-1 -9,-2 -8,-3 -8,-5 -4,-4 z"
             style="fill:#000000;fill-opacity:1;stroke:none;stroke-width:204.737;stroke-opacity:1"
             id="path87" />
          <path
             d="m 16055,13544 4139,-3689 34,38 34,38 -4139,3689 -34,-38 z"
             style="fill:#000000;fill-opacity:1;stroke:none;stroke-width:204.737;stroke-opacity:1"
             id="path89" />
          <path
             d="m 20228,9893 36,-36 6,7 4,7 3,9 2,8 v 9 l -2,9 -3,8 -4,8 -6,7 -2,2 z"
             style="fill:#000000;fill-opacity:1;stroke:none;stroke-width:204.737;stroke-opacity:1"
             id="path91" />
          <path
             d="m 20192,9929 -1655,-1638 36,-36 36,-36 1655,1638 -36,36 z"
             style="fill:#000000;fill-opacity:1;stroke:none;stroke-width:204.737;stroke-opacity:1"
             id="path93" />
          <path
             d="m 18573,8255 -39,-33 7,-6 7,-5 8,-4 9,-2 9,-1 8,1 9,2 8,4 7,5 3,3 z"
             style="fill:#000000;fill-opacity:1;stroke:none;stroke-width:204.737;stroke-opacity:1"
             id="path95" />
        </g>
      </g>
    </g>
    <g
       style="fill:#000000;fill-opacity:1;stroke:none;stroke-width:204.737;stroke-opacity:1"
       id="g203">
      <g
         style="fill:#000000;fill-opacity:1;stroke:none;stroke-width:204.737;stroke-opacity:1"
         id="g201">
        <path
           d="m 5377,4568 -4382,6509 6720,7693 -1267,7375 9884,-91 -438,-6692 2290,-2913 584,-3916 -2629,2186 -2192,-1957 -3992,-957 3896,6101 876,637 -1412,45 -438,1594 -586,-1594 -1460,229 1606,-1411 L 8639,11533 5669,10532 6741,9575 6448,7983 h 633 l 974,1365 2191,-91 1169,-637 146,-1458 z"
           style="fill:#000000;fill-opacity:1;stroke:none;stroke-width:204.737;stroke-opacity:1"
           id="path103" />
        <g
           style="fill:#000000;fill-opacity:1;stroke:none;stroke-width:204.737;stroke-opacity:1"
           id="g199">
          <path
             d="m 5419,4596 -4382,6509 -42,-28 -42,-28 4382,-6509 42,28 z"
             style="fill:#000000;fill-opacity:1;stroke:none;stroke-width:204.737;stroke-opacity:1"
             id="path105" />
          <path
             d="m 995,11077 -38,34 -6,-8 -4,-8 -2,-8 -1,-9 1,-9 2,-8 3,-9 3,-3 z m 38,-34 6720,7693 -38,34 -38,34 -6720,-7693 38,-34 z m 6682,7727 38,-34 6,8 4,8 2,8 1,9 -1,9 v 1 z"
             style="fill:#000000;fill-opacity:1;stroke:none;stroke-width:204.737;stroke-opacity:1"
             id="path107" />
          <path
             d="m 7765,18779 -1267,7375 -50,-9 -50,-9 1267,-7375 50,9 z"
             style="fill:#000000;fill-opacity:1;stroke:none;stroke-width:204.737;stroke-opacity:1"
             id="path109" />
          <path
             d="m 6448,26145 v 51 l -8,-1 -9,-2 -8,-4 -7,-5 -7,-6 -5,-7 -4,-8 -2,-9 -1,-9 1,-8 v -1 z m 0,-51 9884,-91 v 102 l -9884,91 v -51 z m 9884,-40 51,-3 v 9 l -2,8 -3,9 -5,7 -6,7 -7,5 -7,5 -9,3 -9,1 h -3 z"
             style="fill:#000000;fill-opacity:1;stroke:none;stroke-width:204.737;stroke-opacity:1"
             id="path111" />
          <path
             d="m 16281,26057 -438,-6692 51,-3 51,-3 438,6692 -51,3 z"
             style="fill:#000000;fill-opacity:1;stroke:none;stroke-width:204.737;stroke-opacity:1"
             id="path113" />
          <path
             d="m 15894,19362 -51,3 v -9 l 2,-8 3,-9 5,-7 1,-2 z"
             style="fill:#000000;fill-opacity:1;stroke:none;stroke-width:204.737;stroke-opacity:1"
             id="path115" />
          <path
             d="m 15854,19330 2290,-2913 40,32 40,32 -2290,2913 -40,-32 z"
             style="fill:#000000;fill-opacity:1;stroke:none;stroke-width:204.737;stroke-opacity:1"
             id="path117" />
          <path
             d="m 18184,16449 50,8 -2,8 -3,8 -5,8 z"
             style="fill:#000000;fill-opacity:1;stroke:none;stroke-width:204.737;stroke-opacity:1"
             id="path119" />
          <path
             d="m 18134,16441 584,-3916 50,8 50,8 -584,3916 -50,-8 z"
             style="fill:#000000;fill-opacity:1;stroke:none;stroke-width:204.737;stroke-opacity:1"
             id="path121" />
          <path
             d="m 18768,12533 -33,-39 8,-5 8,-4 8,-2 9,-1 9,1 9,2 8,4 7,5 6,6 5,8 4,8 2,8 1,9 -1,8 z"
             style="fill:#000000;fill-opacity:1;stroke:none;stroke-width:204.737;stroke-opacity:1"
             id="path123" />
          <path
             d="m 18801,12572 -2629,2186 -33,-39 -33,-39 2629,-2186 33,39 z"
             style="fill:#000000;fill-opacity:1;stroke:none;stroke-width:204.737;stroke-opacity:1"
             id="path125" />
          <path
             d="m 16139,14719 33,39 -8,5 -8,4 -8,2 -9,1 -9,-1 -9,-2 -8,-4 -7,-5 -1,-1 z"
             style="fill:#000000;fill-opacity:1;stroke:none;stroke-width:204.737;stroke-opacity:1"
             id="path127" />
          <path
             d="m 16105,14757 -2192,-1957 34,-38 34,-38 2192,1957 -34,38 z"
             style="fill:#000000;fill-opacity:1;stroke:none;stroke-width:204.737;stroke-opacity:1"
             id="path129" />
          <path
             d="m 13947,12762 12,-50 8,3 8,4 6,5 z"
             style="fill:#000000;fill-opacity:1;stroke:none;stroke-width:204.737;stroke-opacity:1"
             id="path131" />
          <path
             d="m 13935,12812 -3992,-957 12,-50 12,-50 3992,957 -12,50 z"
             style="fill:#000000;fill-opacity:1;stroke:none;stroke-width:204.737;stroke-opacity:1"
             id="path133" />
          <path
             d="m 9955,11805 -43,27 -4,-7 -3,-9 -1,-9 v -9 l 2,-8 4,-9 5,-7 6,-7 7,-5 7,-4 9,-3 9,-1 h 9 l 5,1 z"
             style="fill:#000000;fill-opacity:1;stroke:none;stroke-width:204.737;stroke-opacity:1"
             id="path135" />
          <path
             d="m 9998,11778 3896,6101 -43,27 -43,27 -3896,-6101 43,-27 z"
             style="fill:#000000;fill-opacity:1;stroke:none;stroke-width:204.737;stroke-opacity:1"
             id="path137" />
          <path
             d="m 13851,17906 -30,41 -7,-6 -5,-6 -1,-2 z"
             style="fill:#000000;fill-opacity:1;stroke:none;stroke-width:204.737;stroke-opacity:1"
             id="path139" />
          <path
             d="m 13881,17865 876,637 -30,41 -30,41 -876,-637 30,-41 z"
             style="fill:#000000;fill-opacity:1;stroke:none;stroke-width:204.737;stroke-opacity:1"
             id="path141" />
          <path
             d="m 14727,18543 30,-41 7,6 5,6 5,8 2,9 2,8 v 9 l -2,9 -3,8 -5,8 -6,7 -6,5 -8,5 -9,2 -8,2 h -2 z"
             style="fill:#000000;fill-opacity:1;stroke:none;stroke-width:204.737;stroke-opacity:1"
             id="path143" />
          <path
             d="m 14729,18594 -1412,45 -2,-51 -2,-51 1412,-45 2,51 z"
             style="fill:#000000;fill-opacity:1;stroke:none;stroke-width:204.737;stroke-opacity:1"
             id="path145" />
          <path
             d="m 13315,18588 -49,-14 3,-8 4,-8 6,-6 7,-6 8,-4 8,-3 9,-2 h 2 z"
             style="fill:#000000;fill-opacity:1;stroke:none;stroke-width:204.737;stroke-opacity:1"
             id="path147" />
          <path
             d="m 13364,18602 -438,1594 -49,-14 -49,-14 438,-1594 49,14 z"
             style="fill:#000000;fill-opacity:1;stroke:none;stroke-width:204.737;stroke-opacity:1"
             id="path149" />
          <path
             d="m 12877,20182 49,14 -3,8 -4,8 -6,6 -7,6 -8,4 -8,3 -9,2 h -9 l -9,-2 -8,-3 -8,-4 -6,-6 -6,-7 -4,-8 -2,-3 z"
             style="fill:#000000;fill-opacity:1;stroke:none;stroke-width:204.737;stroke-opacity:1"
             id="path151" />
          <path
             d="m 12829,20200 -586,-1594 48,-18 48,-18 586,1594 -48,18 z"
             style="fill:#000000;fill-opacity:1;stroke:none;stroke-width:204.737;stroke-opacity:1"
             id="path153" />
          <path
             d="m 12291,18588 -8,-50 9,-1 9,1 8,2 8,4 8,6 6,6 5,7 3,7 z"
             style="fill:#000000;fill-opacity:1;stroke:none;stroke-width:204.737;stroke-opacity:1"
             id="path155" />
          <path
             d="m 12299,18638 -1460,229 -8,-50 -8,-50 1460,-229 8,50 z"
             style="fill:#000000;fill-opacity:1;stroke:none;stroke-width:204.737;stroke-opacity:1"
             id="path157" />
          <path
             d="m 10831,18817 8,50 -9,1 -9,-1 -8,-2 -8,-4 -8,-6 -6,-6 -5,-7 -3,-8 -2,-9 -1,-9 1,-9 2,-8 4,-8 6,-8 4,-4 z"
             style="fill:#000000;fill-opacity:1;stroke:none;stroke-width:204.737;stroke-opacity:1"
             id="path159" />
          <path
             d="m 10797,18779 1606,-1411 34,38 34,38 -1606,1411 -34,-38 z"
             style="fill:#000000;fill-opacity:1;stroke:none;stroke-width:204.737;stroke-opacity:1"
             id="path161" />
          <path
             d="m 12437,17406 43,-28 4,8 3,9 1,8 v 9 l -2,9 -4,8 -4,8 -6,6 -1,1 z"
             style="fill:#000000;fill-opacity:1;stroke:none;stroke-width:204.737;stroke-opacity:1"
             id="path163" />
          <path
             d="m 12394,17434 -3798,-5873 43,-28 43,-28 3798,5873 -43,28 z"
             style="fill:#000000;fill-opacity:1;stroke:none;stroke-width:204.737;stroke-opacity:1"
             id="path165" />
          <path
             d="m 8639,11533 16,-48 8,3 8,5 6,6 5,6 z"
             style="fill:#000000;fill-opacity:1;stroke:none;stroke-width:204.737;stroke-opacity:1"
             id="path167" />
          <path
             d="m 8623,11581 -2970,-1001 16,-48 16,-48 2970,1001 -16,48 z"
             style="fill:#000000;fill-opacity:1;stroke:none;stroke-width:204.737;stroke-opacity:1"
             id="path169" />
          <path
             d="m 5669,10532 -16,48 -8,-3 -8,-5 -6,-6 -6,-7 -3,-8 -3,-9 -1,-9 1,-9 2,-8 3,-8 5,-8 6,-6 z"
             style="fill:#000000;fill-opacity:1;stroke:none;stroke-width:204.737;stroke-opacity:1"
             id="path171" />
          <path
             d="m 5635,10494 1072,-957 34,38 34,38 -1072,957 -34,-38 z"
             style="fill:#000000;fill-opacity:1;stroke:none;stroke-width:204.737;stroke-opacity:1"
             id="path173" />
          <path
             d="m 6741,9575 50,-9 1,9 -1,8 -2,9 -4,8 -5,7 -5,6 z"
             style="fill:#000000;fill-opacity:1;stroke:none;stroke-width:204.737;stroke-opacity:1"
             id="path175" />
          <path
             d="m 6691,9584 -293,-1592 50,-9 50,-9 293,1592 -50,9 z"
             style="fill:#000000;fill-opacity:1;stroke:none;stroke-width:204.737;stroke-opacity:1"
             id="path177" />
          <path
             d="m 6448,7983 -50,9 -1,-9 1,-8 2,-9 4,-8 5,-7 6,-7 7,-5 8,-4 9,-2 9,-1 z m 0,-51 h 633 v 102 h -633 v -51 z m 633,51 v -51 l 9,1 8,2 8,4 8,5 6,6 3,3 z"
             style="fill:#000000;fill-opacity:1;stroke:none;stroke-width:204.737;stroke-opacity:1"
             id="path179" />
          <path
             d="m 7123,7953 974,1365 -42,30 -42,30 -974,-1365 42,-30 z m 932,1395 2,51 h -9 l -8,-2 -9,-4 -7,-5 -7,-6 -4,-4 z"
             style="fill:#000000;fill-opacity:1;stroke:none;stroke-width:204.737;stroke-opacity:1"
             id="path181" />
          <path
             d="m 8053,9297 2191,-91 2,51 2,51 -2191,91 -2,-51 z"
             style="fill:#000000;fill-opacity:1;stroke:none;stroke-width:204.737;stroke-opacity:1"
             id="path183" />
          <path
             d="m 10246,9257 24,45 -8,3 -8,2 -6,1 z"
             style="fill:#000000;fill-opacity:1;stroke:none;stroke-width:204.737;stroke-opacity:1"
             id="path185" />
          <path
             d="m 10222,9212 1169,-637 24,45 24,45 -1169,637 -24,-45 z"
             style="fill:#000000;fill-opacity:1;stroke:none;stroke-width:204.737;stroke-opacity:1"
             id="path187" />
          <path
             d="m 11415,8620 51,5 -2,9 -3,8 -5,8 -5,7 -7,5 -5,3 z"
             style="fill:#000000;fill-opacity:1;stroke:none;stroke-width:204.737;stroke-opacity:1"
             id="path189" />
          <path
             d="m 11364,8615 146,-1458 51,5 51,5 -146,1458 -51,-5 z"
             style="fill:#000000;fill-opacity:1;stroke:none;stroke-width:204.737;stroke-opacity:1"
             id="path191" />
          <path
             d="m 11561,7162 20,-47 8,4 7,6 6,6 4,8 4,8 2,9 v 11 z"
             style="fill:#000000;fill-opacity:1;stroke:none;stroke-width:204.737;stroke-opacity:1"
             id="path193" />
          <path
             d="m 11541,7209 -6184,-2594 20,-47 20,-47 6184,2594 -20,47 z"
             style="fill:#000000;fill-opacity:1;stroke:none;stroke-width:204.737;stroke-opacity:1"
             id="path195" />
          <path
             d="m 5377,4568 -42,-28 5,-7 7,-6 8,-5 8,-3 9,-2 h 9 l 8,2 8,2 z"
             style="fill:#000000;fill-opacity:1;stroke:none;stroke-width:204.737;stroke-opacity:1"
             id="path197" />
        </g>
      </g>
    </g>
    <g
       style="fill:#000000;fill-opacity:1;stroke:none;stroke-width:204.737;stroke-opacity:1"
       id="g223">
      <g
         style="fill:#000000;fill-opacity:1;stroke:none;stroke-width:204.737;stroke-opacity:1"
         id="g221">
        <path
           d="m 11513,9849 -1120,1184 -1218,-501 z"
           style="fill:#000000;fill-opacity:1;stroke:none;stroke-width:204.737;stroke-opacity:1"
           id="path205" />
        <g
           style="fill:#000000;fill-opacity:1;stroke:none;stroke-width:204.737;stroke-opacity:1"
           id="g219">
          <path
             d="m 11550,9884 -1120,1184 -37,-35 -37,-35 1120,-1184 37,35 z"
             style="fill:#000000;fill-opacity:1;stroke:none;stroke-width:204.737;stroke-opacity:1"
             id="path207" />
          <path
             d="m 10393,11033 37,35 -7,6 -7,5 -8,3 -9,2 h -9 l -9,-1 -7,-3 z"
             style="fill:#000000;fill-opacity:1;stroke:none;stroke-width:204.737;stroke-opacity:1"
             id="path209" />
          <path
             d="m 10374,11080 -1218,-501 19,-47 19,-47 1218,501 -19,47 z"
             style="fill:#000000;fill-opacity:1;stroke:none;stroke-width:204.737;stroke-opacity:1"
             id="path211" />
          <path
             d="m 9175,10532 -19,47 -8,-4 -7,-5 -6,-7 -5,-7 -4,-9 -2,-8 v -9 l 1,-9 3,-8 4,-8 5,-7 7,-6 7,-5 9,-4 h 1 z"
             style="fill:#000000;fill-opacity:1;stroke:none;stroke-width:204.737;stroke-opacity:1"
             id="path213" />
          <path
             d="m 9161,10483 2338,-683 14,49 14,49 -2338,683 -14,-49 z"
             style="fill:#000000;fill-opacity:1;stroke:none;stroke-width:204.737;stroke-opacity:1"
             id="path215" />
          <path
             d="m 11513,9849 -14,-49 8,-2 h 9 l 9,1 9,3 7,5 7,5 6,7 5,7 3,9 2,8 v 9 l -1,9 -3,9 -5,7 -5,7 z"
             style="fill:#000000;fill-opacity:1;stroke:none;stroke-width:204.737;stroke-opacity:1"
             id="path217" />
        </g>
      </g>
    </g>
  </g>
</svg>
