<?xml version="1.0" encoding="UTF-8" standalone="no"?>
<!-- Created with Inkscape (http://www.inkscape.org/) -->

<svg
   width="200"
   height="200"
   id="svg2390"
   sodipodi:version="0.32"
   inkscape:version="1.1 (c68e22c387, 2021-05-23)"
   sodipodi:docname="ext-tradition.svg"
   inkscape:output_extension="org.inkscape.output.svg.inkscape"
   version="1.0"
   xmlns:inkscape="http://www.inkscape.org/namespaces/inkscape"
   xmlns:sodipodi="http://sodipodi.sourceforge.net/DTD/sodipodi-0.dtd"
   xmlns:xlink="http://www.w3.org/1999/xlink"
   xmlns="http://www.w3.org/2000/svg"
   xmlns:svg="http://www.w3.org/2000/svg"
   xmlns:rdf="http://www.w3.org/1999/02/22-rdf-syntax-ns#"
   xmlns:cc="http://creativecommons.org/ns#"
   xmlns:dc="http://purl.org/dc/elements/1.1/">
  <sodipodi:namedview
     id="base"
     pagecolor="#ffffff"
     bordercolor="#666666"
     borderopacity="1.0"
     gridtolerance="10000"
     guidetolerance="10"
     objecttolerance="10"
     inkscape:pageopacity="0.0"
     inkscape:pageshadow="2"
     inkscape:zoom="8.9547895"
     inkscape:cx="84.479931"
     inkscape:cy="119.32162"
     inkscape:document-units="px"
     inkscape:current-layer="layer1"
     showgrid="false"
     showguides="true"
     inkscape:guide-bbox="true"
     inkscape:window-width="1920"
     inkscape:window-height="1009"
     inkscape:window-x="-8"
     inkscape:window-y="-8"
     inkscape:pagecheckerboard="1"
     inkscape:window-maximized="1" />
  <defs
     id="defs2392">
    <linearGradient
       id="linearGradient2970">
      <stop
         style="stop-color:#924f20;stop-opacity:1;"
         offset="0"
         id="stop2972" />
      <stop
         id="stop3770"
         offset="0.11599973"
         style="stop-color:#c7ac44;stop-opacity:1;" />
      <stop
         id="stop2978"
         offset="0.21599954"
         style="stop-color:#d4c24d;stop-opacity:1;" />
      <stop
         style="stop-color:#cfba4a;stop-opacity:1;"
         offset="0.30399936"
         id="stop3766" />
      <stop
         style="stop-color:#b79640;stop-opacity:1;"
         offset="0.43199915"
         id="stop2980" />
      <stop
         id="stop3768"
         offset="0.48399901"
         style="stop-color:#bfa046;stop-opacity:1;" />
      <stop
         id="stop3756"
         offset="0.59999877"
         style="stop-color:#f3dd6d;stop-opacity:1;" />
      <stop
         id="stop2982"
         offset="0.65999871"
         style="stop-color:#fce774;stop-opacity:1;" />
      <stop
         style="stop-color:#efd868;stop-opacity:1;"
         offset="0.7199986"
         id="stop3758" />
      <stop
         id="stop3762"
         offset="0.79199839"
         style="stop-color:#cbae47;stop-opacity:1;" />
      <stop
         style="stop-color:#9c781c;stop-opacity:1;"
         offset="0.89999825"
         id="stop2984" />
      <stop
         id="stop3760"
         offset="0.92399818"
         style="stop-color:#976b1c;stop-opacity:1;" />
      <stop
         style="stop-color:#8b491c;stop-opacity:1;"
         offset="1"
         id="stop2974" />
    </linearGradient>
    <linearGradient
       id="linearGradient4303">
      <stop
         style="stop-color:#000000;stop-opacity:0.85915494;"
         offset="0"
         id="stop4305" />
      <stop
         id="stop4313"
         offset="0.28019291"
         style="stop-color:#000000;stop-opacity:0.46478873;" />
      <stop
         style="stop-color:#000000;stop-opacity:0.30985916;"
         offset="0.49976185"
         id="stop4319" />
      <stop
         style="stop-color:#000000;stop-opacity:0.26760563;"
         offset="0.67960405"
         id="stop4317" />
      <stop
         style="stop-color:#000000;stop-opacity:0.28627452;"
         offset="0.79949874"
         id="stop4315" />
      <stop
         style="stop-color:#000000;stop-opacity:0.45882353;"
         offset="1"
         id="stop4307" />
    </linearGradient>
    <linearGradient
       id="linearGradient12206">
      <stop
         style="stop-color:#dbcc00;stop-opacity:1;"
         offset="0"
         id="stop12208" />
      <stop
         style="stop-color:#fff87e;stop-opacity:1;"
         offset="1"
         id="stop12210" />
    </linearGradient>
    <linearGradient
       id="linearGradient3865">
      <stop
         style="stop-color:#e7e6c6;stop-opacity:1;"
         offset="0"
         id="stop3867" />
      <stop
         id="stop3873"
         offset="0.5"
         style="stop-color:#c9b136;stop-opacity:1;" />
      <stop
         style="stop-color:#f2f8be;stop-opacity:1;"
         offset="1"
         id="stop3869" />
    </linearGradient>
    <radialGradient
       fy="356"
       fx="164"
       r="17"
       cy="356"
       cx="164"
       gradientUnits="userSpaceOnUse"
       id="id119">
      <stop
         id="stop528"
         style="stop-color:#e2e29b;stop-opacity:1;"
         offset="0" />
      <stop
         id="stop530"
         style="stop-color:#c3c447;stop-opacity:1;"
         offset="0.2" />
      <stop
         id="stop532"
         style="stop-color:#c1a73e;stop-opacity:1;"
         offset="0.50980401" />
      <stop
         id="stop534"
         style="stop-color:#B09734"
         offset="0.921569" />
      <stop
         id="stop536"
         style="stop-color:#b98a1a;stop-opacity:1;"
         offset="1" />
    </radialGradient>
    <radialGradient
       fy="421"
       fx="108"
       r="15"
       cy="421"
       cx="108"
       gradientUnits="userSpaceOnUse"
       id="id86">
      <stop
         id="stop477"
         style="stop-color:#e4e267;stop-opacity:1;"
         offset="0" />
      <stop
         id="stop479"
         style="stop-color:#b6b655;stop-opacity:1;"
         offset="0.2" />
      <stop
         id="stop481"
         style="stop-color:#c5a93a;stop-opacity:1;"
         offset="0.58823502" />
      <stop
         id="stop483"
         style="stop-color:#9d8c46;stop-opacity:1;"
         offset="0.92156899" />
      <stop
         id="stop485"
         style="stop-color:#967525;stop-opacity:1;"
         offset="1" />
    </radialGradient>
    <linearGradient
       inkscape:collect="always"
       xlink:href="#linearGradient12206"
       id="linearGradient3895"
       gradientUnits="userSpaceOnUse"
       gradientTransform="matrix(1.1396249,0,0,0.5882279,1154.5598,575.15493)"
       x1="0"
       y1="472.87766"
       x2="3.8890872"
       y2="472.87766" />
    <linearGradient
       inkscape:collect="always"
       xlink:href="#linearGradient12206"
       id="linearGradient3898"
       gradientUnits="userSpaceOnUse"
       gradientTransform="matrix(1.1396249,0,0,0.5882279,1150.4157,575.15493)"
       x1="0"
       y1="472.87766"
       x2="3.8890872"
       y2="472.87766" />
    <linearGradient
       inkscape:collect="always"
       xlink:href="#linearGradient12206"
       id="linearGradient4196"
       gradientUnits="userSpaceOnUse"
       x1="0"
       y1="472.87766"
       x2="3.8890872"
       y2="472.87766"
       gradientTransform="matrix(1.1396249,0,0,0.5882279,744.29492,575.15493)" />
    <clipPath
       id="clipPath3784"
       clipPathUnits="userSpaceOnUse">
      <path
         id="path3786"
         d="m 489.827,822.472 v -85.939 l 71.008,-0.517 -0.694,86.456 z" />
    </clipPath>
  </defs>
  <metadata
     id="metadata2395">
    <rdf:RDF>
      <cc:Work
         rdf:about="">
        <dc:format>image/svg+xml</dc:format>
        <dc:type
           rdf:resource="http://purl.org/dc/dcmitype/StillImage" />
      </cc:Work>
    </rdf:RDF>
  </metadata>
  <g
     inkscape:label="Layer 1"
     inkscape:groupmode="layer"
     id="layer1"
     transform="translate(-267.29785,-274.84786)">
    <path
       style="fill:#000000;fill-opacity:1;fill-rule:nonzero;stroke:none;stroke-width:0.541409"
       d="m 328.93393,337.96651 c -4.98137,0.12018 -9.94995,1.50787 -14.6519,3.07926 -10.0245,3.66447 -20.5121,6.02329 -30.31892,10.28679 -4.35059,2.33643 -8.94263,4.1417 -13.4168,6.2262 -1.40281,0.59313 -2.28803,1.88502 -3.24846,2.99467 4.31666,2.57029 9.60691,2.31735 14.33043,1.20125 3.13515,1.89724 7.43253,1.42814 8.35801,1.28585 -0.1561,0.027 -0.36464,0.0712 -0.74444,0.15227 3.07542,0.81962 6.24011,-0.007 9.32239,-0.33838 0.35918,1.14514 0.0814,2.96016 1.55656,3.33305 2.17905,0.87683 4.54612,0.40636 6.81837,0.33838 0.34115,1.08411 0.69705,2.1704 1.0659,3.24846 1.84955,0.55439 4.1839,0.33196 5.43101,2.06412 1.46229,1.94884 3.9193,2.47304 6.15853,2.99467 -0.80238,1.05048 -1.60445,2.11827 -2.36866,3.1977 1.82123,1.08316 3.80167,1.86014 5.85399,2.38559 0.15332,1.66817 -0.74084,4.03134 1.08281,5.02495 2.09392,1.20982 3.4122,-1.58051 4.63583,-2.80856 0.26212,1.55969 0.57164,3.10082 0.96438,4.63582 1.19083,0.13992 2.37159,0.25122 3.56992,0.33838 0.10752,1.58066 0.27654,3.16281 0.47373,4.73733 1.25796,-0.31151 2.51181,-0.6649 3.75602,-1.03206 0.15736,1.91233 -1.12358,4.60067 0.82904,5.8709 1.73256,-0.67854 3.26631,-1.7602 4.68657,-2.94391 0.63356,0.97641 1.26409,1.95596 1.91185,2.92699 0.81761,-0.85415 1.62801,-1.70839 2.45327,-2.55478 0.78397,0.88542 1.52528,1.81946 2.41942,2.60553 1.0308,-0.78945 1.94161,-1.72633 2.89316,-2.60553 0.15278,5.43625 -1.16422,10.79876 -2.69014,15.97157 2.5989,11.15734 12.92902,1.48014 14.78462,1.15052 l 3.43457,-2.56189 2.85932,2.56189 c 6.94536,6.08505 8.13961,5.59977 14.36689,-0.6091 0.53112,-2.87256 -0.4184,-5.86941 -3.13002,-7.24135 0.72683,-2.21145 0.57941,-4.53731 0.42298,-6.81838 1.08902,0.12537 2.17721,0.37077 3.28229,0.25379 0.68997,-0.92127 1.09921,-2.00888 1.57347,-3.04543 1.11427,0.19412 2.22883,0.38441 3.34997,0.55833 0.5326,-0.86761 1.06242,-1.73584 1.59039,-2.60554 0.92245,0.8012 1.84077,1.60852 2.77473,2.40252 2.06322,-1.25011 2.34254,-3.47924 2.06412,-5.68481 0.87239,0.24108 1.74403,0.4714 2.62245,0.7106 0.93689,-2.46179 0.93258,-5.09174 0.79519,-7.68125 1.49063,0.76929 2.96486,1.58124 4.46663,2.33483 -0.12205,-1.9707 -0.28895,-3.93827 -0.43989,-5.90474 1.49459,0.10463 2.99819,0.1768 4.50046,0.20303 0.28591,-1.05976 0.54006,-2.11891 0.81211,-3.18078 1.21395,0.0752 2.45242,0.30223 3.67144,0.13535 1.47328,-0.61239 2.4772,-1.85413 3.23153,-3.21462 2.10237,0.0314 4.21211,-0.22595 6.17545,-1.01514 -0.32931,-1.12666 -0.67589,-2.24688 -1.01514,-3.36689 3.44205,1.44139 6.87729,2.883 10.20218,4.58506 1.87293,1.15899 4.00465,0.19712 6.00627,0.18611 1.34746,0.26993 2.61926,0.8624 3.99289,1.03206 1.01236,-0.41927 1.90037,-1.07786 2.82548,-1.65806 3.88581,1.37999 7.75554,3.59178 12.02944,2.97775 3.27078,-0.69736 6.18256,2.55544 9.44082,0.76135 0.13675,-0.51046 0.40465,-1.53676 0.54141,-2.0472 -4.71634,-5.97597 -10.90568,-10.50341 -16.86829,-15.14254 -5.30847,-4.06843 -11.34985,-7.02941 -16.74984,-10.96354 -2.28148,-1.6627 -4.85465,-2.85745 -7.32595,-4.19592 -5.07393,-3.04158 -10.85248,-5.33059 -16.83445,-5.36334 -6.93647,1.41893 -12.7231,5.93408 -17.8665,10.5744 -2.14909,1.97575 -3.44191,4.71721 -3.95906,7.56281 -0.36986,3.10219 -3.13306,5.32673 -5.98934,6.14161 -3.92856,-4.28234 -5.56805,-10.40999 -10.37138,-13.99204 -2.79876,-0.22774 -5.75524,-0.34987 -8.4426,0.57524 -2.56773,1.49308 -4.14411,4.25137 -5.39717,6.85221 -1.09744,2.1524 0.7825,3.99723 2.08104,5.49869 1.13406,-0.74819 2.27034,-1.49892 3.48532,-2.11488 -0.77994,1.6576 -2.03368,3.2332 -3.94213,3.56992 -3.17929,1.17087 -6.37106,-0.44747 -9.13629,-1.91185 -0.70546,-1.31471 -0.6239,-2.87648 -0.84595,-4.31436 1.41883,-1.01859 2.84274,-2.00528 4.24668,-3.04542 -0.55498,-3.68791 -2.85283,-6.92624 -6.2262,-8.56104 -4.04685,-1.99485 -8.1517,-3.91565 -11.92794,-6.39539 -1.75983,-0.40133 -3.52439,-0.59037 -5.29565,-0.60909 -0.33211,-0.003 -0.66614,-0.008 -0.99822,1e-5 z"
       id="path3079"
       sodipodi:nodetypes="ccccccsccccccccccccccccccccccccccccccccccccccccccccccccccccsccccccccccccccccsc" />
  </g>
</svg>
