<?xml version="1.0" encoding="UTF-8" standalone="no"?>
<svg
   width="200"
   height="200"
   viewBox="0 0 52.916666 52.916668"
   version="1.1"
   id="svg853"
   inkscape:version="1.1 (c68e22c387, 2021-05-23)"
   sodipodi:docname="ext-markets.svg"
   xmlns:inkscape="http://www.inkscape.org/namespaces/inkscape"
   xmlns:sodipodi="http://sodipodi.sourceforge.net/DTD/sodipodi-0.dtd"
   xmlns="http://www.w3.org/2000/svg"
   xmlns:svg="http://www.w3.org/2000/svg"
   xmlns:rdf="http://www.w3.org/1999/02/22-rdf-syntax-ns#"
   xmlns:cc="http://creativecommons.org/ns#"
   xmlns:dc="http://purl.org/dc/elements/1.1/">
  <defs
     id="defs847" />
  <sodipodi:namedview
     id="base"
     pagecolor="#ffffff"
     bordercolor="#666666"
     borderopacity="1.0"
     inkscape:pageopacity="0.0"
     inkscape:pageshadow="2"
     inkscape:zoom="1.8101934"
     inkscape:cx="226.77136"
     inkscape:cy="132.30631"
     inkscape:document-units="mm"
     inkscape:current-layer="layer1"
     inkscape:document-rotation="0"
     showgrid="false"
     units="px"
     inkscape:window-width="1920"
     inkscape:window-height="1009"
     inkscape:window-x="-8"
     inkscape:window-y="-8"
     inkscape:window-maximized="1"
     inkscape:pagecheckerboard="1" />
  <metadata
     id="metadata850">
    <rdf:RDF>
      <cc:Work
         rdf:about="">
        <dc:format>image/svg+xml</dc:format>
        <dc:type
           rdf:resource="http://purl.org/dc/dcmitype/StillImage" />
      </cc:Work>
    </rdf:RDF>
  </metadata>
  <g
     inkscape:label="Layer 1"
     inkscape:groupmode="layer"
     id="layer1">
    <path
       id="path2915"
       style="fill:#000000;stroke:none;stroke-width:0.440609;stroke-linecap:square;stroke-opacity:1;paint-order:markers fill stroke"
       d="M 21.844848,4.4277083 C 11.216328,4.4347083 2.1084083,12.029838 0.19106833,22.483988 H 7.6283683 c 1.78267,-6.37799 7.5940397,-10.78877 14.2164797,-10.7902 6.89572,5e-5 12.68689,4.72744 14.31034,11.11812 h -7.54639 a 7.6029223,7.6029223 0 0 0 -6.67107,-3.9565 7.6029223,7.6029223 0 0 0 -7.60292,7.60292 7.6029223,7.6029223 0 0 0 7.60292,7.60293 7.6029223,7.6029223 0 0 0 6.66645,-3.9565 h 7.55101 c -1.62355,6.39054 -7.41472,11.11806 -14.31034,11.11812 -7.09375,-6.8e-4 -13.1842397,-5.04649 -14.5047297,-12.01625 H -1.6666667e-6 C 1.3845683,40.219268 10.745518,48.482128 21.844848,48.488958 c 10.92478,8e-5 19.99065,-7.95262 21.72849,-18.3842 h 1.89643 l 7.4469,-7.29285 h -9.34333 C 41.835618,12.380168 32.769748,4.4276383 21.844848,4.4277083 Z" />
  </g>
  <g
     inkscape:groupmode="layer"
     id="layer2"
     inkscape:label="Layer 2" />
</svg>
