<?xml version="1.0" encoding="UTF-8" standalone="no"?>
<svg
   width="200"
   height="200"
   viewBox="0 0 52.916666 52.916668"
   version="1.1"
   id="svg853"
   inkscape:version="1.1 (c68e22c387, 2021-05-23)"
   sodipodi:docname="Ingsoc_flag.svg"
   xmlns:inkscape="http://www.inkscape.org/namespaces/inkscape"
   xmlns:sodipodi="http://sodipodi.sourceforge.net/DTD/sodipodi-0.dtd"
   xmlns="http://www.w3.org/2000/svg"
   xmlns:svg="http://www.w3.org/2000/svg"
   xmlns:rdf="http://www.w3.org/1999/02/22-rdf-syntax-ns#"
   xmlns:cc="http://creativecommons.org/ns#"
   xmlns:dc="http://purl.org/dc/elements/1.1/">
  <defs
     id="defs847" />
  <sodipodi:namedview
     id="base"
     pagecolor="#ffffff"
     bordercolor="#666666"
     borderopacity="1.0"
     inkscape:pageopacity="0.0"
     inkscape:pageshadow="2"
     inkscape:zoom="0.98994949"
     inkscape:cx="195.46452"
     inkscape:cy="343.95694"
     inkscape:document-units="mm"
     inkscape:current-layer="layer1"
     inkscape:document-rotation="0"
     showgrid="false"
     units="px"
     inkscape:window-width="1920"
     inkscape:window-height="1009"
     inkscape:window-x="-8"
     inkscape:window-y="-8"
     inkscape:window-maximized="1"
     inkscape:pagecheckerboard="1" />
  <metadata
     id="metadata850">
    <rdf:RDF>
      <cc:Work
         rdf:about="">
        <dc:format>image/svg+xml</dc:format>
        <dc:type
           rdf:resource="http://purl.org/dc/dcmitype/StillImage" />
      </cc:Work>
    </rdf:RDF>
  </metadata>
  <g
     inkscape:label="Layer 1"
     inkscape:groupmode="layer"
     id="layer1">
    <g
       id="g1039"
       transform="matrix(0.33262127,0,0,0.33262127,-29.601994,-2.7671871)">
      <path
         sodipodi:nodetypes="sssss"
         id="path872"
         d="m 168.59802,60.363995 c -15.16706,10e-7 -27.5,12.332944 -27.5,27.500001 0,15.167064 12.33294,27.500004 27.5,27.500004 15.16706,0 27.50001,-12.33294 27.5,-27.500004 0,-15.167057 -12.33294,-27.5 -27.5,-27.500001 z"
         style="color:#000000;font-style:normal;font-variant:normal;font-weight:normal;font-stretch:normal;font-size:medium;line-height:normal;font-family:sans-serif;font-variant-ligatures:normal;font-variant-position:normal;font-variant-caps:normal;font-variant-numeric:normal;font-variant-alternates:normal;font-variant-east-asian:normal;font-feature-settings:normal;font-variation-settings:normal;text-indent:0;text-align:start;text-decoration:none;text-decoration-line:none;text-decoration-style:solid;text-decoration-color:#000000;letter-spacing:normal;word-spacing:normal;text-transform:none;writing-mode:lr-tb;direction:ltr;text-orientation:mixed;dominant-baseline:auto;baseline-shift:baseline;text-anchor:start;white-space:normal;shape-padding:0;shape-margin:0;inline-size:0;clip-rule:nonzero;display:inline;overflow:visible;visibility:visible;opacity:1;isolation:auto;mix-blend-mode:normal;color-interpolation:sRGB;color-interpolation-filters:linearRGB;solid-color:#000000;solid-opacity:1;vector-effect:none;fill:#000000;fill-opacity:1;fill-rule:evenodd;stroke:none;stroke-width:3.50109;stroke-linecap:butt;stroke-linejoin:round;stroke-miterlimit:6.3;stroke-dasharray:none;stroke-dashoffset:0;stroke-opacity:1;paint-order:stroke markers fill;color-rendering:auto;image-rendering:auto;shape-rendering:auto;text-rendering:auto;enable-background:accumulate;stop-color:#000000;stop-opacity:1" />
      <path
         style="color:#000000;fill:#000000;-inkscape-stroke:none;paint-order:markers fill stroke"
         d="m 168.59766,44.513672 c -21.39212,0 -36.19828,5.677685 -47.88477,13.763672 C 109.0264,66.36333 100.4417,76.704372 90.951172,86.029297 l -1.955078,1.919922 2.039062,1.830078 c 11.532234,10.341693 20.049894,20.607783 31.222654,28.441403 11.17276,7.83363 24.99025,12.99414 46.33985,12.99414 21.37084,0 35.9269,-5.41032 47.49218,-13.37109 11.56529,-7.96077 20.13945,-18.295515 30.15625,-28.146484 l 1.83985,-1.810547 -1.81641,-1.832032 C 236.49773,76.191765 227.91232,65.842077 216.2793,57.880859 204.64627,49.919641 189.96851,44.513672 168.59766,44.513672 Z m 0,5.142578 c 20.51738,0 33.89293,5.021195 44.77539,12.46875 10.21007,6.987402 18.2959,16.296258 27.48047,25.724609 -9.41546,9.442367 -17.52532,18.768221 -27.67969,25.757811 -10.82032,7.44799 -24.0588,12.46485 -44.57617,12.46485 -20.53864,0 -32.95505,-4.74711 -43.38868,-12.0625 -9.79753,-6.86941 -18.04676,-16.290042 -28.800777,-26.199223 8.941657,-8.979592 16.992787,-18.221145 27.230467,-25.304688 10.95886,-7.58253 24.46286,-12.849609 44.95899,-12.849609 z"
         id="path880" />
    </g>
  </g>
  <g
     inkscape:groupmode="layer"
     id="layer2"
     inkscape:label="Layer 2" />
</svg>
