<svg width="200" height="200" version="1.0" xmlns="http://www.w3.org/2000/svg"><defs><linearGradient id="a"><stop style="stop-color:#dbcc00;stop-opacity:1" offset="0"/><stop style="stop-color:#fff87e;stop-opacity:1" offset="1"/></linearGradient></defs><path style="fill:#000;fill-opacity:1;fill-rule:nonzero;stroke:none;stroke-width:.541409" d="M328.934 337.967c-4.981.12-9.95 1.507-14.652 3.079-10.024 3.664-20.512 6.023-30.319 10.287-4.35 2.336-8.943 4.141-13.417 6.226-1.403.593-2.288 1.885-3.248 2.994 4.317 2.57 9.607 2.318 14.33 1.202 3.135 1.897 7.433 1.428 8.358 1.286-.156.027-.364.07-.744.152 3.075.82 6.24-.007 9.322-.339.36 1.146.082 2.96 1.557 3.333 2.179.877 4.546.407 6.818.339.341 1.084.697 2.17 1.066 3.248 1.85.555 4.184.332 5.431 2.064 1.462 1.95 3.92 2.473 6.159 2.995a110.201 110.201 0 0 0-2.37 3.198c1.822 1.083 3.803 1.86 5.855 2.385.153 1.669-.74 4.032 1.083 5.025 2.094 1.21 3.412-1.58 4.636-2.808.262 1.56.571 3.1.964 4.636 1.19.14 2.372.25 3.57.338a84.12 84.12 0 0 0 .474 4.737 88.27 88.27 0 0 0 3.756-1.032c.157 1.913-1.124 4.6.829 5.871 1.732-.678 3.266-1.76 4.686-2.944.634.977 1.264 1.956 1.912 2.927.818-.854 1.628-1.708 2.453-2.555.784.886 1.526 1.82 2.42 2.606 1.03-.79 1.941-1.726 2.893-2.606.153 5.437-1.164 10.8-2.69 15.972 2.599 11.157 12.929 1.48 14.784 1.15l3.435-2.561 2.86 2.562c6.945 6.085 8.139 5.6 14.366-.61.531-2.872-.418-5.869-3.13-7.24.727-2.212.58-4.538.423-6.82 1.09.126 2.177.371 3.282.254.69-.92 1.1-2.008 1.574-3.045 1.114.194 2.229.384 3.35.558.532-.867 1.062-1.735 1.59-2.605.923.801 1.841 1.608 2.775 2.402 2.063-1.25 2.343-3.479 2.064-5.684.873.24 1.744.471 2.623.71.936-2.462.932-5.092.795-7.681 1.49.77 2.965 1.581 4.466 2.335-.122-1.971-.289-3.939-.44-5.905 1.495.105 2.999.177 4.501.203.286-1.06.54-2.119.812-3.18 1.214.074 2.452.301 3.672.135 1.473-.613 2.477-1.855 3.231-3.215 2.102.031 4.212-.226 6.176-1.015-.33-1.127-.676-2.247-1.016-3.367 3.442 1.441 6.878 2.883 10.203 4.585 1.872 1.159 4.004.197 6.006.186 1.347.27 2.62.863 3.993 1.032 1.012-.42 1.9-1.078 2.825-1.658 3.886 1.38 7.756 3.592 12.03 2.978 3.27-.697 6.182 2.555 9.44.761.137-.51.405-1.537.542-2.047-4.716-5.976-10.906-10.503-16.868-15.143-5.309-4.068-11.35-7.029-16.75-10.963-2.282-1.663-4.855-2.858-7.326-4.196-5.074-3.042-10.853-5.33-16.835-5.363-6.936 1.419-12.723 5.934-17.866 10.574-2.15 1.976-3.442 4.717-3.96 7.563-.37 3.102-3.132 5.327-5.989 6.142-3.928-4.283-5.568-10.41-10.371-13.993-2.799-.227-5.755-.35-8.443.576-2.567 1.493-4.144 4.251-5.397 6.852-1.097 2.152.783 3.997 2.081 5.499 1.134-.749 2.27-1.5 3.486-2.115-.78 1.657-2.034 3.233-3.943 3.57-3.179 1.17-6.37-.448-9.136-1.912-.705-1.315-.624-2.877-.846-4.315 1.42-1.018 2.843-2.005 4.247-3.045-.555-3.688-2.853-6.926-6.226-8.561-4.047-1.995-8.152-3.916-11.928-6.395a24.904 24.904 0 0 0-5.296-.61c-.332-.003-.666-.008-.998 0z" transform="translate(-267.298 -274.848)"/></svg>