<svg width="200" height="200" viewBox="0 0 52.917 52.917" xmlns="http://www.w3.org/2000/svg"><path style="fill:#000;stroke:none;stroke-width:.440609;stroke-linecap:square;stroke-opacity:1;paint-order:markers fill stroke" d="M25.55 4.428C14.92 4.435 5.811 12.03 3.893 22.484h7.437a14.765 14.765 0 0 1 14.217-10.79c6.896 0 12.687 4.727 14.31 11.118h-7.544a7.603 7.603 0 0 0-6.67-3.957 7.603 7.603 0 0 0-7.604 7.603 7.603 7.603 0 0 0 7.603 7.603 7.603 7.603 0 0 0 6.666-3.956h7.551c-1.623 6.39-7.415 11.118-14.31 11.118a14.764 14.764 0 0 1-14.506-12.016h-7.34C5.09 40.219 14.45 48.482 25.55 48.489c10.925 0 19.99-7.953 21.728-18.384h1.897l7.447-7.293h-9.344C45.54 12.38 36.474 4.428 25.55 4.428Z"/></svg>