<svg width="200" height="200" version="1.0" xmlns="http://www.w3.org/2000/svg"><path style="fill:#000;fill-opacity:1;stroke-width:.303026" d="M42.114 183.427c.1-.316.46-.647.8-.735.34-.09.692-.445.783-.79.09-.346.325-.63.523-.63.197 0 .692-.554 1.1-1.233.41-.678.914-1.418 1.122-1.645.208-.226.379-.557.379-.736 0-.179.273-.325.606-.325.355 0 .606-.202.606-.487 0-.369.185-.441.758-.297.559.14.757.07.757-.27 0-.254.124-.46.276-.46.428 0 .776-2.529.367-2.665-.493-.164-.418-.972.09-.972.564 0 1.503-2.835 1.26-3.803-.136-.54-.063-.742.267-.742.25 0 .677-.341.95-.758.414-.633.734-.758 1.941-.758 1.576 0 1.806-.29 1.815-2.298.002-.515.173-.957.382-.985a90.9 90.9 0 0 0 1.516-.235c.918-.149 1.136-.09 1.136.303 0 .269.2.488.443.488s.686.248.985.552c.298.304 1.188.792 1.978 1.085.79.292 1.514.658 1.609.811.095.154.437.28.76.28.324 0 .589.11.589.245s.69.423 1.532.639c.846.216 1.694.65 1.891.966.197.316.53.574.74.574.21 0 .382.124.382.276 0 .152.58.37 1.288.484.708.114 1.564.381 1.901.594.337.214 1.36.703 2.273 1.088.912.385 1.984.948 2.382 1.25.397.303.977.55 1.288.55.31 0 .565.121.565.27 0 .147.58.268 1.288.267 4.215-.003 9.902.356 10.681.674 1 .407 11.056.175 11.354-.262.231-.338 1.222-.669 1.222-.408 0 .188 1.36.205 6.894.086.802-.017.991-.148 1.02-.703.026-.513.07-.55.173-.151.077.291.334.53.571.53.238 0 .443-.239.457-.53.014-.317.085-.378.176-.152.247.611 1.195.437 1.963-.36.647-.673.878-.724 2.565-.567 1.226.115 1.925.058 2.065-.17.117-.188.481-.342.81-.342.33 0 .953-.232 1.385-.515.55-.36 1.616-.549 3.55-.63 3.228-.134 6.25-1.082 6.25-1.96 0-.33.23-.531.605-.531.334 0 .59-.103.57-.228a3.681 3.681 0 0 1 .005-.682c.036-.404.073-.404.33 0 .206.322.412.367.708.152.23-.167 1.018-.699 1.751-1.182.734-.484 1.651-1.219 2.04-1.633.655-.7.662-.742.098-.594-.431.112-.56.037-.447-.26.088-.23.298-.334.466-.23.168.104.424 0 .57-.229.209-.33.265-.307.269.113.003.327.237.53.61.53.334 0 .606-.136.606-.303 0-.167.184-.303.409-.303.224 0 .556-.307.737-.682.261-.543.333-.573.349-.151.014.362.267.53.798.53.634 0 .744.11.59.591-.204.645.482 2.216 1.414 3.237.329.36.598 1.098.607 1.667.009.56.41 1.858.89 2.882.48 1.023.873 1.957.873 2.074 0 .117.261.58.58 1.028.704.988 1.852 4.278 1.494 4.278-.403 0-.304.536.35 1.89.333.69.606 1.471.606 1.736 0 .265.423.853.94 1.307.881.773 1.12.825 3.788.825 2.286 0 2.848-.087 2.848-.44 0-.241.237-.572.527-.734.463-.26.527-.818.52-4.57-.008-4.204-.021-4.288-.782-4.948-.638-.554-.75-.87-.638-1.81.19-1.586-.133-3.033-.847-3.8-.55-.59-.614-1.134-.689-5.81-.045-2.839.022-5.16.148-5.16.362 0 3.882-3.536 3.882-3.899 0-.178.215-.242.478-.141.51.195 3.461-2.455 3.461-3.109 0-.194.2-.519.445-.722.245-.203.415-.527.379-.719-.036-.192.207-.313.54-.268.414.056 1.348-.67 2.954-2.296 1.292-1.309 2.349-2.552 2.349-2.763 0-.212.498-.829 1.107-1.37.995-.886 1.09-1.099.929-2.092-.147-.906-.087-1.107.331-1.11.683-.005 1.819-1.81 2.05-3.258l.187-1.166 1.496.034c1.01.023 1.452-.079 1.362-.314-.073-.19-.012-.54.137-.774.185-.293.272-.055.275.758.004.95.199 1.358.98 2.056 1.025.915 1.197.979 3.873 1.433a47.41 47.41 0 0 1 3.005.62c.737.186 1.51.272 1.718.192.208-.08.457.06.553.31.096.25.414.415.707.367.293-.048.703.02.91.15.21.13.38.162.38.068 0-.093.275.107.612.443.514.515.973.606 2.863.57 2.036-.04 2.262-.106 2.376-.689.1-.508.135-.468.168.189.026.52.212.833.496.833.25 0 .454-.102.454-.227s.58-.227 1.288-.227h1.288l-.035-1.137c-.019-.625.084-1.136.228-1.136.3 0 .347-2.833.063-3.893-.16-.595-.332-.683-1.058-.538-1.087.218-2.165-.256-2.544-1.117-.16-.364-.562-.712-.895-.775-.332-.062-1.205-.527-1.94-1.032-.733-.505-1.757-.932-2.273-.948-1.179-.038-1.71-.52-1.493-1.354.106-.403.028-.646-.207-.646-.206 0-1.192-.545-2.19-1.212-.999-.667-1.989-1.212-2.2-1.212-.212 0-.461-.291-.554-.646-.123-.47-.336-.603-.783-.486-.337.088-.584.072-.548-.036.036-.108-.027-.196-.14-.196-.114 0-.524-.468-.91-1.04-.386-.573-1.276-1.323-1.976-1.667-.755-.371-1.28-.842-1.288-1.156-.008-.292-.202-.53-.431-.53-.467 0-.795-1.284-.795-3.104 0-1.06-.075-1.19-.607-1.051-.333.087-.606.035-.606-.116 0-.151.199-.275.44-.275.516 0 1.071-1.765 1.074-3.41 0-.806.133-1.135.456-1.135.458 0 .475-.105.63-3.716.035-.794.282-1.778.55-2.186.986-1.505.416-6.94-.862-8.217-.325-.325-.455-.335-.573-.045-.083.207-.162.07-.176-.306-.013-.375-.187-.682-.387-.682-.283 0-.283-.08 0-.363.2-.2.364-.676.364-1.057 0-1.23-.72-3.428-1.124-3.428-.215 0-.392-.205-.392-.455s.137-.454.303-.454c.167 0 .303-.163.303-.363 0-.438-1.452-2.627-2.198-3.313-.313-.288-.458-.7-.348-.989.105-.272.058-.663-.104-.87-.491-.626-1.289-3.3-1.289-4.322 0-1.317-.579-2.87-1.07-2.87-.222 0-.49-.273-.596-.606-.106-.334-.372-.606-.59-.606-.22 0-.778-.75-1.242-1.667-.464-.917-.957-1.667-1.097-1.667s-.253-.248-.253-.55c0-.903-.893-3.632-1.331-4.071-.224-.224-.507-.72-.628-1.102-.142-.449-.399-.65-.722-.565-.374.097-.518-.098-.568-.77-.09-1.214-.776-2.188-1.89-2.681-.692-.307-.922-.608-.922-1.21 0-.528-.493-1.36-1.44-2.427-.79-.893-1.533-1.666-1.649-1.719-.115-.052-.145-.266-.065-.474.233-.605-.594-1.916-2.187-3.469-.812-.792-1.719-1.81-2.014-2.261-.409-.625-.782-.822-1.559-.822-.615 0-1.088-.175-1.19-.441-.147-.383-.659-.776-3.172-2.437-1.171-.775-1.666-1.533-1.805-2.77-.143-1.269-.19-1.321-1.17-1.321-.562 0-1.021-.137-1.021-.303 0-.167-.126-.303-.28-.303-.284 0-2.145-1.744-2.145-2.01 0-.443-1.746-2.233-2.179-2.233-.281 0-.596-.136-.7-.303-.102-.166-.652-.303-1.22-.303-.839 0-.997-.094-.84-.504.136-.352.08-.434-.182-.272-.206.128-.494.525-.638.883-.258.64-.263.639-.282-.066-.015-.565-.148-.684-.625-.559-.333.087-.606.053-.606-.076 0-.13-.512-.314-1.137-.41-.625-.097-1.443-.267-1.818-.379-.535-.159-.683-.08-.688.363-.005.39-.153.27-.48-.392-.415-.842-.723-1.014-2.56-1.429-1.15-.26-2.633-.749-3.297-1.088-.664-.339-1.683-.616-2.263-.616-.58 0-1.139-.137-1.242-.303-.103-.167-.456-.303-.785-.303s-.676-.205-.772-.456c-.16-.414-1.229-1.018-2.61-1.472-.297-.098-.532-.478-.534-.866-.007-1.132-.344-2.055-.75-2.055-.21 0-.468-.429-.573-.954-.2-.997-1.883-2.976-2.536-2.982-.209-.002-.38-.118-.38-.26 0-.14-.272-.57-.605-.955-.333-.384-.606-.94-.606-1.235 0-.295-.336-.935-.745-1.422-.693-.824-.753-1.163-.85-4.796-.103-3.914-.53-5.63-1.48-5.946-.208-.069-.342-.62-.317-1.293.024-.645-.156-2.13-.4-3.3-.317-1.523-.348-2.187-.11-2.334.21-.13.266-.749.152-1.682-.1-.812-.268-2.602-.375-3.977-.143-1.842-.305-2.5-.616-2.5-.297 0-.367-.22-.235-.745.163-.649-.204-2.076-1.093-4.254a10.315 10.315 0 0 1-.416-1.364c-.093-.417-.443-1.2-.777-1.742-.731-1.185-1.862-1.322-2.57-.312-.531.76-.627 1.75-.168 1.75.167 0 .303.205.303.455s-.205.455-.455.455-.454.127-.454.281c0 .155-.239.52-.53.81-.741.738-2.348 7.748-2.124 9.27.08.543-.012.85-.251.85-.248 0-.45.786-.592 2.298-.137 1.465-.36 2.352-.618 2.451-.593.228-1.643 2.142-1.643 2.996 0 .446-.175.74-.44.74-.562 0-.863 1.56-.725 3.766.071 1.153-.008 1.69-.252 1.69-.648-.001-1.897 3.212-1.706 4.39.121.748.058 1.064-.212 1.064-.287 0-.343.464-.22 1.818.124 1.368.068 1.818-.226 1.818-.802 0-1.446 1.526-1.298 3.072.078.81.026 1.473-.117 1.473-.142 0-.258.188-.258.417 0 .782-3.774 1.248-5.718.706-.572-.16-1.105-.169-1.212-.022-.282.388-.949.463-.949.107 0-.359-1.486-.334-3.086.051-.802.193-1.143.452-1.212.92-.099.673-.688.95-2.747 1.295-.946.158-1.136.312-1.136.92 0 .603-.197.767-1.13.942-.62.117-1.312.395-1.536.62-.224.224-.715.408-1.091.408s-1.003.34-1.395.757c-.391.417-.88.758-1.086.758-.207 0-.703.39-1.103.865-.592.703-.908.838-1.694.723-.547-.08-.965-.008-.965.167 0 .17-.294.233-.654.139-.444-.117-.585-.06-.439.176.14.226.049.283-.263.164-.296-.114-.76.12-1.214.61-.52.56-1.041.792-1.785.792-.577 0-1.755.355-2.618.788-1.229.617-1.535.912-1.416 1.364.086.329.024.498-.145.394-.162-.1-.37.104-.461.454-.092.35-.31.637-.484.637-.175 0-.84.23-1.48.513-.932.41-1.162.674-1.162 1.326 0 .448-.205.983-.455 1.19-.25.208-.454.634-.454.947 0 .313-.196.57-.435.57-.238 0-.52.272-.626.605-.12.38-.459.606-.905.606-.547 0-.76.213-.914.912-.238 1.084-.915 1.514-2.044 1.298-.622-.119-.876-.018-1.027.407-.225.631-1.822 2.232-2.227 2.232-.4 0-2.125 1.816-2.125 2.238 0 .206-.273.667-.606 1.025-.334.358-.606.85-.606 1.093s-.103.487-.228.542c-.538.24-1.594 2.117-1.626 2.892-.021.513-.09.637-.174.316-.162-.622-.438-.67-.942-.167-.283.283-.364.283-.364 0 0-.2-.196-.364-.435-.364-.27 0-.472.375-.53.985l-.095.985-2.566.089c-1.486.052-2.656.233-2.778.431-.27.438-6.02-.234-7.463-.872-.543-.24-1.123-.354-1.287-.252-.165.102-.3.032-.3-.155s-.239-.31-.53-.273c-.86.11-2.197-.366-2.197-.781 0-.263-.52-.384-1.65-.384-1.442 0-1.667.082-1.778.644-.122.621-.128.62-.167-.038-.023-.375-.237-.682-.475-.682-.239 0-.493.307-.565.682-.096.5-.142.422-.172-.29-.038-.88-.167-1.006-1.33-1.31a16.723 16.723 0 0 1-2.5-.923c-.666-.322-1.648-.584-2.181-.584-.575 0-1.08-.197-1.241-.483-.379-.677-6.295-.518-6.736.181-.158.25-.289 1.58-.291 2.954-.004 1.927.09 2.5.414 2.5.23 0 .812.403 1.294.896 1.025 1.048 2.743 1.832 4.018 1.832.573 0 1.064.232 1.349.639.246.351.595.547.774.436.192-.118.328.044.328.392 0 .483.21.593 1.126.593.62 0 1.176.15 1.237.334.061.183.242.333.402.333.16 0 .66.345 1.112.767.45.422 1.122.844 1.49.94.37.094.754.43.854.747.1.317.383.576.627.576s.522.205.618.455c.096.25.432.454.748.454.344 0 .574.213.575.53.001.813 1.169 2.546 1.832 2.72.325.085.59.275.59.422 0 .147.342.268.758.268.547 0 .758.163.758.585 0 .322.272.672.604.778.332.105.83.418 1.107.694.277.277 1.471.984 2.654 1.571 1.182.588 2.175 1.273 2.206 1.523.364 2.928.47 3.333.872 3.333.24 0 .435.273.435.606 0 .337-.201.606-.454.606-.44 0-.512.45-.587 3.696-.01.45-.19.988-.398 1.197-.435.437-.521 3.592-.098 3.592.473 0 .53 1.008.114 2.036-.528 1.304-.502 2.706.053 2.92.387.148.379.29-.062 1.058-.667 1.163-.258 3.085.75 3.528.741.325.933 1.064.277 1.064-.885 0-1.549 3.38-.81 4.119.2.198.183.615-.049 1.228-.364.965-.32 1.154.635 2.724.792 1.302.879 3.09.2 4.124-.393.597-.497 1.152-.37 1.97l.317 2.047c.287 1.861.913 4.09 1.148 4.09.134 0 .244.342.244.758 0 .64.141.758.909.758h.909v2.126c0 1.99.053 2.159.834 2.651.584.368.805.73.736 1.208-.065.459.058.682.378.682.262 0 .476.136.476.303 0 .166-.205.303-.455.303-.618 0-.643 3.102-.03 3.611.234.194.517.72.63 1.167.112.448.574 1.159 1.027 1.579.452.42 1.052 1.129 1.333 1.575.28.446.82.855 1.2.91.429.06.86.467 1.143 1.078.25.539.672 1.053.937 1.141.537.179 1.044 1.084 1.321 2.358.106.487.47.953.86 1.102.468.177.793.69 1.053 1.66.507 1.898.476 2.23-.232 2.455-.56.178-.597.4-.482 2.94.068 1.51.266 2.835.439 2.942.182.112.208.367.062.604-.14.225-.4.32-.578.21-.178-.111-.533.204-.791.703-.62 1.2-.59 1.54.139 1.54.51 0 .605.201.604 1.288-.002.775-.242 1.65-.604 2.197-.332.5-.603 1.332-.604 1.85-.002.58-.292 1.252-.76 1.757-.792.855-.808.914-.908 3.362-.034.834-.34 2.061-.68 2.728-.34.666-.687 1.737-.773 2.38-.086.642-.306 1.317-.489 1.5-.406.406-.445 2.938-.045 2.938.173 0 .158.371-.037.932-.234.67-.231 1.14.009 1.667.315.692.48.734 2.896.734 2.247 0 2.584-.07 2.744-.573zm55.615-25.235c0-.139-.272-.252-.606-.252-.333 0-.606.136-.606.303a.304.304 0 0 1-.303.303c-.167 0-.303-.214-.303-.475 0-.337-.176-.42-.606-.283-.333.106-.607.081-.608-.055-.003-.321-1.432-.986-1.65-.768-.091.092-.18.519-.196.95l-.03.782-.21-.75c-.165-.594-.429-.766-1.257-.82a49.015 49.015 0 0 1-2.314-.225c-.841-.104-1.316-.032-1.416.213-.082.204-.16.08-.174-.275-.036-.985-.803-1.5-1.463-.983-.292.229-.602.511-.69.627-.209.277-.669-.065-1.073-.798-.233-.421-1.131-.778-3.182-1.263-4.347-1.03-4.978-1.211-6.05-1.746-.546-.272-1.176-.495-1.4-.495a.402.402 0 0 1-.408-.393c0-.217-.57-.728-1.265-1.137-.696-.408-1.616-1.094-2.045-1.524-.43-.43-1.22-.869-1.756-.975-1.161-.231-2.207-1.19-2.207-2.025 0-.974.941-3.037 1.385-3.037.226 0 .607-.647.849-1.439a30.5 30.5 0 0 1 .918-2.56c.265-.619.511-2.149.549-3.41.037-1.258.176-2.287.308-2.287.688 0 2.043-1.81 2.23-2.976.111-.697.321-1.267.467-1.267.145 0 .264-.409.264-.909s.104-.909.232-.909c.412 0 1.666-2.995 1.508-3.601-.107-.408.028-.637.437-.744.52-.136.582-.388.512-2.071-.075-1.801.335-3.28.91-3.28.414 0 .935-1.46 1.138-3.194.107-.91.331-1.655.498-1.655.193 0 .23-.803.104-2.203-.169-1.858-.104-2.4.412-3.47.337-.697.613-1.41.613-1.585 0-.175.133-.318.297-.318.163 0 .382-.337.485-.748.112-.447.816-1.168 1.748-1.792.858-.573 1.86-1.326 2.226-1.672.367-.347.737-.515.824-.375.086.14 1.764.624 3.728 1.076 1.964.452 4.184 1.01 4.934 1.238 2.413.736 3.333.847 3.338.403.004-.32.06-.316.272.02.148.233.486.34.753.237.31-.118.485-.025.485.259 0 .735.906.508.945-.237.026-.513.069-.55.173-.151.076.291.323.53.549.53.225 0 .472-.239.549-.53.076-.292.154-.087.173.454.033.927.533 1.296 1.052.777.368-.368 1.378-.307 1.531.093.094.243-.016.324-.296.217-.36-.138-.344.005.081.746.474.824.748.95 2.746 1.246 1.22.182 2.93.335 3.797.34 2.672.016 6.081.563 6.335 1.017.221.395 1.635.951 2.138.841.125-.027.227.066.227.207 0 .489 1.134 1.562 1.65 1.562.285 0 1.057.56 1.715 1.245.847.882 1.371 1.2 1.795 1.089.525-.137.598-.002.598 1.118 0 1.074.19 1.472 1.212 2.535.846.881 1.212 1.527 1.212 2.142 0 .484.238 1.206.53 1.606.861 1.18 1.294 1.898 1.484 2.461.097.292.298.53.445.53.147 0 .268.342.268.758 0 .417.121.758.27.758.147 0 .358.477.468 1.06.109.584.329 1.061.488 1.061.159 0 .29.333.29.74s.138.825.307.93c.51.315 1.074 1.989 1.48 4.39.602 3.57.622 3.637 1.097 3.637.31 0 .448.326.448 1.06 0 .584-.136 1.061-.303 1.061-.454 0-.367.658.262 1.989.31.656.649 2.042.752 3.08.188 1.886.187 1.887-1.036 3.172-1.026 1.08-1.385 1.272-2.23 1.2-.734-.064-1.464.205-2.696.993-.929.595-2.03 1.081-2.447 1.081-1.176 0-2.302.634-2.302 1.296 0 .451-.15.554-.63.428-.446-.117-.584-.045-.472.246.087.225-.039.573-.28.772-.356.296-.436.245-.436-.28 0-.381-.193-.644-.472-.644-.26 0-.388.136-.286.303.228.369-1.13.264-1.4-.108-.331-.453-2.075.13-2.435.815-.49.93-.843 1.102-2.283 1.107-.698.002-1.354.14-1.457.307-.103.167-.456.303-.785.303s-.676.205-.772.455c-.096.25-.445.455-.776.455-.356 0-.67.258-.768.631-.122.467-.229.529-.409.237-.275-.446-4.2-.46-4.499-.017-.095.142-1.74.424-3.657.628-1.917.204-3.523.477-3.57.607-.112.318-.976.304-.976-.016zm53.939-21.88c0-2.223-.296-3.524-.801-3.524-.293 0-.368-.22-.243-.714.223-.89-.556-2.813-1.457-3.595-.66-.571-.663-.601-.108-1.006.433-.317.53-.66.404-1.415-.328-1.964-.754-2.661-1.651-2.698-.513-.022-.634-.09-.31-.174.291-.076.53-.265.53-.42 0-.428.595-.334 1.103.174.25.25.71.455 1.022.455.311 0 .65.136.753.303.103.166.522.303.931.303.41 0 1.02.17 1.355.379.504.312.662.298.9-.076.224-.35.29-.36.295-.044.003.24.193.34.459.237.25-.096.454-.036.454.134 0 .169.58.893 1.288 1.608 1.201 1.214 1.267 1.365.974 2.244-.172.519-.41 1.04-.53 1.16-.354.353-.246 2.389.147 2.782.283.283.215.363-.303.363-.367 0-.667.137-.667.304 0 .166-.204.303-.454.303a.446.446 0 0 0-.455.434c0 .238-.273.52-.606.626-.334.106-.758.49-.943.854-.592 1.167-1.626 2.627-1.86 2.629-.125 0-.227-.731-.227-1.627zm-101.514-6.768c-.415-.501-.384-2.21.04-2.21.443 0 .133-2.518-.33-2.672-.426-.142-1.021-1.308-1.803-3.533-.345-.982-.733-1.862-.863-1.957-.281-.204-.983-2.81-.983-3.649 0-.324-.305-.873-.677-1.22-.579-.54-.664-.891-.587-2.436.066-1.334-.015-1.805-.308-1.805-.305 0-.375-.601-.3-2.575.054-1.418-.014-2.577-.151-2.577-.138 0-.25-1.956-.25-4.347 0-3.406-.098-4.464-.452-4.891-.344-.416-.432-1.22-.37-3.38.06-2.087-.016-2.836-.29-2.836-.29 0-.292-.081-.01-.364.2-.2.365-.65.365-1 0-.957.65-2.146 1.349-2.466.341-.156.586-.449.544-.651-.041-.202.12-.368.357-.368.238 0 .495-.238.57-.53.077-.292.155-.019.175.606.035 1.158.645 1.557 1.156.758.324-.506 1.23-.553 1.414-.074.099.26-.052.332-.466.224-.539-.141-.569-.09-.25.422.464.742 3.87 2.554 4.781 2.542.38-.005.765.183.854.416.238.62 2.174.558 2.343-.076.073-.275.148-.057.168.485.027.771.166.985.64.985.334 0 .607-.107.607-.238s.273-.238.606-.238c.333 0 .606.086.606.191 0 .595 1.257 1.439 2.576 1.728 2.652.583 5.303 1.617 5.303 2.068a.432.432 0 0 1-.435.428c-.238 0-.52.273-.626.606-.106.334-.322.606-.48.606-.468 0-1.487 1.905-1.489 2.782 0 .446-.205 1.016-.455 1.266-.515.515-.644 3.528-.152 3.528.167 0 .303.136.303.303 0 .167-.272.303-.606.303-.407 0-.606.202-.606.616 0 .338-.198.691-.44.784-.622.239-1.482 2.645-1.229 3.442.156.49-.007.875-.637 1.504-1.351 1.352-2.135 6.233-1.338 8.331.192.505.192.777 0 .777-.162 0-.295.333-.295.74s-.13.82-.288.917c-.158.098-.529.992-.824 1.988-.296.995-.712 1.81-.925 1.81-.257 0-.387.458-.387 1.363 0 .75.136 1.364.303 1.364.166 0 .303.213.303.472 0 .26-.127.394-.283.298-.155-.096-.474.1-.709.435-.234.335-.511.524-.616.42-.346-.346-2.209.76-2.642 1.57l-.427.8-.54-.71a44.81 44.81 0 0 0-.844-1.075zM159.22 108.61c-.016.256-.083.233-.195-.065-.404-1.074-1.433-2.178-2.574-2.76-1.643-.838-3.803-1.475-5.02-1.479-.566-.002-1.064-.184-1.156-.424-.088-.23-.563-.5-1.054-.599-.49-.098-1.3-.642-1.797-1.208-.498-.567-1.349-1.211-1.891-1.433-.542-.22-1.125-.584-1.295-.807-.322-.424-4.242-1.113-4.704-.827-.146.09-.51.039-.808-.114-.299-.153-.9-.444-1.338-.647-.51-.236-.912-.766-1.122-1.475-.431-1.453-1.042-5.71-.985-6.863.025-.5-.08-1.182-.233-1.515a49.412 49.412 0 0 1-.806-1.97c-.849-2.188-2.668-5.89-3.013-6.131-.188-.132-.101-.225.212-.227.809-.007.75-2.815-.076-3.641-.333-.334-.606-.883-.606-1.222 0-.339-.204-.694-.454-.79-.319-.122-.455-.619-.455-1.657 0-1.116-.112-1.483-.455-1.483a.467.467 0 0 1-.454-.476c0-.262-.206-.682-.457-.934-.252-.251-.371-.597-.266-.768.297-.48-.532-2.67-1.01-2.67-.233 0-.34-.137-.237-.303.103-.167-.025-.303-.285-.303-.342 0-.472-.307-.472-1.115 0-1.183-1.165-5.028-1.575-5.198-.134-.056-.243-.387-.243-.736 0-.35-.167-1.096-.37-1.66-.273-.751-.515-.986-.91-.883-.425.111-.539-.045-.539-.74 0-.484.152-.88.337-.88.333 0 .265-.93-.212-2.874-.211-.859-.196-.877.306-.376.29.29.653.45.806.356.153-.095.278.077.278.38 0 .634 2.458 2.18 4.47 2.812.708.223 1.288.52 1.288.66 0 .6.609.19.633-.428.02-.512.1-.428.32.336.172.595.538 1.082.882 1.172.324.084.59.341.59.57 0 .532 2.337 2.24 3.064 2.24.303 0 .696.273.875.606.178.334.559.606.846.606.288 0 .693.273.901.606.209.334.556.606.773.606.217 0 .864.543 1.437 1.206.573.662 1.265 1.208 1.537 1.212.273.004.571.297.664.653.124.474.335.602.793.483.343-.09.624-.025.624.143 0 .17.193.233.43.143a.473.473 0 0 1 .602.286c.098.255.043.37-.126.266-.165-.102-.3.037-.3.308 0 .48 1.98 2.573 2.434 2.573.125 0 .31.325.409.721.1.397.455.793.79.881.335.088.61.377.61.642 0 .266.127.483.283.483.156 0 .59.546.965 1.212.375.667.793 1.212.929 1.212s.247.205.247.455.273.727.606 1.06c.333.334.606.947.606 1.363 0 .715 2.094 3.37 2.142 2.716.012-.16.13-.018.262.315.135.341.113.688-.05.793-.337.218.604 3.59 1.132 4.056.19.167.524 1.155.743 2.197.236 1.12.557 1.894.784 1.894.237 0 .323.235.224.613-.215.824.512 3.342 1.022 3.538.224.086.408.414.408.73 0 .315.14.573.313.573.205 0 .193.227-.036.655-.465.868-.14 3.507.52 4.237.55.61.584.878.696 5.714.092 3.961.134 3.718-.584 3.333-.46-.245-.612-.23-.63.065zm-41.177-15.13c-.408.106-.504.001-.392-.427.134-.51-.043-.568-1.73-.568-1.311 0-2.653-.274-4.452-.91-1.417-.5-2.872-.908-3.234-.907-.88 0-4.765-.884-5.426-1.236-.29-.154-.716-.28-.948-.28-.232 0-.591-.205-.798-.455-.208-.25-.566-.454-.795-.454-.23 0-.418.204-.418.454s-.117.455-.26.455c-.144 0-.197-.34-.117-.754.104-.545-.013-.808-.421-.95-.311-.108-1.588-.597-2.838-1.087-1.775-.695-2.648-.869-3.987-.792-.943.054-1.65-.004-1.573-.13.078-.124-.013-.227-.201-.227-.545 0-1.208-.81-1.208-1.475 0-.336-.124-.686-.274-.78-.151-.093-.015-.851.303-1.687.317-.835.577-1.803.577-2.15 0-.782.835-2.302 1.742-3.172.375-.36.682-.933.682-1.275 0-.342.148-.671.328-.732.181-.06.582-1.17.89-2.466.31-1.296.9-2.933 1.312-3.637.413-.704.846-1.787.962-2.407.116-.62.369-1.127.56-1.127.442 0 1.402-2.182 1.402-3.184 0-.416-.17-.76-.379-.767-.208-.006-.022-.312.414-.681 1.116-.946 1.7-1.993 1.897-3.399.093-.666.31-1.688.482-2.27.423-1.43.395-2.646-.065-2.832-.227-.091-.166-.162.151-.177.323-.014.53-.264.53-.637s.293-.725.744-.896c.981-.373 1.79-1.955 1.53-2.992-.111-.44-.104-.703.014-.584.12.118.437.099.707-.044.49-.26 1.395.336 1.044.687-.093.093.117.758.466 1.48.35.72.725 1.784.835 2.364.11.579.302 1.19.426 1.356.125.167.32.872.435 1.567.116.702.415 1.343.672 1.442a.483.483 0 0 1 .284.646c-.1.257-.06.394.085.303.146-.09.336.108.423.44.087.331.034.526-.117.433-.674-.417.236 2.405.934 2.896.378.266.535 1.046.306 1.515-.122.25-.122 1.844 0 3.543.167 2.32.383 3.36.869 4.184.355.602.646 1.36.646 1.684 0 .324.17.6.38.613.302.02.302.055 0 .177-.434.174-.538 3.132-.112 3.132.147 0 .367.307.488.682.207.645.23.633.426-.227l.208-.91.2.951c.11.523.615 1.405 1.123 1.962.57.624.936 1.362.957 1.928.018.505.052 1.764.075 2.798.034 1.496.166 1.971.646 2.322.331.242.706.376.833.298.364-.225.269 1.053-.125 1.684-.53.849.293 2.872 1.224 3.006.466.067.637.246.522.546-.096.25-.04.365.128.261.295-.182.422.399.315 1.445-.03.293.237.903.593 1.356.377.48.512.868.323.931-.179.06-.34.336-.36.614-.03.416-.06.407-.18-.054-.092-.358-.336-.508-.683-.417zM72.762 77.688c-.086-.138-.946-.432-1.912-.654-.966-.222-1.886-.518-2.045-.658-.158-.14-.59-.254-.96-.254-.369 0-.716-.116-.772-.256-.055-.141-.604-.336-1.22-.433-.886-.14-1.145-.071-1.252.332-.09.337-.146.267-.17-.21-.027-.552-.169-.681-.621-.563-.34.089-.655-.024-.748-.268-.089-.231-.345-.42-.569-.42-.223 0-.67-.243-.994-.54-.632-.58-3.802-1.878-4.63-1.895-.977-.02-2.524-1.808-1.563-1.808.166 0 .306-.17.31-.379.003-.208.441-.583.973-.833.666-.313 1.043-.755 1.209-1.419.169-.674.446-.993.92-1.06.48-.069.706-.335.772-.91.072-.62.306-.86.985-1.009 1.07-.235 3.375-2.529 3.213-3.197-.076-.317.09-.468.505-.455a.786.786 0 0 0 .79-.586c.11-.392.485-.643 1.058-.71.79-.094 3.194-1.655 3.456-2.245.056-.125.285-.227.51-.227.225 0 .486-.244.581-.542.094-.297.479-.563.854-.59 1.435-.1 2.651-.422 2.651-.7 0-.16.16-.29.355-.29.195 0 .57-.18.833-.402.264-.22 1.038-.56 1.72-.755.684-.195 1.611-.696 2.062-1.113.45-.418.953-.76 1.116-.76.164 0 .409-.301.545-.67.19-.512.51-.68 1.354-.709 1.071-.037 1.425.237.803.622-.167.103-.303 1.27-.303 2.594 0 1.91-.091 2.406-.444 2.406-.95 0-1.501 2.782-.708 3.576.283.282.266.365-.075.371-.242.004-.702.584-1.023 1.288-.32.704-.883 1.689-1.25 2.189s-.824 1.398-1.015 1.997c-.192.598-.692 1.552-1.112 2.12-.507.687-.706 1.263-.593 1.716.121.483.036.682-.29.682-.253 0-.46.116-.46.257 0 .14-.27.567-.6.948-.812.937-1.072 2.532-.598 3.677.23.557.273 1.012.104 1.13-.155.11-.446.575-.648 1.033-.364.829-.808 1.063-1.104.582z"/></svg>