<?xml version="1.0" encoding="UTF-8" standalone="no"?>
<svg
   width="200"
   height="200"
   viewBox="0 0 52.916666 52.91667"
   version="1.1"
   id="svg8"
   inkscape:version="1.1 (c68e22c387, 2021-05-23)"
   sodipodi:docname="govt.svg"
   xmlns:inkscape="http://www.inkscape.org/namespaces/inkscape"
   xmlns:sodipodi="http://sodipodi.sourceforge.net/DTD/sodipodi-0.dtd"
   xmlns="http://www.w3.org/2000/svg"
   xmlns:svg="http://www.w3.org/2000/svg"
   xmlns:rdf="http://www.w3.org/1999/02/22-rdf-syntax-ns#"
   xmlns:cc="http://creativecommons.org/ns#"
   xmlns:dc="http://purl.org/dc/elements/1.1/">
  <defs
     id="defs2" />
  <sodipodi:namedview
     id="base"
     pagecolor="#ffffff"
     bordercolor="#666666"
     borderopacity="1.0"
     inkscape:pageopacity="0.0"
     inkscape:pageshadow="2"
     inkscape:zoom="0.49497476"
     inkscape:cx="489.92397"
     inkscape:cy="154.55334"
     inkscape:document-units="mm"
     inkscape:current-layer="layer1"
     inkscape:document-rotation="0"
     showgrid="false"
     inkscape:window-width="1920"
     inkscape:window-height="1009"
     inkscape:window-x="-8"
     inkscape:window-y="-8"
     inkscape:window-maximized="1"
     inkscape:pagecheckerboard="1"
     units="px"
     width="200px" />
  <metadata
     id="metadata5">
    <rdf:RDF>
      <cc:Work
         rdf:about="">
        <dc:format>image/svg+xml</dc:format>
        <dc:type
           rdf:resource="http://purl.org/dc/dcmitype/StillImage" />
      </cc:Work>
    </rdf:RDF>
  </metadata>
  <g
     inkscape:label="Layer 1"
     inkscape:groupmode="layer"
     id="layer1"
     style="display:inline"
     transform="translate(87.664398,-21.381563)">
    <g
       id="g906"
       transform="matrix(0.24920178,0,0,0.24920178,-115.24052,-121.76977)"
       style="display:inline;fill:#000000;stroke-width:1.55837">
      <g
         id="g929"
         transform="translate(108.85714,553.35714)"
         style="fill:#000000;fill-opacity:1;stroke-width:1.55837">
        <path
           id="path847"
           style="display:inline;fill:#000000;fill-opacity:1;stroke-width:5.8899"
           d="m 441.92578,119.81055 c -29.37078,-0.008 -63.98809,0.0218 -104.30664,0.0898 l -228,0.38477 -9.841796,3.59375 c -23.791038,8.68788 -41.438463,27.40628 -48.78125,51.74023 -1.437895,4.76517 -2.486369,14.68825 -2.994141,28.33398 l -0.78125,21 h 68.177737 68.17773 l 0.35547,277.66602 0.35352,277.66602 3.12695,8.66796 c 1.71903,4.76667 5.1324,11.96664 7.58594,16 4.51552,7.423 16.62741,20.03231 23.95507,24.93946 5.88924,3.9439 20.7237,9.54099 28.87696,10.89648 3.92965,0.65329 106.04427,1.23445 227.78906,1.29492 237.76237,0.11781 232.30615,0.26582 248,-6.79687 16.41653,-7.38788 30.74344,-21.44436 37.99024,-37.27344 5.61951,-12.27462 7.29385,-23.42235 7.32031,-48.72851 l 0.0234,-23 h -25.97851 -86.03906 v -473 c -0.0206,-57.75667 -1.09093,-66.02192 -11.17774,-86.33204 -13.11137,-26.40023 -35.98022,-41.67566 -68.80859,-45.95898 -6.01033,-0.78424 -46.91108,-1.15939 -135.02344,-1.18359 z m -62.63867,20.47461 c 185.37789,0 198.84036,0.15332 206.10351,2.34375 26.35151,7.94709 40.5343,22.48035 48.45899,49.65625 2.06551,7.0832 2.38361,16.2226 2.78125,79.74023 l 0.44922,71.73828 V 726.28516 H 463.08789 390.01953 316.95312 v 24.42578 c 10e-6,28.39457 -1.16175,33.92165 -9.76953,46.5 -6.67169,9.74918 -18.85482,18.73924 -29.28515,21.60937 -18.15739,4.99639 -34.01188,2.75906 -48.62891,-6.86328 -13.25925,-8.72855 -21.64948,-21.8058 -24.24219,-37.78515 -0.92998,-5.73166 -1.39793,-103.96695 -1.41796,-297.88672 -0.0324,-315.24787 0.39397,-297.29819 -7.45118,-313.02539 -1.91348,-3.83595 -6.1167,-10.37262 -9.34179,-14.52735 -3.2251,-4.15473 -5.86242,-7.75474 -5.86133,-8 10e-4,-0.24527 89.24977,-0.44726 198.33203,-0.44726 z M 128.86133,140.5 c 2.91162,0.001 5.61153,0.17186 7.85156,0.5332 26.92696,4.34361 46.90625,29.09066 46.90625,58.10157 v 5.81835 H 126.28516 68.953125 v -9.09179 c 0,-23.29406 13.225266,-42.94785 34.666015,-51.51563 5.86536,-2.3438 16.50731,-3.84969 25.24219,-3.8457 z M 748.95312,746.19336 V 758.625 c 0,21.46911 -5.61018,36.10457 -18.27734,47.68164 -3.88131,3.54731 -10.20681,7.98774 -14.05664,9.86719 -3.84983,1.87944 -10.01956,3.67787 -13.66602,4.29492 l -6.66601,1.12891 -382.00195,-0.33594 c 0,-0.46655 1.76143,-2.6772 3.91406,-4.91211 5.9283,-6.15492 13.20242,-19.04874 16.17578,-28.67188 1.69836,-5.49671 2.96175,-14.53411 3.49219,-25 l 0.83008,-16.39257 z"
           transform="scale(0.26458333)" />
        <path
           style="fill:#000000;fill-opacity:1;stroke-width:1.55837"
           d="m 67.279766,74.33532 v -2.822222 h 43.744444 43.74444 v 2.822222 2.822222 H 111.02421 67.279766 Z"
           id="path885" />
        <path
           style="fill:#000000;fill-opacity:1;stroke-width:1.55837"
           d="m 67.279766,99.73532 v -2.822222 h 43.744444 43.74444 v 2.822222 2.82222 H 111.02421 67.279766 Z"
           id="path883" />
        <path
           style="fill:#000000;fill-opacity:1;stroke-width:1.55837"
           d="m 67.279766,124.42976 v -2.82222 h 43.744444 43.74444 v 2.82222 2.82223 H 111.02421 67.279766 Z"
           id="path881" />
        <path
           style="fill:#000000;fill-opacity:1;stroke-width:1.55837"
           d="M 67.279766,149.12522 V 146.303 h 43.744444 43.74444 v 2.82222 2.82223 H 111.02421 67.279766 Z"
           id="path897" />
      </g>
    </g>
  </g>
</svg>
