<svg width="200" height="200" viewBox="0 0 52.917 52.917" xmlns="http://www.w3.org/2000/svg"><g style="display:inline"><g style="display:inline;fill:#000;stroke-width:1.55837"><g style="fill:#000;fill-opacity:1;stroke-width:1.55837"><path style="display:inline;fill:#000;fill-opacity:1;stroke-width:5.8899" d="M441.926 119.81c-29.371-.007-63.988.022-104.307.09l-228 .385-9.842 3.594c-23.79 8.688-41.438 27.406-48.78 51.74-1.439 4.765-2.487 14.688-2.995 28.334l-.781 21h136.355l.356 277.666.353 277.666 3.127 8.668c1.72 4.767 5.133 11.967 7.586 16 4.516 7.423 16.627 20.032 23.955 24.94 5.89 3.943 20.724 9.54 28.877 10.896 3.93.653 106.044 1.234 227.79 1.295 237.762.118 232.305.266 248-6.797 16.416-7.388 30.743-21.444 37.99-37.273 5.619-12.275 7.293-23.423 7.32-48.729l.023-23H656.935v-473c-.02-57.757-1.09-66.022-11.177-86.332-13.112-26.4-35.98-41.676-68.809-45.959-6.01-.784-46.91-1.16-135.023-1.183zm-62.639 20.475c185.378 0 198.84.153 206.104 2.344 26.351 7.947 40.534 22.48 48.459 49.656 2.065 7.083 2.383 16.223 2.78 79.74l.45 71.739v382.521H316.953v24.426c0 28.395-1.162 33.922-9.77 46.5-6.671 9.75-18.854 18.74-29.285 21.61-18.157 4.996-34.011 2.758-48.628-6.864-13.26-8.729-21.65-21.806-24.243-37.785-.93-5.732-1.398-103.967-1.418-297.887-.032-315.248.394-297.298-7.45-313.025-1.914-3.836-6.117-10.373-9.343-14.528-3.225-4.154-5.862-7.754-5.86-8 0-.245 89.249-.447 198.331-.447zm-250.426.215c2.912.001 5.612.172 7.852.533 26.927 4.344 46.906 29.09 46.906 58.102v5.818H68.953v-9.092c0-23.294 13.225-42.948 34.666-51.515 5.866-2.344 16.507-3.85 25.242-3.846zm620.092 605.693v12.432c0 21.47-5.61 36.105-18.277 47.682-3.882 3.547-10.207 7.987-14.057 9.867-3.85 1.88-10.02 3.678-13.666 4.295l-6.666 1.129-382.002-.336c0-.467 1.762-2.677 3.914-4.912 5.929-6.155 13.203-19.05 16.176-28.672 1.698-5.497 2.962-14.534 3.492-25l.83-16.393z" transform="translate(1.046 -3.492) scale(.06227)"/><path style="fill:#000;fill-opacity:1;stroke-width:1.55837" d="M67.28 74.335v-2.822h87.489v5.645H67.28Zm0 25.4v-2.822h87.489v5.645H67.28Zm0 24.695v-2.822h87.489v5.644H67.28Zm0 24.695v-2.822h87.489v5.644H67.28Z" transform="matrix(.23537 0 0 .23537 1.046 -3.492)"/></g></g></g></svg>