<svg width="200" height="200" viewBox="0 0 52.917 52.917" xmlns="http://www.w3.org/2000/svg"><path style="fill:#000;fill-opacity:1;stroke-width:1.25733" d="M-63.186 148.01c-.522-.11-1.656-.475-1.952-.627a6.675 6.675 0 0 0-.752-.294c-1.256-.412-2.294-1.126-2.926-2.012-.88-1.234-3.723-6.392-3.727-6.762 0-.079.104-.323.233-.543.571-.978.837-2.022.69-2.71a4.047 4.047 0 0 1-.089-.652c0-.287-.047-.308-.98-.425-.403-.05-.836-.131-.963-.18-.206-.08-.23-.13-.23-.492 0-.221.043-.429.095-.46.066-.042.075-.317.031-.946-.193-2.732.083-3.898 1.207-5.101l.262-.28-.538-1.22c-.498-1.13-1.667-4.097-1.881-4.772-.159-.5-.407-1.761-.51-2.59-.054-.437-.133-.93-.176-1.096-.042-.166-.077-.66-.077-1.095 0-.436-.024-1.019-.052-1.295l-.053-.502-.284.314c-.348.385-.785.605-1.064.535-.114-.028-.36-.193-.547-.366l-.34-.313v-.682c0-.398-.034-.68-.083-.68-.133 0-.096-.94.044-1.124.18-.237.15-.502-.086-.784-.115-.136-.209-.293-.209-.348 0-.055-.063-.207-.14-.338-.132-.223-.132-.27 0-.743.077-.278.14-.647.14-.82 0-.303-.017-.323-.405-.46-.544-.194-.807-.415-1.101-.928-.232-.403-.247-.487-.248-1.331 0-.806.026-.971.255-1.565.303-.785.823-1.518 1.357-1.913.347-.256.397-.337.507-.818.149-.653.525-1.146 1.125-1.472.347-.189.587-.244 1.326-.305.496-.04.982-.098 1.08-.129.136-.043.218.002.354.193.175.245.704.517 1.008.517.136 0 .151.047.112.343-.054.398.035.49.48.492.16.001.432.04.604.089.38.105.887-.01 1.108-.255.24-.266.293-.202.292.355 0 .621-.217 1.065-.52 1.066-.247 0-.689.272-.856.527-.19.291-.05.583.411.853.425.249.47.399.193.628-.184.152-.185.16-.042.417.189.338.198 1.416.017 1.93-.22.623-.913 1.22-1.912 1.646l-.54.23.378.54c.7.999.996 1.713 1.242 3.005.235 1.236.716 2.563 1.454 4.01 1.268 2.487 1.404 2.788 1.795 3.943.212.628.386 1.202.386 1.274 0 .072.038.131.084.131.127 0 3.781-.662 3.809-.69.033-.032.201-1.39.201-1.621 0-.158-.287-.334-1.9-1.164-2.765-1.422-3.819-1.97-3.86-2.009-.02-.018 0-.07.044-.113.05-.05.324-.02.746.081a1455.552 1455.552 0 0 1 4.158 1c.772.186 1.453.338 1.513.338.144 0 1.221-.816 1.221-.925 0-.129-2.187-4.46-2.268-4.492-.04-.015-.071-.081-.071-.146 0-.065-.038-.118-.084-.118-.046 0-.084-.057-.084-.127 0-.124-.16-.46-.258-.542-.028-.023-.05-.105-.05-.181.002-.143.232.092 2.062 2.103l1.659 1.817.708.773h1.448l.22-1.065.607-2.946c.213-1.034.398-1.89.411-1.904.028-.028.09.936.214 3.367.047.919.106 1.936.131 2.26l.046.588.642.247c.353.136.666.247.696.247.064 0 3.745-3.404 4.151-3.838.313-.335.438-.379.373-.131-.024.092-.077.167-.118.167-.04 0-.074.057-.074.125 0 .07-.033.126-.073.126-.041 0-.096.066-.122.146-.047.142-.352.685-.622 1.107a141.4 141.4 0 0 0-1.154 1.986l-1.02 1.777.368.254.368.253 1.4-.387a362.7 362.7 0 0 0 2.978-.843c.869-.25 1.607-.444 1.64-.431.032.013-1.064.757-2.437 1.653-1.772 1.157-2.485 1.665-2.457 1.754.022.07.142.408.268.752.205.563.23.751.246 1.839.017 1.181.024 1.226.294 1.796.24.507.28.692.31 1.385.027.69.007.848-.145 1.146-.228.448-.222.527.061.798.163.157.468.29.982.427 1.423.38 2.797 1.042 3.24 1.559.464.543.736 1.203.853 2.08.22 1.638.301 8.225.347 9.41l.047 1.22-.483.953c-.658 1.301-1.12 1.996-1.584 2.382-.216.179-.65.664-.965 1.077-.315.414-.736.907-.934 1.097-.712.678-2.194 1.802-2.983 2.26-.442.258-1.086.646-1.43.863-.978.617-1.776.99-3.047 1.421-.645.22-1.55-5.191-2.012-5.026-.86.308-2.024.556-2.545.543a4.534 4.534 0 0 1-.669-.087zm.816-20.561c.225-.241.354-.584.354-.942 0-.255-.037-.3-.376-.45-.207-.091-.58-.358-.828-.593l-.452-.428-.906.282c-1.128.35-1.168.438-.485 1.046.336.3.647.483 1.08.637.336.119.774.31.975.425.445.254.422.253.638.022zm-1.352-4.125c.026-.097-.022-.323-.106-.501l-.153-.325-2.088-.018-2.089-.019.437.228a2 2 0 0 1 .699.603c.145.206.45.569.679.804l.416.429 1.08-.512c.784-.372 1.092-.56 1.125-.689z" transform="translate(89.674 -99.671)"/></svg>