<?xml version="1.0" encoding="UTF-8" standalone="no"?>
<svg
   inkscape:output_extension="org.inkscape.output.svg.inkscape"
   sodipodi:docname="Libertfem_flag.svg"
   inkscape:version="1.1 (c68e22c387, 2021-05-23)"
   sodipodi:version="0.32"
   id="svg2"
   height="200"
   width="200"
   version="1.0"
   xmlns:inkscape="http://www.inkscape.org/namespaces/inkscape"
   xmlns:sodipodi="http://sodipodi.sourceforge.net/DTD/sodipodi-0.dtd"
   xmlns="http://www.w3.org/2000/svg"
   xmlns:svg="http://www.w3.org/2000/svg"
   xmlns:rdf="http://www.w3.org/1999/02/22-rdf-syntax-ns#"
   xmlns:cc="http://creativecommons.org/ns#"
   xmlns:dc="http://purl.org/dc/elements/1.1/">
  <metadata
     id="metadata23">
    <rdf:RDF>
      <cc:Work
         rdf:about="">
        <dc:format>image/svg+xml</dc:format>
        <dc:type
           rdf:resource="http://purl.org/dc/dcmitype/StillImage" />
      </cc:Work>
    </rdf:RDF>
  </metadata>
  <sodipodi:namedview
     inkscape:window-maximized="1"
     inkscape:document-rotation="0"
     inkscape:current-layer="layer1"
     inkscape:window-y="-8"
     inkscape:window-x="-8"
     inkscape:cy="126.98459"
     inkscape:cx="116.08336"
     inkscape:zoom="1.6970563"
     showgrid="false"
     id="base"
     pagecolor="#ffffff"
     bordercolor="#666666"
     borderopacity="1.0"
     objecttolerance="10.0"
     gridtolerance="10.0"
     guidetolerance="10.0"
     inkscape:pageopacity="0.0"
     inkscape:pageshadow="2"
     inkscape:window-width="1920"
     inkscape:window-height="1009"
     inkscape:pagecheckerboard="1" />
  <defs
     id="defs4">
    <inkscape:perspective
       id="perspective25"
       inkscape:persp3d-origin="450 : -200 : 1"
       inkscape:vp_z="900 : -100 : 1"
       inkscape:vp_y="0 : 1000 : 0"
       inkscape:vp_x="0 : -100 : 1"
       sodipodi:type="inkscape:persp3d" />
  </defs>
  <g
     id="layer1"
     transform="translate(837.14282,-33.076481)">
    <path
       id="path2182"
       style="fill:#000000;fill-opacity:1;stroke-width:0.521438"
       d="m -811.66916,33.077269 c -0.82593,0.019 -1.36687,0.405 -2.00567,1.09401 -1.22774,1.32424 -2.06435,6.24962 -1.45,8.58709 0.34836,1.32543 0.42586,1.36282 0.81616,0.40519 0.38705,-0.94965 0.43111,-0.92369 0.47176,0.26336 0.0246,0.71699 0.25398,1.64721 0.52095,2.06937 0.42736,0.67575 0.5088,0.67575 0.7004,0 1.58011,-5.5733 2.31034,-5.56709 8.00246,0.0954 3.91338,3.89307 4.28688,4.41956 3.48752,5.00407 -0.4909,0.35896 -1.2634,0.65014 -1.71048,0.65121 -0.44707,10e-4 -1.63862,0.51302 -2.6424,1.14031 -2.37242,1.48264 -6.4789,1.34861 -14.33788,-0.45728 -7.73259,-1.77685 -13.85391,-2.17106 -15.62578,-1.01007 -1.73094,1.13415 -1.67334,1.80881 0.11292,1.46735 1.35144,-0.25834 1.37783,-0.22013 0.52096,0.63673 -1.47413,1.47414 -1.05055,1.79006 1.30529,0.97823 2.79275,-0.96241 10.96234,-0.6343 18.34633,0.73223 5.01262,0.92767 5.13136,0.97765 3.92743,1.77704 -1.21049,0.80373 -1.22444,0.86653 -0.34152,2.21406 0.82661,1.26154 1.20406,1.38633 4.30078,1.38633 1.86673,0 4.23928,-0.35305 5.26456,-0.78143 2.84517,-1.1888 21.11305,-0.66848 27.24309,0.78143 7.02525,1.66166 13.22244,4.96149 18.23635,9.6782 1.73457,1.63176 4.0971,4.32821 5.19798,5.47582 0.007,0.009 0.024,0.0237 0.0319,0.0319 0.80961,1.28662 1.50586,2.64396 2.34719,3.91006 -0.43936,0.0532 1.28306,3.0268 1.67865,4.05767 0.19094,0.31652 0.32748,0.45279 0.42254,0.45728 0.89138,3.80958 1.905,7.61389 2.37903,11.50445 0.009,1.36856 -0.11588,1.45993 -1.43263,1.12295 -9.94359,-2.54487 -12.75108,-2.97593 -20.98873,-3.2415 -6.80599,-0.21943 -9.4814,-0.10803 -12.76053,0.57014 -7.35185,1.90555 -8.8974,3.16595 -13.18019,5.42663 -3.30348,2.751741 -4.63217,3.261151 -6.45406,7.154471 -3.20219,6.84291 -2.2336,15.38406 2.52664,20.62696 l 1.22135,1.35448 -3.12863,1.93912 c -3.78012,2.33322 -7.69707,6.0484 -9.69557,9.20645 -4.50349,7.11652 -4.37613,16.79581 0.30968,24.18104 l 1.61207,2.55847 -1.71047,1.35159 c -8.39078,6.56606 -13.9847,13.36805 -16.68506,20.3057 -1.64296,4.22102 -1.65562,12.19134 -0.0319,16.24514 0.63181,1.57735 1.15032,3.21941 1.15479,3.64959 0.0156,1.49829 5.12886,7.71984 8.67102,10.54357 10.16817,8.10582 20.11075,11.49017 41.66491,14.225 8.96205,1.13712 24.49126,0.68115 31.77541,-0.94641 6.76933,-1.51253 9.50781,-2.50493 15.1222,-5.45847 4.8312,-2.54151 12.70705,-8.29934 14.45362,-10.5754 0.66105,-0.86145 2.32918,-2.98284 3.71326,-4.70886 l 2.50928,-3.12863 2.06936,1.85808 c 6.26623,5.66118 18.03732,12.74626 22.61816,13.60563 1.00377,0.1883 1.82623,0.51848 1.82624,0.7496 0,0.72751 5.09993,1.55782 9.54797,1.54839 9.6872,-0.58092 19.16977,-3.91861 25.51815,-11.58548 5.48703,-6.1938 6.18678,-7.51165 6.51774,-12.23667 0.25365,-3.62128 0.21451,-3.79488 -1.04192,-4.36735 -1.06749,-0.48639 -1.74252,-0.3839 -3.71615,0.48912 -1.32687,0.58694 -2.41086,1.27111 -2.41086,1.53103 0,0.25991 -1.93767,2.46345 -4.30368,4.8883 -6.53244,6.69487 -10.43527,8.19569 -20.41568,7.8867 -4.67445,-0.14477 -5.45562,-0.3153 -8.0835,-1.79152 -4.03839,-2.26856 -11.73295,-8.10836 -16.24514,-12.33508 l -3.77982,-3.53671 0.9927,-2.5903 c 0.79323,-2.05674 1.00547,-3.90443 0.9956,-9.09358 -0.0204,-10.73122 -2.65138,-19.53061 -8.31213,-27.87982 -2.95471,-4.35797 -3.16805,-4.87074 -2.76975,-6.55247 0.70879,-2.99272 0.66629,-11.50843 -0.0811,-14.58388 -1.76385,-7.25876 -5.84773,-13.67901 -12.97179,-20.4012 l -4.64231,-4.36735 -0.30967,-4.95199 c -1.67417,-25.809021 -18.32931,-48.445561 -40.80243,-55.452851 -4.44281,-1.38531 -10.76045,-2.42823 -14.65045,-2.42823 -1.95951,0 -2.75144,-0.34032 -4.78989,-2.03463 -1.34201,-1.11546 -2.94892,-2.17828 -3.56855,-2.36456 -0.61962,-0.18628 -1.51139,-0.92364 -1.97384,-1.62943 -0.60608,-0.92501 -1.30966,-1.27055 -2.52375,-1.27055 -2.31382,0 -7.99515,-1.68849 -13.13387,-3.8956 -2.82725,-1.21433 -4.36471,-1.78407 -5.42663,-1.75968 z m 39.72578,76.930731 c 6.94895,-0.0376 15.6025,1.1911 21.91778,3.43831 2.55914,0.91064 3.2525,1.39899 3.38911,2.36166 0.26202,1.84653 -3.29805,4.94235 -7.29917,6.3383 -4.24952,1.4826 -13.76208,1.90673 -18.47946,0.83064 -9.45523,-2.15685 -14.8937,-8.83276 -9.3367,-11.46973 2.08099,-0.9875 5.63909,-1.47662 9.80844,-1.49918 z m 3.74799,35.40764 c 9.15042,0.006 14.39169,0.6948 21.63994,2.83631 6.37187,1.88258 14.60123,6.42307 14.60123,8.06614 0,0.71554 -3.27859,3.56919 -7.55965,6.56693 -1.43395,1.00411 -2.84184,1.95946 -3.12863,2.11856 -0.28679,0.15912 -1.5339,-0.16579 -2.77264,-0.71777 -5.80053,-2.58477 -22.213,-4.38891 -34.64067,-3.79719 l -7.69279,0.37625 -0.9927,-2.28353 c -0.54333,-1.25142 -1.15359,-3.28819 -1.3545,-4.52942 -0.31372,-1.93826 -0.18754,-2.44026 0.86537,-3.56854 3.40306,-3.64664 9.33817,-5.07493 21.03504,-5.06774 z m -24.93064,36.19195 2.93473,1.59761 c 3.74482,2.02827 13.01441,4.36827 20.59512,5.19798 9.9753,1.0918 24.19868,0.12329 29.83631,-2.02015 1.68794,-0.64175 6.03059,0.67776 10.55805,3.20967 5.4854,3.06763 5.52771,2.69729 -1.14033,9.15724 -5.77206,5.59191 -6.3889,6.03185 -9.95605,7.34838 -10.88933,3.91316 -21.74313,6.04418 -33.37012,3.84639 -9.78138,-1.93853 -23.02831,-4.92261 -28.12583,-14.4218 -0.35,-1.06048 -0.47621,-2.61838 -0.29231,-3.45567 0.53405,-2.43148 3.19875,-6.01836 6.19069,-8.32661 z" />
  </g>
</svg>
