<svg height="200" width="200" version="1.0" xmlns="http://www.w3.org/2000/svg"><path style="fill:#000;fill-opacity:1;stroke-width:.469294" d="M36.926 12c-.743.019-1.23.365-1.805.985-1.105 1.193-1.858 5.625-1.305 7.729.314 1.193.383 1.226.734.365.349-.855.388-.832.425.237.023.645.229 1.482.47 1.863.383.607.457.607.63 0 1.421-5.017 2.078-5.012 7.202.085 3.522 3.504 3.858 3.978 3.138 4.504-.44.323-1.137.585-1.539.586-.402 0-1.475.461-2.378 1.026-2.135 1.334-5.832 1.214-12.904-.412-6.96-1.599-12.468-1.954-14.063-.909-1.558 1.02-1.506 1.628.101 1.32 1.216-.232 1.24-.197.468.574-1.325 1.327-.945 1.61 1.176.88 2.514-.866 9.866-.57 16.511.659 4.512.835 4.619.88 3.535 1.6-1.089.723-1.102.78-.307 1.993.744 1.135 1.083 1.247 3.87 1.247 1.68 0 3.817-.318 4.739-.704 2.56-1.069 19.002-.6 24.519.704 6.322 1.496 11.9 4.465 16.412 8.71 1.562 1.47 3.687 3.896 4.678 4.929l.03.029c.728 1.157 1.355 2.38 2.111 3.519-.396.047 1.155 2.724 1.512 3.652.17.284.294.407.38.411.802 3.429 1.714 6.853 2.141 10.354.008 1.232-.105 1.314-1.29 1.01-8.949-2.29-11.475-2.678-18.89-2.917-6.125-.198-8.532-.097-11.483.513-6.617 1.715-8.009 2.85-11.862 4.884-2.974 2.477-4.17 2.936-5.81 6.44-2.882 6.158-2.01 13.845 2.274 18.564l1.1 1.218-2.816 1.746c-3.402 2.1-6.927 5.443-8.726 8.286-4.053 6.404-3.939 15.116.279 21.763l1.45 2.302-1.539 1.217c-7.551 5.909-12.586 12.03-15.017 18.275-1.479 3.798-1.49 10.972-.029 14.62.569 1.42 1.035 2.898 1.04 3.285.014 1.349 4.616 6.948 7.804 9.49 9.15 7.294 18.099 10.34 37.498 12.802 8.066 1.023 22.042.612 28.598-.852 6.093-1.362 8.557-2.254 13.61-4.913 4.347-2.287 11.437-7.47 13.008-9.517a326.412 326.412 0 0 1 3.343-4.24l2.258-2.815 1.863 1.673c5.638 5.095 16.232 11.472 20.355 12.245.904.17 1.644.466 1.644.675 0 .654 4.59 1.401 8.593 1.393 8.719-.522 17.253-3.527 22.967-10.426 4.938-5.575 5.567-6.761 5.865-11.014.229-3.258.193-3.415-.937-3.93-.961-.438-1.569-.345-3.345.44-1.195.529-2.17 1.143-2.17 1.377 0 .234-1.743 2.218-3.873 4.4-5.88 6.026-9.391 7.377-18.374 7.099-4.207-.13-4.91-.285-7.275-1.613-3.635-2.041-10.56-7.297-14.62-11.102l-3.402-3.183.892-2.331c.715-1.851.906-3.514.897-8.185-.018-9.657-2.386-17.577-7.481-25.092-2.66-3.92-2.851-4.383-2.493-5.896.638-2.694.6-10.358-.073-13.126-1.587-6.532-5.263-12.311-11.675-18.36l-4.177-3.931-.28-4.457c-1.506-23.229-16.496-43.601-36.721-49.908-3.999-1.246-9.684-2.185-13.185-2.185-1.764 0-2.477-.306-4.311-1.831-1.209-1.004-2.655-1.96-3.213-2.129-.557-.167-1.36-.83-1.776-1.466-.545-.832-1.179-1.143-2.272-1.143-2.081 0-7.195-1.52-11.82-3.506-2.544-1.093-3.928-1.606-4.884-1.584zM72.68 81.24c6.254-.035 14.042 1.071 19.725 3.094 2.304.819 2.928 1.26 3.051 2.126.236 1.66-2.969 4.447-6.57 5.704-3.825 1.334-12.386 1.716-16.632.747-8.508-1.94-13.404-7.95-8.402-10.322 1.873-.889 5.076-1.329 8.828-1.35zm3.373 31.867c8.235.005 12.952.624 19.476 2.552 5.734 1.695 13.14 5.78 13.14 7.26 0 .644-2.95 3.213-6.803 5.91-1.29.903-2.558 1.764-2.816 1.907-.258.143-1.38-.15-2.495-.646-5.22-2.327-19.992-3.951-31.176-3.418l-6.925.339-.892-2.056c-.49-1.126-1.039-2.959-1.22-4.077-.282-1.743-.168-2.196.78-3.211 3.062-3.281 8.404-4.567 18.931-4.56zm-22.438 32.573 2.642 1.437c3.37 1.825 11.712 3.931 18.535 4.678 8.978.983 21.778.11 26.853-1.818 1.519-.578 5.427.61 9.502 2.889 4.937 2.76 4.975 2.427-1.026 8.241-5.195 5.033-5.751 5.43-8.96 6.614-9.802 3.521-19.57 5.44-30.034 3.462-8.803-1.745-20.726-4.43-25.313-12.98-.315-.954-.428-2.356-.263-3.11.48-2.188 2.878-5.417 5.571-7.494z"/></svg>