<svg viewBox="0 0 52.917 52.917" height="200" width="200" xmlns="http://www.w3.org/2000/svg"><path d="M37.48 0c-.024 0-.06.05-.079.11-.093.293-1.508 2.03-2.214 2.718-1.047 1.02-1.788 1.352-3.027 1.355-.528 0-.724-.022-1.053-.124-1.023-.316-1.754-.89-3.607-2.835C26.958.655 26.495.184 26.47.175c-.024-.008-.626.572-1.338 1.29-.713.716-1.476 1.459-1.697 1.65-.45.388-1.405.889-1.884.987-.36.074-1.415.077-1.8.005-.593-.11-1.49-.68-2.18-1.385-.618-.633-1.847-2.137-2.116-2.593-.109-.184.185-.415-4.399 3.46-2.1 1.776-4.34 3.681-6.398 5.443l-.166.141.377.424c.208.233.744.814 1.19 1.29 1.633 1.74 2.177 2.395 2.656 3.202.8 1.348 1.078 2.481 1.024 4.177-.071 2.253-.678 3.9-3.302 8.97-1.113 2.15-1.574 3.15-1.94 4.206l-.25.72v1.635c0 1.817.051 2.528.248 3.417.545 2.467 1.762 4.667 3.616 6.536 1.436 1.45 3.026 2.521 5.118 3.452 1.027.456 2.064.808 3.771 1.278 5.025 1.382 6.16 1.887 8.647 3.85.43.34.808.603.837.586.03-.017.286-.218.568-.445 2.449-1.972 3.498-2.463 8.025-3.753a87.136 87.136 0 0 0 2.81-.84c2.969-1.024 4.922-2.189 6.787-4.048 2.781-2.774 3.995-5.834 3.994-10.071 0-1.775-.28-2.661-1.76-5.577l-1.548-3.053c-.948-1.87-1.329-2.722-1.672-3.743-.662-1.97-.762-4.29-.25-5.795.172-.508.654-1.441 1.015-1.97.436-.636.922-1.198 2.24-2.597 1.159-1.228 1.65-1.776 1.65-1.838 0-.042-.529-.5-3.188-2.761C41.01 2.899 37.546 0 37.481 0ZM26.713 17.803h.02c5.232 0 9.473 4.228 9.473 9.445 0 5.217-4.241 9.446-9.473 9.446-5.233 0-9.475-4.23-9.474-9.446 0-5.209 4.229-9.435 9.453-9.445zM26.756 19l-2.591 4.882-5.373.897 3.889 4.07-.87 5.277 4.936-2.296 4.947 2.432c.011 0 .02.156 0 0l-.862-5.41L34.74 24.8l-5.29-.831L26.755 19z" style="fill:#000;fill-opacity:1;stroke-width:.0540403"/></svg>