<svg width="200" height="200" viewBox="0 0 52.917 52.917" xmlns="http://www.w3.org/2000/svg"><path style="fill:#000;fill-opacity:1;stroke-width:1.65359" d="M17.865 13.475C19.208 8.429 22.16 3.968 26.466 0c5.507 4.691 7.28 9.383 9.404 14.076-2.52 1.774-5.033 3.52-7.682 6.08-3.627-2.508-5.53-4.834-10.323-6.681zm12.731 8.524c4.69-3.561 9.581-7.844 18.601-8.573 3.466 5.964 5.392 26.277-.55 31.027-5.964-8.96-10.71-15.616-18.05-22.454ZM19.218 52.485C-.762 49.22-2.857 24.6 3.966 11.599c18.29 1.78 35.379 21.905 42.33 35.397-7.46 5.626-19.307 6.665-27.078 5.489z"/></svg>