<svg height="200" width="200" version="1.0" xmlns="http://www.w3.org/2000/svg"><path style="fill:#000;fill-opacity:1;stroke-width:.521438" d="M-811.67 33.077c-.825.02-1.366.405-2.005 1.094-1.228 1.325-2.064 6.25-1.45 8.587.349 1.326.426 1.363.816.406.387-.95.431-.924.472.263.025.717.254 1.647.521 2.07.427.675.509.675.7 0 1.58-5.574 2.31-5.568 8.003.095 3.913 3.893 4.287 4.42 3.487 5.004-.49.359-1.263.65-1.71.651-.447.001-1.639.513-2.642 1.14-2.373 1.483-6.48 1.349-14.338-.457-7.733-1.777-13.854-2.171-15.626-1.01-1.731 1.134-1.673 1.809.113 1.467 1.351-.258 1.378-.22.52.637-1.473 1.474-1.05 1.79 1.306.978 2.793-.962 10.962-.634 18.346.732 5.013.928 5.132.978 3.928 1.778-1.21.803-1.225.866-.342 2.214.827 1.261 1.204 1.386 4.301 1.386 1.867 0 4.24-.353 5.265-.782 2.845-1.188 21.113-.668 27.243.782 7.025 1.662 13.222 4.961 18.236 9.678 1.735 1.632 4.097 4.328 5.198 5.476.007.009.024.024.032.032.81 1.286 1.506 2.644 2.347 3.91-.44.053 1.283 3.027 1.679 4.058.19.316.327.452.422.457.892 3.81 1.905 7.614 2.38 11.504.008 1.369-.117 1.46-1.433 1.123-9.944-2.545-12.751-2.976-20.989-3.241-6.806-.22-9.481-.108-12.76.57-7.352 1.905-8.898 3.166-13.18 5.426-3.304 2.752-4.633 3.262-6.455 7.155-3.202 6.843-2.233 15.384 2.527 20.627l1.221 1.354-3.128 1.94c-3.78 2.333-7.697 6.048-9.696 9.206-4.503 7.116-4.376 16.796.31 24.181l1.612 2.558-1.71 1.352c-8.391 6.566-13.985 13.368-16.686 20.306-1.643 4.22-1.655 12.191-.032 16.245.632 1.577 1.15 3.22 1.155 3.65.016 1.498 5.129 7.72 8.671 10.543 10.168 8.106 20.11 11.49 41.665 14.225 8.962 1.137 24.491.681 31.775-.946 6.77-1.513 9.508-2.505 15.123-5.459 4.83-2.541 12.707-8.3 14.453-10.575a362.68 362.68 0 0 1 3.714-4.71l2.509-3.128 2.07 1.858c6.265 5.662 18.036 12.747 22.617 13.606 1.004.188 1.827.518 1.827.75 0 .727 5.1 1.557 9.548 1.548 9.687-.58 19.17-3.919 25.518-11.585 5.487-6.194 6.186-7.512 6.517-12.237.254-3.621.215-3.795-1.041-4.367-1.068-.487-1.743-.384-3.717.489-1.327.587-2.41 1.27-2.41 1.53s-1.938 2.464-4.304 4.889c-6.533 6.695-10.435 8.196-20.416 7.887-4.674-.145-5.455-.316-8.083-1.792-4.039-2.268-11.733-8.108-16.245-12.335l-3.78-3.537.992-2.59c.794-2.057 1.006-3.904.996-9.094-.02-10.73-2.651-19.53-8.312-27.88-2.955-4.357-3.168-4.87-2.77-6.552.709-2.993.666-11.508-.081-14.584-1.764-7.258-5.848-13.679-12.972-20.4l-4.642-4.368-.31-4.952c-1.674-25.81-18.33-48.446-40.802-55.453-4.443-1.385-10.76-2.428-14.65-2.428-1.96 0-2.752-.34-4.79-2.035-1.343-1.115-2.95-2.178-3.57-2.365-.619-.186-1.51-.923-1.973-1.629-.606-.925-1.31-1.27-2.524-1.27-2.313 0-7.995-1.689-13.134-3.896-2.827-1.214-4.364-1.784-5.426-1.76zm39.727 76.931c6.949-.038 15.602 1.191 21.917 3.438 2.56.91 3.253 1.4 3.39 2.362.262 1.846-3.299 4.942-7.3 6.338-4.25 1.483-13.762 1.907-18.48.83-9.454-2.156-14.893-8.832-9.336-11.469 2.081-.987 5.64-1.476 9.809-1.499zm3.748 35.408c9.15.006 14.391.694 21.64 2.836 6.371 1.883 14.6 6.423 14.6 8.066 0 .716-3.278 3.57-7.559 6.567-1.434 1.004-2.842 1.96-3.129 2.119-.286.159-1.533-.166-2.772-.718-5.8-2.585-22.213-4.39-34.64-3.797l-7.694.376-.992-2.284c-.544-1.251-1.154-3.288-1.355-4.53-.314-1.937-.187-2.44.866-3.568 3.403-3.646 9.338-5.075 21.035-5.067zm-24.931 36.192 2.935 1.597c3.745 2.028 13.014 4.368 20.595 5.198 9.975 1.092 24.198.123 29.836-2.02 1.688-.642 6.03.678 10.558 3.21 5.486 3.067 5.528 2.697-1.14 9.157-5.772 5.592-6.39 6.032-9.956 7.348-10.89 3.913-21.743 6.044-33.37 3.847-9.782-1.939-23.029-4.923-28.126-14.422-.35-1.06-.476-2.618-.292-3.456.534-2.431 3.198-6.018 6.19-8.326z" transform="translate(837.143 -33.076)"/></svg>