<?xml version="1.0" encoding="UTF-8" standalone="no"?>
<svg
   version="1.1"
   x="0px"
   y="0px"
   viewBox="0 0 200 200"
   enable-background="new 0 0 100 100"
   xml:space="preserve"
   id="svg6"
   sodipodi:docname="Dove_(248816)_-_The_Noun_Project.svg"
   width="200"
   height="200"
   inkscape:version="1.1 (c68e22c387, 2021-05-23)"
   xmlns:inkscape="http://www.inkscape.org/namespaces/inkscape"
   xmlns:sodipodi="http://sodipodi.sourceforge.net/DTD/sodipodi-0.dtd"
   xmlns="http://www.w3.org/2000/svg"
   xmlns:svg="http://www.w3.org/2000/svg"><defs
     id="defs10" /><sodipodi:namedview
     id="namedview8"
     pagecolor="#505050"
     bordercolor="#ffffff"
     borderopacity="1"
     inkscape:pageshadow="0"
     inkscape:pageopacity="0"
     inkscape:pagecheckerboard="1"
     showgrid="false"
     inkscape:zoom="2.9132799"
     inkscape:cx="67.449749"
     inkscape:cy="114.13253"
     inkscape:window-width="1920"
     inkscape:window-height="1009"
     inkscape:window-x="-8"
     inkscape:window-y="-8"
     inkscape:window-maximized="1"
     inkscape:current-layer="svg6" /><path
     id="path2"
     d="m 191.6319,30.482642 -0.76469,0.855721 c -1.61715,1.807492 -4.39505,5.376972 -5.08698,6.539898 -0.39751,0.668091 -0.95464,1.773359 -1.23806,2.454281 -0.46298,1.112366 -0.51369,1.434555 -0.51343,3.182556 1.6e-4,1.826747 0.0298,1.996874 0.50614,2.792929 0.27908,0.466285 1.21621,1.50306 2.08287,2.301345 1.99287,1.835635 2.45063,2.477832 2.45063,3.455659 0,3.022572 -2.3474,9.259132 -5.30547,14.088451 -1.50123,2.450937 -4.19058,6.044038 -4.6391,6.197609 -0.16854,0.05768 -0.44007,0.382187 -0.60083,0.720992 -0.51382,1.082793 -4.4316,4.504 -7.77432,6.78751 -1.74084,1.189215 -7.2696,4.067407 -7.81074,4.067407 -0.42016,0 -0.15047,-2.210496 0.61904,-5.094273 0.56809,-2.12902 0.6477,-2.678301 0.65544,-4.544427 0.008,-1.915692 -0.0433,-2.255788 -0.50615,-3.513921 -0.77238,-2.099579 -2.54773,-4.628354 -5.04329,-7.18442 -1.60404,-1.642935 -2.13469,-2.098287 -2.07194,-1.769703 0.0465,0.243191 0.24683,1.198808 0.44789,2.122916 0.46227,2.124651 0.46967,4.040944 0.0219,7.781605 -0.40447,3.378354 -0.44184,5.645034 -0.1056,6.587234 0.3503,0.981621 1.04191,1.803114 2.55259,3.022335 1.58399,1.278362 2.85484,2.481063 2.85484,2.705536 0,0.08727 -1.05615,0.506741 -2.34504,0.93219 -2.29588,0.757852 -5.6086,2.291285 -7.43568,3.441093 -0.50582,0.318322 -1.20921,0.755633 -1.56214,0.968605 l -0.64088,0.385985 0.43332,-1.194369 c 0.69908,-1.921904 1.11121,-4.198586 1.11426,-6.183042 0.005,-3.026132 -0.37554,-4.139257 -2.99685,-8.808471 -0.76454,-1.361848 -1.57136,-2.980648 -1.79155,-3.59767 l -0.39691,-1.121543 -0.56441,1.653182 c -0.3091,0.908846 -0.92124,2.605158 -1.36187,3.772458 -1.56256,4.139383 -2.08287,6.11891 -2.08287,7.912692 0,2.700823 1.8419,7.458711 3.65594,9.442067 l 0.56077,0.615391 -1.2672,0.943115 c -2.48035,1.84401 -5.73235,5.487489 -7.66872,8.593625 -2.30712,3.70086 -3.59117,7.9815 -3.59403,11.9801 v 1.45655 h 1.56579 1.56943 l 0.0983,-2.42879 c 0.0848,-2.08609 0.18885,-2.74207 0.73192,-4.60997 1.61822,-5.56592 5.68106,-10.818168 12.11483,-15.654244 l 1.31453,-0.986811 0.54257,0.440605 c 0.29921,0.242787 0.96231,0.759096 1.47475,1.147032 0.51244,0.387939 1.42623,1.3217 2.02824,2.071938 3.47097,4.325529 5.4046,5.35542 9.56952,5.10884 2.35335,-0.13933 3.96799,-0.57707 7.72334,-2.10107 1.70231,-0.690835 3.64703,-1.459715 4.32231,-1.707802 l 1.22713,-0.451529 -1.66774,-0.302235 c -2.23364,-0.403456 -3.47374,-0.889844 -7.86172,-3.08788 -4.41258,-2.210368 -5.61433,-2.573507 -8.48802,-2.574446 -1.76701,-5.3e-4 -3.98607,0.329607 -8.04743,1.20165 -0.89157,0.191433 4.88776,-3.395428 6.03739,-3.746966 0.95813,-0.292973 5.93118,-2.283331 6.29593,-2.519828 0.21811,-0.141432 0.52888,-0.206806 0.68822,-0.145654 0.15933,0.06117 1.50545,0.906333 2.9932,1.878946 4.50315,2.943926 5.95879,3.46456 9.27457,3.302721 3.0775,-0.150214 5.79884,-1.070218 9.94822,-3.364624 0.85117,-0.470648 1.54757,-0.884766 1.54757,-0.917625 0,-0.03289 -0.29797,-0.154539 -0.66273,-0.273102 -0.36479,-0.118575 -2.33415,-0.928312 -4.37692,-1.798836 -5.28087,-2.250434 -7.01467,-2.806879 -9.09614,-2.913095 -1.37176,-0.06999 -1.90758,-0.02013 -2.84027,0.269461 l -1.15066,0.356853 0.51343,-0.382343 c 1.55467,-1.163448 4.06012,-3.386576 5.76427,-5.11248 l 1.93723,-1.959055 0.81201,0.75012 c 1.80138,1.660462 4.3028,2.271914 6.9805,1.711444 1.67129,-0.349818 4.39362,-1.686282 6.32142,-3.102445 1.502,-1.103385 4.28953,-3.656524 4.28953,-3.929036 0,-0.08436 -0.61892,-0.152005 -1.3728,-0.152939 -0.75388,-6.98e-4 -2.44468,-0.123637 -3.75788,-0.273102 -4.88751,-0.556255 -7.12762,-0.306873 -9.6824,1.081486 -0.60795,0.330389 -1.10697,0.566488 -1.10697,0.524357 0,-0.04215 0.34882,-0.578096 0.77196,-1.190728 0.42314,-0.612628 1.21892,-1.923684 1.76971,-2.913094 l 1.00138,-1.798834 1.04507,0.538921 c 1.43914,0.742219 3.05265,0.859345 4.72649,0.342289 2.64748,-0.817816 5.08471,-2.628797 6.10294,-4.533504 0.26,-0.48637 0.79655,-2.058153 1.19072,-3.492072 0.39417,-1.433927 0.87721,-2.923899 1.0742,-3.310002 0.52794,-1.034873 0.45304,-1.123493 -0.53528,-0.622675 -0.49207,0.249349 -2.07813,0.763612 -3.52484,1.14339 -1.4467,0.37978 -3.13038,0.941414 -3.73968,1.24899 -1.27218,0.642197 -2.6093,1.953278 -3.69964,3.626802 -0.41149,0.631553 -0.77184,1.12531 -0.80109,1.096052 -0.0293,-0.02925 0.17475,-0.692696 0.45152,-1.474755 0.67218,-1.899481 1.42013,-5.291007 1.42013,-6.437938 0,-0.768692 0.0711,-0.980664 0.42605,-1.259913 0.66995,-0.526969 1.93073,-2.432672 2.447,-3.695989 0.94621,-2.315374 0.95201,-4.617573 0.0219,-9.460275 -0.37908,-1.97384 -0.47831,-3.028482 -0.49158,-5.19259 z m -44.68322,61.775808 -6.67463,-1.321816 c -3.93198,-0.764396 -9.37652,-2.962035 -9.37652,-5.068785 0,-4.828745 -7.45665,-11.987382 -17.74803,-11.987382 -17.562464,0 -24.443489,15.566993 -26.662101,22.70757 C 75.895853,84.674646 64.320061,79.00489 53.077847,73.523611 39.467869,66.867773 26.604372,60.58554 17.002812,43.507815 l -2.760155,-4.883075 -0.633599,5.571293 c -1.733874,15.418426 -0.352776,31.936984 3.823436,45.360523 4.399938,14.113364 11.76293,24.630354 21.494996,30.838744 -10.403243,1.13541 -26.754734,5.92783 -38.18338634,16.27328 l -0.447887,0.42968 -0.109242,0.59718 c -1.43557256,7.97769 5.61018404,28.13187 13.73888234,31.37403 l 1.1179,0.44789 0.859364,-0.87757 c 3.989774,-4.13893 15.621904,-14.89596 22.128592,-15.86544 11.298145,3.59825 21.460329,5.42564 30.241561,5.42564 29.475852,0 37.847506,-20.50877 40.215276,-32.75775 3.97113,-21.29123 31.73161,-30.909392 32.01126,-31.002611 z m 31.45049,-45.946782 c -0.0503,0.02645 -0.11218,0.154947 -0.21847,0.404192 -0.12846,0.301297 -0.41475,1.454342 -0.63725,2.563523 -0.33952,1.692632 -0.40457,2.587865 -0.40783,5.556728 -0.004,3.15673 0.0397,3.683254 0.39691,4.915846 0.75669,2.611042 1.81986,4.143434 3.42652,4.934055 1.45349,0.71524 1.66221,0.742116 2.0938,0.280386 0.64535,-0.690427 1.57991,-2.823511 1.76605,-4.034637 0.25982,-1.690613 -0.0741,-3.367384 -1.05964,-5.320039 -0.21616,-0.428278 -1.18537,-1.991175 -2.15204,-3.473865 -1.50024,-2.301085 -2.46801,-4.081886 -3.0551,-5.61499 -0.0616,-0.160937 -0.10267,-0.237645 -0.15295,-0.211199 z M 69.198182,52.938959 c -3.794014,5.91195 -6.703642,13.547142 -6.63093,21.028899 6.639059,3.441646 13.815262,7.669013 20.810418,14.02655 -0.838971,-5.613649 -2.989476,-8.303454 -5.556728,-11.517646 -4.614342,-5.775851 -8.2909,-11.55543 -8.62276,-23.537803 z m 102.766688,5.502107 -0.30587,1.292685 c -0.16947,0.710469 -0.9328,2.882963 -1.69323,4.828455 -2.01295,5.149901 -2.1943,5.817657 -2.20303,8.138457 -0.007,1.853268 0.0215,2.005818 0.57533,3.131575 0.3896,0.791814 0.88622,1.451055 1.50025,1.988189 0.99726,0.872382 1.27485,0.966802 1.42014,0.491584 0.052,-0.170236 0.48759,-1.261501 0.9686,-2.428793 1.24552,-3.022567 1.86856,-5.705474 1.86438,-8.047423 -0.004,-1.587408 -0.0888,-2.142225 -0.58991,-3.80523 -0.32241,-1.070017 -0.79862,-2.762885 -1.05964,-3.765174 z"
     style="stroke-width:1.86438" /></svg>
