<?xml version="1.0" encoding="UTF-8" standalone="no"?>
<svg
   sodipodi:docname="Ordolib_flag.svg"
   inkscape:version="1.1 (c68e22c387, 2021-05-23)"
   id="svg887"
   version="1.1"
   viewBox="0 0 52.916666 52.916668"
   height="200"
   width="200"
   xmlns:inkscape="http://www.inkscape.org/namespaces/inkscape"
   xmlns:sodipodi="http://sodipodi.sourceforge.net/DTD/sodipodi-0.dtd"
   xmlns="http://www.w3.org/2000/svg"
   xmlns:svg="http://www.w3.org/2000/svg"
   xmlns:rdf="http://www.w3.org/1999/02/22-rdf-syntax-ns#"
   xmlns:cc="http://creativecommons.org/ns#"
   xmlns:dc="http://purl.org/dc/elements/1.1/">
  <defs
     id="defs881" />
  <sodipodi:namedview
     inkscape:window-maximized="1"
     inkscape:window-y="-8"
     inkscape:window-x="-8"
     inkscape:window-height="1009"
     inkscape:window-width="1920"
     units="px"
     showgrid="false"
     inkscape:document-rotation="0"
     inkscape:current-layer="layer1"
     inkscape:document-units="mm"
     inkscape:cy="446.9925"
     inkscape:cx="709.63216"
     inkscape:zoom="0.9899495"
     inkscape:pageshadow="2"
     inkscape:pageopacity="0.0"
     borderopacity="1.0"
     bordercolor="#666666"
     pagecolor="#ffffff"
     id="base"
     inkscape:pagecheckerboard="1" />
  <metadata
     id="metadata884">
    <rdf:RDF>
      <cc:Work
         rdf:about="">
        <dc:format>image/svg+xml</dc:format>
        <dc:type
           rdf:resource="http://purl.org/dc/dcmitype/StillImage" />
      </cc:Work>
    </rdf:RDF>
  </metadata>
  <g
     id="layer1"
     inkscape:groupmode="layer"
     inkscape:label="Layer 1">
    <path
       sodipodi:nodetypes="cssssssssssssscccssssccsssscsscscssssssssssscsccccssccccccccccccc"
       d="m 37.480778,-4.0100487e-6 c -0.0247,0 -0.0606,0.049430000049 -0.0798,0.1098750000487 -0.0929,0.292686 -1.5079,2.02999401 -2.2142,2.71853301 -1.04651,1.020189 -1.78754,1.351737 -3.0271,1.354359 -0.52765,0.0011 -0.72377,-0.0219 -1.05244,-0.123491 -1.02354,-0.31637 -1.75409,-0.890596 -3.60759,-2.835612 -0.5419,-0.56865201 -1.00478,-1.04043401 -1.02869,-1.04840301 -0.0239,-0.008 -0.62619,0.572201 -1.33845,1.28921001 -0.71225,0.717007 -1.47559,1.459441 -1.69625,1.649865 -0.4506,0.388852 -1.40535,0.889274 -1.88465,0.987845 -0.35925,0.07388 -1.41454,0.07658 -1.80027,0.0046 -0.59252,-0.110582 -1.48937,-0.680656 -2.17843,-1.384756 -0.6193,-0.632833 -1.84782,-2.13747201 -2.11691,-2.59266901 -0.109,-0.184393 0.1849,-0.415455 -4.39903,3.45987201 -2.10062,1.775894 -4.34018,3.680819 -6.39832,5.442371 l -0.16576,0.141855 0.37736,0.423589 c 0.20756,0.232973 0.74327,0.813557 1.1905,1.290159 1.63266,1.739908 2.17598,2.395076 2.65488,3.201416 0.80067,1.348083 1.0788,2.481778 1.02482,4.176988 -0.0718,2.253134 -0.67832,3.900854 -3.3025,8.970717 -1.11267,2.149641 -1.5743,3.150136 -1.94039,4.205724 l -0.24967,0.720043 v 1.634829 c 0,1.817525 0.0515,2.52841 0.24785,3.416884 0.54513,2.467019 1.76197,4.666755 3.61598,6.53669 1.43646,1.4488 3.02627,2.520864 5.11836,3.4514 1.02652,0.456584 2.06347,0.807926 3.77129,1.277812 5.02481,1.382529 6.1596,1.887684 8.64648,3.849502 0.43097,0.339979 0.80788,0.604001 0.8376,0.58666 0.0297,-0.01734 0.28506,-0.217533 0.56742,-0.444886 2.44916,-1.971989 3.4981,-2.462569 8.02498,-3.75332 1.18889,-0.338986 2.45346,-0.71695 2.81013,-0.839892 2.96875,-1.023316 4.92251,-2.1886 6.78699,-4.047956 2.78142,-2.77378 3.99486,-5.833636 3.99381,-10.071052 -3.2e-4,-1.775026 -0.27984,-2.660865 -1.75903,-5.576707 -0.36187,-0.71333 -1.05882,-2.087331 -1.5487,-3.053302 -0.94816,-1.869643 -1.32869,-2.721669 -1.67171,-3.742633 -0.66192,-1.970181 -0.76217,-4.289354 -0.25046,-5.795511 0.17239,-0.507424 0.65395,-1.441014 1.01555,-1.96896 0.43601,-0.636596 0.92111,-1.199086 2.24016,-2.597417 1.1584,-1.228025 1.65018,-1.775768 1.65018,-1.837952 0,-0.04195 -0.52941,-0.500443 -3.18843,-2.761439 C 41.010188,2.899307 37.546468,3.9899513e-6 37.480778,3.9899513e-6 Z M 26.711528,17.802504 c 0.007,-7e-6 0.0134,-7e-6 0.02,0 5.23232,2.5e-5 9.47394,4.228995 9.47394,9.44568 0,5.216685 -4.24162,9.445654 -9.47394,9.445682 -5.23236,1.7e-5 -9.47403,-4.228969 -9.47402,-9.445682 -2e-5,-5.208928 4.22946,-9.434686 9.45399,-9.44568 z m 0.0441,1.197465 c -2.59084,4.882228 -1e-5,0 -2.59084,4.882228 -5.37263,0.89697 0,0 -5.37263,0.89697 3.88876,4.070673 0,0 3.88876,4.070673 -0.86997,5.275737 0,0 -0.86997,5.275737 4.93645,-2.295816 0,0 4.93645,-2.295816 4.94635,2.431817 0,0 4.94635,2.431817 0.0113,0 0.0199,0.15604 0,0 l -0.862,-5.409599 c 3.9084,-4.052231 0,0 3.9084,-4.052231 -5.29086,-0.83103 0,0 -5.29086,-0.83103 -2.69366,-4.968749 0,0 -2.69367,-4.968749 z"
       style="fill:#000000;fill-opacity:1;stroke-width:0.0540403"
       id="path50" />
  </g>
</svg>
