<svg width="200" height="200" viewBox="0 0 52.917 52.917" xmlns="http://www.w3.org/2000/svg"><path style="fill:#000;fill-opacity:1;stroke-width:1.49651" d="M20.265 2.646c3.163.004 4.859.87 6.74 3.439 3.9 5.327 4.98 6.056 8.956 6.056 3.386 0 5.986-.74 13.564-3.862.874-.359 2.223 6.997 2.959 16.118l.433 5.362-2.227.976C44.61 33.4 39.312 34.4 36.24 33.458c-1.795-.549-3.202-1.972-5.703-5.763-2.142-3.247-4.81-4.252-9.27-3.49-2.874.49-8.358 2.325-8.445 2.825-.033.185 1.292 6.355 2.942 13.71l2.733 12.177a28.275 33.677 47.5 0 1-3.716-.369c-.366-2.492-1.769-9.112-4.71-22.33C7.127 16.983 4.951 6.459 5.072 6.044c.348-1.187 1.247-1.508 2.12-.757l.742.636 2.177-.863c3.85-1.525 7.605-2.417 10.154-2.414ZM8.828 8.46a.115.115 0 0 0-.081.028c-.08.072.655 3.708 1.634 8.082 1.19 5.32 1.877 7.776 2.076 7.42.165-.295.443-1.736.619-3.204.395-3.285-.032-6.175-1.285-8.702-.8-1.612-2.473-3.629-2.963-3.624Z"/></svg>