<svg width="200" height="200" viewBox="0 0 52.917 52.917" xmlns="http://www.w3.org/2000/svg"><path style="fill:#000;fill-opacity:1;stroke-width:1.57527" d="M18.546 0c3.33.004 5.115.915 7.095 3.62 4.106 5.607 5.242 6.375 9.428 6.375 3.564 0 6.301-.78 14.278-4.065.919-.378 2.34 7.365 3.114 16.966l.456 5.644-2.344 1.028c-6.4 2.805-11.977 3.856-15.21 2.866-1.89-.578-3.371-2.076-6.004-6.066-2.255-3.418-5.063-4.476-9.757-3.675-3.026.517-8.799 2.448-8.89 2.975-.035.194 1.36 6.689 3.097 14.432l2.876 12.817a29.763 35.449 47.5 0 1-3.911-.388c-.385-2.624-1.862-9.592-4.958-23.506C4.717 15.092 2.426 4.014 2.554 3.577 2.92 2.328 3.866 1.99 4.786 2.78l.78.67 2.292-.909C11.911.936 15.863-.003 18.546 0ZM6.508 6.12a.121.121 0 0 0-.086.03c-.084.075.69 3.903 1.72 8.507 1.252 5.6 1.976 8.185 2.186 7.81.173-.31.466-1.827.651-3.372.416-3.458-.034-6.5-1.353-9.16-.842-1.697-2.603-3.82-3.118-3.815Z"/></svg>