<svg xml:space="preserve" width="200" height="200" xmlns="http://www.w3.org/2000/svg"><path d="M81.879 46.309v21.476a3.356 3.356 0 0 1-6.711 0V46.31a3.356 3.356 0 0 1 6.711 0zm18.12-3.356a3.356 3.356 0 0 0-3.355 3.356v21.476a3.356 3.356 0 0 0 6.712 0V46.31A3.356 3.356 0 0 0 100 42.953zm21.478 0a3.356 3.356 0 0 0-3.356 3.356v21.476a3.356 3.356 0 0 0 6.711 0V46.31a3.356 3.356 0 0 0-3.355-3.356zM74.329 28.188a3.356 3.356 0 0 0 3.355-3.356c0-4.213 1.538-6.18 3.484-8.672 2.185-2.798 4.906-6.28 4.906-12.804a3.356 3.356 0 0 0-6.712 0c0 4.214-1.537 6.18-3.483 8.673-2.186 2.797-4.906 6.28-4.906 12.803a3.356 3.356 0 0 0 3.356 3.356zm21.476 0a3.356 3.356 0 0 0 3.356-3.356c0-4.213 1.537-6.18 3.483-8.672 2.186-2.798 4.906-6.28 4.906-12.804a3.356 3.356 0 0 0-6.711 0c0 4.214-1.538 6.18-3.484 8.673-2.185 2.797-4.906 6.28-4.906 12.803a3.356 3.356 0 0 0 3.356 3.356zm21.477 0a3.356 3.356 0 0 0 3.356-3.356c0-4.213 1.537-6.18 3.483-8.672 2.186-2.798 4.906-6.28 4.906-12.804a3.356 3.356 0 0 0-6.711 0c0 4.214-1.538 6.18-3.484 8.673-2.185 2.797-4.906 6.28-4.906 12.803a3.356 3.356 0 0 0 3.356 3.356zm55.873 31.544c0 6.29-5.119 11.409-11.41 11.409h-4.014c-4.05 14.403-13.957 26.775-26.999 34.49l20.846 83.32a3.356 3.356 0 1 1-6.51 1.628l-7.085-28.317-34.627 20.202v14.18a3.356 3.356 0 0 1-6.711 0v-14.18l-34.627-20.202-7.085 28.317a3.357 3.357 0 0 1-4.07 2.441 3.355 3.355 0 0 1-2.44-4.07l20.845-83.319C56.227 97.915 46.32 85.544 42.27 71.141h-4.014c-6.291 0-11.41-5.118-11.41-11.41 0-6.29 5.119-11.409 11.41-11.409h5.316c3.094-3.731 8.304-7.046 15.386-9.702C69.973 34.49 84.55 32.215 100 32.215c15.45 0 30.027 2.275 41.042 6.405 7.082 2.656 12.292 5.97 15.386 9.702h5.317c6.291 0 11.41 5.118 11.41 11.41zM40.838 64.43a52.975 52.975 0 0 1-.57-7.719c0-.564.046-1.123.129-1.677h-2.142a4.703 4.703 0 0 0-4.698 4.698 4.703 4.703 0 0 0 4.698 4.698h2.583zm23.308 89.325h32.498v-39.758a60.144 60.144 0 0 1-21.251-5.195zm32.498 20.94v-14.228H72.258Zm31.098-14.228h-24.386v14.227zm-3.135-51.665a60.149 60.149 0 0 1-21.251 5.195v39.758h32.498zm26.545-39.031c-.438.295-.896.59-1.378.883a3.355 3.355 0 1 1-3.49-5.734c4.344-2.643 6.736-5.558 6.736-8.209 0-1.032-.355-2.091-1.03-3.15l-.012-.018c-1.965-3.066-6.632-6.14-13.292-8.639-10.281-3.855-24.02-5.978-38.686-5.978s-28.405 2.123-38.686 5.978c-6.61 2.479-11.254 5.526-13.245 8.567a3.886 3.886 0 0 1-.086.13c-.659 1.047-1.003 2.09-1.003 3.11 0 4.027 5.358 8.44 14.334 11.807 10.281 3.855 24.02 5.978 38.686 5.978 11.315 0 22.161-1.272 31.366-3.68a3.356 3.356 0 0 1 1.698 6.493c-9.75 2.55-21.184 3.9-33.064 3.9-15.45 0-30.027-2.276-41.042-6.407-3.979-1.492-7.363-3.192-10.118-5.057 3.798 13.117 13.13 24.296 25.328 30.984.405.128.77.326 1.085.58 7.436 3.862 15.879 6.074 24.747 6.074s17.31-2.212 24.747-6.075a3.33 3.33 0 0 1 1.085-.58c12.19-6.683 21.518-17.852 25.32-30.957zm15.291-10.04a4.703 4.703 0 0 0-4.698-4.697h-2.142c.083.554.129 1.113.129 1.677 0 2.612-.197 5.188-.57 7.719h2.583a4.703 4.703 0 0 0 4.698-4.698z" style="stroke-width:.419463"/></svg>