<svg width="200" height="200" viewBox="0 0 52.917 52.917" xmlns="http://www.w3.org/2000/svg"><path style="fill:#000;fill-opacity:1;stroke-width:1.61881" d="m-91.111 155.606 1.828-2.958 1.676-2.712v-40.893l-1.859-2.989c-1.022-1.644-1.809-3.038-1.749-3.098l50.946.023c.07.07-.72 1.505-1.753 3.19l-1.879 3.062v40.589l1.852 2.978c1.019 1.638 1.852 2.996 1.852 3.018 0 .02-11.49.038-25.533.038-16.96-.001-25.483-.084-25.381-.248zm13.38-5.37c-.001-.034-.283-.888-.625-1.898-.822-2.422-1.124-4.661-.853-6.327.474-2.914 1.752-4.439 6.283-7.5 3.967-2.68 4.333-3.088 4.333-4.829 0-1.837-.615-2.588-4.071-4.976-4.826-3.335-6.16-4.91-6.54-7.72-.231-1.696.084-4.665.706-6.664l.47-1.509h-6.862v20.495c0 16.216.064 20.502.308 20.526.312.03 4.923.346 6.173.422.374.023.678.013.678-.02zm29.818-.337 1.296-.131v-40.955H-50.1c-3.028 0-3.465.05-3.338.379.93 2.425 1.265 4.122 1.265 6.412 0 2.11-.083 2.625-.573 3.543-.923 1.73-2.449 3.186-5.35 5.108-3.818 2.529-4.819 3.665-4.817 5.47.001 1.509.713 2.318 3.983 4.531 5.208 3.524 6.633 5.328 6.82 8.633.107 1.866-.344 3.79-1.515 6.476l-.4.92 2.407-.128a102.1 102.1 0 0 0 3.705-.258zm-6.514-5.343c.497-1.857-.237-3.814-2.026-5.397-1.054-.933-7.248-5.159-7.561-5.159-.256 0-.125 2.351.22 3.983.59 2.78 2.117 5.085 4.055 6.122.824.441 3.049.973 4.142.99.857.013 1.045-.072 1.17-.539zm-18.601-.087c2.48-.737 4.195-2.356 5.041-4.757.442-1.256 1.036-5.386.807-5.615-.2-.2-4.163 2.298-6.315 3.982-2.582 2.02-3.671 3.923-3.355 5.86.15.918.161.926 1.32.926.642 0 1.768-.178 2.502-.396zm13.517-23.917c2.908-.708 4.448-1.87 5.01-3.783.378-1.281.062-3.343-.917-5.985l-.64-1.724H-75.45l-.673 1.79c-.853 2.273-1.127 5.635-.55 6.743.944 1.806 3.036 2.885 6.43 3.314 2.48.313 8.853.102 10.732-.355z" transform="translate(92.166 -102.937)"/></svg>