<svg width="200" height="200" viewBox="0 0 52.917 52.917" xmlns="http://www.w3.org/2000/svg"><path style="fill:#000;fill-opacity:1;stroke-width:1.45745" d="m3.587 50.048 1.646-2.663 1.509-2.442V8.126l-1.674-2.69C4.148 3.954 3.44 2.7 3.494 2.645l45.867.02c.063.064-.648 1.356-1.578 2.873l-1.692 2.756V44.84l1.668 2.68c.917 1.475 1.667 2.698 1.667 2.718 0 .018-10.344.034-22.988.034-15.27 0-22.943-.075-22.85-.223Zm12.047-4.835c-.001-.03-.255-.8-.563-1.709-.74-2.18-1.012-4.196-.768-5.696.427-2.624 1.577-3.997 5.657-6.752 3.571-2.413 3.9-2.78 3.9-4.348 0-1.654-.553-2.33-3.665-4.48-4.344-3.003-5.545-4.42-5.888-6.95-.208-1.528.076-4.2.636-6l.423-1.359H9.188v18.452c0 14.6.058 18.459.277 18.48.281.027 4.433.312 5.558.38.337.02.61.012.61-.018zm26.845-.303 1.167-.118V7.919H40.51c-2.726 0-3.12.045-3.005.341.837 2.184 1.139 3.711 1.139 5.773 0 1.9-.075 2.363-.516 3.19-.83 1.558-2.205 2.868-4.817 4.599-3.437 2.277-4.338 3.3-4.336 4.925 0 1.358.641 2.087 3.586 4.079 4.688 3.173 5.971 4.797 6.14 7.772.096 1.68-.31 3.413-1.364 5.831l-.36.828 2.167-.115a91.923 91.923 0 0 0 3.335-.232zm-5.864-4.81c.447-1.673-.214-3.435-1.824-4.86-.95-.84-6.526-4.645-6.808-4.645-.23 0-.112 2.117.198 3.586.532 2.503 1.906 4.579 3.651 5.512.742.397 2.745.876 3.73.892.77.011.94-.065 1.053-.486zm-16.747-.079c2.233-.664 3.777-2.121 4.538-4.283.398-1.13.933-4.849.727-5.055-.18-.18-3.748 2.069-5.686 3.585-2.324 1.819-3.305 3.532-3.02 5.276.135.826.145.833 1.188.833.578 0 1.592-.16 2.253-.356zm12.17-21.533c2.618-.637 4.004-1.684 4.51-3.406.34-1.153.056-3.01-.826-5.388l-.576-1.553H17.687l-.606 1.612c-.768 2.046-1.014 5.073-.495 6.07.85 1.627 2.733 2.598 5.79 2.985 2.232.281 7.97.091 9.661-.32z"/></svg>