<svg width="200" height="200" viewBox="0 0 52.917 52.917" xmlns="http://www.w3.org/2000/svg"><path style="fill:#000;fill-opacity:1;stroke-width:1.45331" d="M26.457.001a27.904 27.904 0 0 0-2.177.067C18.726.58 13.875 2.553 9.6 6.04c-.919.748-2.73 2.558-3.507 3.502-3.446 4.18-5.438 9-5.99 14.47-.11 1.108-.128 3.533-.03 4.61.524 5.64 2.558 10.575 6.144 14.878.296.356.976 1.08 1.545 1.648 1.42 1.42 2.518 2.326 4.143 3.406a26.28 26.28 0 0 0 12.462 4.275l1.044.073c.613.043 2.604-.02 3.487-.102a26.056 26.056 0 0 0 9.371-2.668c7.757-3.864 13.166-11.345 14.374-19.876a23.71 23.71 0 0 0 .267-3.86 25.677 25.677 0 0 0-1.366-8.395c-1.046-3.122-2.658-5.982-4.844-8.607-.684-.822-2.383-2.521-3.19-3.191C39.172 2.607 34.281.59 28.634.068 28.15.023 27.304 0 26.457 0Zm-6.18 4.16A34.627 34.627 0 0 0 16.4 9.337a40.028 40.028 0 0 0-2.031 3.939l-.08-.028a36.638 36.638 0 0 1-3.05-1.486 43.434 43.434 0 0 1-1.367-.801 19.998 19.998 0 0 1-.431-.273c.058-.064.103-.124.175-.2A23.37 23.37 0 0 1 15.873 5.8c1.3-.674 2.946-1.232 4.405-1.64zm12.342.005c3.552.981 7.049 2.838 9.663 5.325.44.419.81.785 1.061 1.05.058.062.088.092.131.142-.125.081-.267.176-.442.285-.412.254-.91.552-1.261.748a36.291 36.291 0 0 1-2.987 1.46l-.237.1-.068-.157c-.365-.817-1.45-2.93-1.834-3.571a35.183 35.183 0 0 0-4.026-5.382Zm-7.8.03c.003.296.01.614.012 1.066.007 1.14.012 2.715.012 4.444v5.928h-.09c-1.239-.02-3.65-.353-5.343-.744-.607-.14-1.183-.29-1.6-.414-.148-.044-.247-.08-.347-.113a32.63 32.63 0 0 1 .97-1.977 29.95 29.95 0 0 1 4.73-6.58c.287-.304.838-.846 1.318-1.3.13-.122.225-.206.34-.312zm3.276 0c.073.066.131.111.21.187.398.369.857.806 1.119 1.078a30.175 30.175 0 0 1 5.75 8.312c.11.23.208.436.278.595a8.168 8.168 0 0 1-.407.125 33.117 33.117 0 0 1-6.031 1.096c-.33.028-.772.05-.942.051V9.702c0-1.948.009-3.522.017-4.606.003-.394.002-.644.006-.9zM7.391 13.26c.082.05.157.094.256.16a35.307 35.307 0 0 0 5.392 2.837c.102.042.126.058.183.087l-.142.465c-.765 2.485-1.297 5.48-1.416 7.998l-4.193.011-4.156.012.011-.176c.04-.674.156-1.564.323-2.475a23.335 23.335 0 0 1 2.187-6.36c.45-.866 1.157-2 1.555-2.559zm38.115.017c1.628 2.406 2.783 4.843 3.447 7.5.336 1.342.625 3.29.635 4.053h-4.133c-1.24 0-2.367 0-3.19-.006a86.574 86.574 0 0 1-.977-.012h-.05v-.005c0-1.178-.326-3.595-.716-5.382-.184-.847-.632-2.523-.828-3.081.061-.03.113-.057.186-.087a35.47 35.47 0 0 0 5.389-2.839c.092-.058.161-.097.237-.14zm-8.765 3.746c.099-.032.125.021.318.633.662 2.1 1.202 5.116 1.269 7.07l.015.444-5.29.013c-4.206.01-5.298 0-5.317-.052-.014-.037-.02-1.523-.011-3.305l.013-3.24.523-.036c2.614-.189 4.486-.472 6.49-.98a46.13 46.13 0 0 0 1.99-.547zm-20.419.392c2.498.77 5.228 1.28 8.282 1.494l.211.016v5.882l-4.922.011c-1.65.005-2.977.006-3.89 0a54.133 54.133 0 0 1-1.044-.017h-.022a13.37 13.37 0 0 1 .029-.432c.033-.442.093-1.011.157-1.533.2-1.616.634-3.657 1.08-5.07.067-.212.088-.271.118-.351zM3.315 28.066h8.329c.014.176.054.674.084 1.101a33.32 33.32 0 0 0 1.34 7.148l.086.272-.37.16c-1.647.697-3.87 1.883-5.217 2.787l-.181.12c-.015-.021-.024-.029-.04-.052a14.646 14.646 0 0 1-.511-.773 27.99 27.99 0 0 1-1.159-2.043c-1.273-2.536-2.197-5.9-2.35-8.543zm11.605 0 4.932.011 4.963.018v5.876l-.21.017c-3.006.21-5.288.602-7.904 1.356l-.254.076-.21.055a8.487 8.487 0 0 1-.09-.284 27.6 27.6 0 0 1-.382-1.385 31.307 31.307 0 0 1-.835-5.512zm23.077 0-.012.228a31.197 31.197 0 0 1-1.205 6.868c-.043.151-.07.246-.096.324l-.033-.011c-2.392-.76-5.305-1.282-8.312-1.488l-.238-.016v-5.883l4.962-.012zm3.27 0h8.327c-.004.148-.029.535-.068.875-.44 3.818-1.669 7.211-3.747 10.355-.093.14-.171.252-.244.357l-.096-.062c-1.386-.93-3.654-2.146-5.309-2.845l-.368-.16.085-.271c.723-2.38 1.244-5.218 1.369-7.493.014-.278.036-.605.05-.756zm-16.424 9.198v6.368c0 1.624-.008 3.14-.012 4.225l-.006 1.118-.011-.012a39.452 39.452 0 0 1-1.131-1.084 29.915 29.915 0 0 1-6.118-8.873c-.082-.174-.15-.322-.205-.45.045-.015.067-.026.125-.044.306-.093.779-.218 1.406-.375 1.803-.447 4.036-.785 5.599-.857zm3.229 0 .342.016c.959.045 2.342.205 3.56.421a38.534 38.534 0 0 1 3.53.833l.057.017a30.719 30.719 0 0 1-7.466 10.412c0-.068-.004-.063-.006-.147-.011-.831-.017-2.444-.017-5.5zm-13.8 2.4c.039.08.066.131.148.319 1.383 3.165 3.403 6.206 5.7 8.787a23.282 23.282 0 0 1-8.941-4.854 38.9 38.9 0 0 1-1.148-1.112c-.224-.223-.433-.436-.59-.596.17-.112.392-.251.664-.414a38.98 38.98 0 0 1 1.97-1.102c.362-.189.909-.452 1.391-.676.385-.178.637-.283.805-.351zm24.371 0c.295.113.829.35 1.499.682a39.99 39.99 0 0 1 2.17 1.153c.572.334.956.562 1.168.709-.116.124-.269.285-.443.46-.35.352-.77.756-1.05 1.01-2.524 2.306-5.811 4.022-9.112 4.968 2.27-2.58 4.244-5.52 5.62-8.663.083-.188.11-.24.148-.32z"/></svg>