<svg xmlns="http://www.w3.org/2000/svg" width="200" height="200" viewBox="0 0 52.917 52.917"><path d="M11.114 33.263a25.09 25.09 0 0 0 12.38 7.611c3.086.806 6.356 1.008 9.476.349 3.12-.66 6.082-2.209 8.233-4.564 2.331-2.553 3.624-5.962 3.893-9.409.27-3.446-.443-6.926-1.746-10.128-2.324-5.712-6.565-10.625-11.877-13.757A23.278 23.278 0 0 1 43.507 7.97a23.277 23.277 0 0 1 7.703 10.329 23.277 23.277 0 0 1 .982 12.848 23.277 23.277 0 0 1-6.045 11.378c-4.425 4.558-10.792 7.162-17.142 7.011-6.35-.15-12.587-3.052-16.791-7.813L4.797 49.14l-4.78-4.78Z" style="fill:#000;fill-opacity:1;stroke:none;stroke-width:.0799875;stroke-linecap:butt;stroke-linejoin:miter;stroke-miterlimit:4;stroke-dasharray:none;stroke-opacity:1"/><path d="m33.417 12.666-5.585 5.584 25.102 25.1-5.672 5.728-25.129-25.129-4.41 4.41-6.517-6.517L22.198 10.85c1.366.14 2.753.076 4.1-.189a13.892 13.892 0 0 0 3.78-1.335z" style="fill:#000;fill-opacity:1;stroke:none;stroke-width:.399938px;stroke-linecap:butt;stroke-linejoin:miter;stroke-opacity:1"/></svg>