<svg xmlns="http://www.w3.org/2000/svg" width="200" height="200" viewBox="0 0 52.917 52.917"><path d="m-218.224 146.103-.055-2.48-1.888-.314c-2.021-.336-4.705-1.116-6.16-1.79-2.385-1.108-4.84-3.367-5.69-5.238-.45-.989-.544-1.466-.54-2.738.005-1.84.46-2.886 1.704-3.91 1.286-1.06 2.757-1.56 4.626-1.577 1.827-.015 2.977.355 4.184 1.349 3.933 3.238 1.798 8.603-3.634 9.133l-1.273.125.554.527c1.054 1.003 3.428 1.928 6.388 2.49 2.043.387 1.828 1.313 1.828-7.867v-8.067l-1.043-.435-2.769-1.159c-4.45-1.863-7.56-4.593-8.721-7.653-.909-2.397-.636-6.3.616-8.818 1.742-3.505 5.789-6.176 10.775-7.112l1.142-.215v-4.686h1.59v4.532h3.974v-4.532h1.788v2.356c0 1.296.067 2.357.149 2.357.66.006 2.932.454 4.162.82 5.068 1.51 8.07 4.176 8.356 7.423.127 1.436-.275 2.535-1.306 3.576-1.169 1.18-2.037 1.497-4.109 1.498-1.635.001-1.88-.046-2.875-.56-1.317-.682-2.266-1.858-2.601-3.224-.212-.862-.191-1.119.177-2.223.438-1.316.863-1.8 2.355-2.683.622-.368 1.108-.499 1.936-.521.607-.016 1.105-.09 1.106-.163.006-.476-3.157-1.748-5.264-2.118-.655-.115-1.394-.249-1.641-.297l-.45-.087.052 7.444.052 7.445 1.95.7c4.218 1.513 7.881 3.43 9.845 5.154 2.72 2.389 3.574 3.982 3.744 6.992.187 3.302-.483 5.727-2.262 8.192-1.606 2.225-3.919 3.696-7.486 4.761-1.186.354-2.997.74-4.023.859l-1.867.215v5h-1.788v-4.892h-3.974v4.893h-1.58zm4.862-4.04.746-.003V127.6l-1.79-.653c-.984-.359-1.879-.653-1.987-.653-.128 0-.197 2.782-.197 7.873v7.873l.844.072c.464.04 1.023.046 1.242.014a10.4 10.4 0 0 1 1.142-.062zm4.713-1.045c1.495-.643 3.234-2.185 3.79-3.362.618-1.305.626-3.48.018-4.735-.844-1.74-2.236-2.905-4.987-4.177l-1-.462v13.456l.54-.124c.297-.068 1.034-.336 1.64-.596zm-3.967-32.12v-7.25l-1.242.003c-.683 0-1.579.052-1.99.114l-.747.113.052 6.532.052 6.532.497.133c.273.072 1.122.34 1.887.595.765.254 1.414.466 1.441.47.027.002.05-3.256.05-7.243zm-5.564-.635c0-6.702.123-6.314-1.705-5.358-1.488.778-2.922 2.294-3.353 3.547-.735 2.13-.133 4.027 1.819 5.734.728.636 2.784 1.939 3.09 1.958.082.005.149-2.642.149-5.88z" style="fill:#000;fill-opacity:1;stroke-width:1.53846" transform="translate(240.317 -95.668)"/></svg>