<svg xmlns="http://www.w3.org/2000/svg" xml:space="preserve" width="200" height="200"><path d="m191.632 30.483-.765.855c-1.617 1.808-4.395 5.377-5.087 6.54a23.417 23.417 0 0 0-1.238 2.455c-.463 1.112-.514 1.434-.513 3.182 0 1.827.03 1.997.506 2.793.279.466 1.216 1.503 2.083 2.301 1.993 1.836 2.45 2.478 2.45 3.456 0 3.023-2.347 9.26-5.305 14.088-1.501 2.451-4.19 6.045-4.64 6.198-.168.058-.44.382-.6.721-.514 1.083-4.432 4.504-7.774 6.788-1.741 1.189-7.27 4.067-7.811 4.067-.42 0-.15-2.21.619-5.094.568-2.13.648-2.679.655-4.545.008-1.915-.043-2.255-.506-3.514-.772-2.1-2.547-4.628-5.043-7.184-1.604-1.643-2.135-2.098-2.072-1.77.047.243.247 1.2.448 2.123.462 2.125.47 4.041.022 7.782-.405 3.378-.442 5.645-.106 6.587.35.982 1.042 1.803 2.553 3.022 1.584 1.279 2.855 2.481 2.855 2.706 0 .087-1.057.507-2.345.932-2.296.758-5.609 2.291-7.436 3.441-.506.318-1.21.756-1.562.969l-.641.386.433-1.195c.7-1.922 1.111-4.198 1.114-6.183.005-3.026-.375-4.139-2.996-8.808-.765-1.362-1.572-2.98-1.792-3.598l-.397-1.121-.564 1.653c-.31.909-.921 2.605-1.362 3.772-1.563 4.14-2.083 6.12-2.083 7.913 0 2.7 1.842 7.459 3.656 9.442l.56.615-1.266.944c-2.48 1.844-5.733 5.487-7.67 8.593-2.306 3.701-3.59 7.982-3.593 11.98v1.457h3.135l.098-2.429c.085-2.086.19-2.742.732-4.61 1.618-5.566 5.681-10.818 12.115-15.654l1.315-.987.542.44c.3.243.962.76 1.475 1.148.512.388 1.426 1.321 2.028 2.072 3.471 4.325 5.405 5.355 9.57 5.108 2.353-.139 3.968-.577 7.723-2.1a201.63 201.63 0 0 1 4.322-1.708l1.227-.452-1.667-.302c-2.234-.404-3.474-.89-7.862-3.088-4.413-2.21-5.614-2.574-8.488-2.575-1.767 0-3.986.33-8.047 1.202-.892.192 4.887-3.395 6.037-3.747.958-.293 5.931-2.283 6.296-2.52.218-.141.529-.206.688-.145.16.06 1.506.906 2.993 1.879 4.503 2.944 5.96 3.464 9.275 3.302 3.077-.15 5.799-1.07 9.948-3.364.851-.47 1.548-.885 1.548-.918 0-.033-.298-.154-.663-.273-.365-.119-2.334-.928-4.377-1.799-5.28-2.25-7.015-2.807-9.096-2.913-1.372-.07-1.908-.02-2.84.27l-1.151.356.513-.382c1.555-1.163 4.06-3.387 5.765-5.112l1.937-1.96.812.75c1.801 1.661 4.303 2.273 6.98 1.712 1.672-.35 4.394-1.686 6.322-3.102 1.502-1.104 4.29-3.657 4.29-3.93 0-.084-.62-.151-1.374-.152-.753-.001-2.444-.124-3.757-.273-4.888-.557-7.128-.307-9.683 1.081-.608.33-1.107.567-1.107.524 0-.042.35-.578.772-1.19.423-.613 1.22-1.924 1.77-2.913l1.001-1.8 1.045.54c1.44.742 3.053.859 4.727.342 2.647-.818 5.085-2.629 6.103-4.534.26-.486.796-2.058 1.19-3.492.395-1.434.878-2.924 1.075-3.31.528-1.035.453-1.123-.536-.622-.492.249-2.078.763-3.524 1.143-1.447.38-3.13.941-3.74 1.25-1.272.641-2.61 1.952-3.7 3.626-.411.631-.772 1.125-.8 1.096-.03-.03.174-.693.45-1.475.673-1.9 1.42-5.29 1.42-6.438 0-.768.072-.98.427-1.26.67-.527 1.93-2.432 2.447-3.696.946-2.315.952-4.617.022-9.46-.38-1.974-.479-3.028-.492-5.193zm-44.683 61.775-6.675-1.321c-3.932-.765-9.376-2.962-9.376-5.07 0-4.828-7.457-11.987-17.749-11.987-17.562 0-24.443 15.567-26.662 22.708-10.591-11.913-22.167-17.583-33.41-23.064-13.61-6.656-26.473-12.938-36.074-30.016l-2.76-4.883-.634 5.571c-1.734 15.418-.353 31.937 3.823 45.36 4.4 14.114 11.763 24.63 21.495 30.84-10.403 1.135-26.754 5.927-38.183 16.273l-.448.43-.109.596c-1.436 7.978 5.61 28.132 13.739 31.374l1.118.448.86-.877c3.989-4.14 15.621-14.896 22.128-15.866 11.298 3.599 21.46 5.426 30.241 5.426 29.476 0 37.848-20.509 40.216-32.758 3.97-21.291 31.731-30.91 32.01-31.002zm31.45-45.946c-.05.026-.112.155-.218.404-.129.301-.415 1.454-.638 2.563-.34 1.693-.404 2.588-.407 5.557-.004 3.157.04 3.683.397 4.916.756 2.611 1.82 4.143 3.426 4.934 1.454.715 1.662.742 2.094.28.645-.69 1.58-2.823 1.766-4.034.26-1.69-.074-3.368-1.06-5.32-.216-.429-1.185-1.991-2.152-3.474-1.5-2.301-2.468-4.082-3.055-5.615-.061-.161-.103-.238-.153-.211zM69.2 52.939c-3.795 5.912-6.704 13.547-6.632 21.029 6.64 3.442 13.816 7.669 20.81 14.026-.838-5.613-2.989-8.303-5.556-11.517-4.614-5.776-8.291-11.556-8.623-23.538zm102.766 5.502-.306 1.293c-.17.71-.933 2.883-1.693 4.828-2.013 5.15-2.195 5.818-2.203 8.139-.007 1.853.021 2.005.575 3.131a6.28 6.28 0 0 0 1.5 1.988c.998.873 1.275.967 1.42.492.052-.17.488-1.261.97-2.429 1.245-3.022 1.868-5.705 1.863-8.047-.004-1.588-.088-2.142-.59-3.805-.322-1.07-.798-2.763-1.06-3.766z" style="stroke-width:1.86438"/></svg>