<svg xmlns="http://www.w3.org/2000/svg" width="200" height="200" viewBox="0 0 52.917 52.917"><path d="M141.5 109.406c0-.015 2.594-2.624 5.765-5.798l5.765-5.772.158-.327c.204-.42.275-.734.276-1.213 0-.475-.063-.738-.29-1.203-.399-.811-1.223-1.35-2.168-1.417-.456-.033-.878.055-1.35.28l-.366.175-7.447 7.444-7.447 7.443-.632-.14a27.433 27.433 0 0 1-5.457-1.84c-.326-.152-.6-.295-.607-.319-.008-.023 3.727-3.771 8.299-8.329 4.572-4.557 8.424-8.416 8.56-8.575.7-.815.866-1.89.438-2.84-.7-1.555-2.684-2.039-4.036-.985-.116.09-4.184 4.14-9.04 8.997-4.857 4.857-8.841 8.832-8.855 8.832-.047 0-.87-.674-1.442-1.18a24.896 24.896 0 0 1-2.762-2.91l-.304-.379 8.946-8.951c7.78-7.785 8.967-8.986 9.103-9.22.505-.874.505-1.87 0-2.729-.517-.876-1.592-1.399-2.579-1.255a2.784 2.784 0 0 0-1.28.515c-.085.063-3.964 3.922-8.62 8.574l-8.467 8.46-.242-.512a26.897 26.897 0 0 1-1.925-5.667l-.117-.538 7.42-7.425c5.741-5.746 7.45-7.478 7.557-7.657.45-.757.497-1.735.122-2.516a2.595 2.595 0 0 0-1.576-1.378c-.269-.089-.371-.102-.808-.103-.448 0-.532.01-.808.106-.638.222-.401 0-6.54 6.14a1113.538 1113.538 0 0 1-5.714 5.696c-.049 0 .103-1.333.256-2.25a26.447 26.447 0 0 1 21.674-21.772c1.748-.297 2.998-.388 4.924-.358 1.844.03 3.059.158 4.79.508a26.502 26.502 0 0 1 20.058 18.13 26.498 26.498 0 0 1-.67 17.594 26.502 26.502 0 0 1-21.889 16.615c-.254.023-.509.05-.567.06-.058.009-.106.005-.106-.01z" style="fill:#000;fill-opacity:1;stroke-width:.0384716" transform="translate(-113.012 -56.505)"/></svg>