<svg xmlns="http://www.w3.org/2000/svg" width="200" height="200" version="1.0"><g style="fill:#000"><path d="M25.557 181.244c.002 36.464 1.25 39.4 22.55 39.337 21.07-.065 436.918-.505 437.224-.501 16.275.202 20.623-3.754 20.545-31.57-.403-145.575-92.704-178.582-241.788-177.646-127.783.802-238.54 29.55-238.531 170.38ZM44.6 235.113c-13.176-.075-17.79 3.508-17.79 14.783 0 23.324-1.765 203.461-.752 232.769.398 11.523 6.766 14.921 15.284 15.033 19.044.25 66.4.874 83.937.501 12.027-.25 17.204-6 17.79-23.302.548-16.22-.258-43.1.25-67.15.171-8.109 3.007-14.03 11.275-14.281 20.957-.635 101.508-.646 117.512-.25 20.295.5 23.552.25 24.053 21.297.596 25.011.502 40.34-.25 59.633-.803 20.612 6.013 22.55 17.038 22.8 16.282.37 53.87-.528 72.662-.25 24.984.358 24.519-7.255 24.805-39.839.129-14.033.02-62.913-.501-85.19-.13-5.533 2.756-9.458 6.514-9.52 15.32-.251 18.509 39.844 22.3 59.883 14.054 74.285 46.54 83.76 76.17 83.937 37.141.232 72.532-30.56 72.661-93.96.02-9.546-2.004-17.79-9.02-17.79-31.328 0-13.033.46-29.566 0-8.77-.25-16.537 1.003-14.783 14.533 1.754 13.53 2.525 38.75-14.532 39.338-7.266.25-13.029-5.012-13.029-19.794 0-14.783-1.041-165.378-1.503-177.395-.25-6.515-.501-16.287-13.53-16.036-16.283.326-420.581.394-446.996.25z" style="fill:#000;fill-opacity:1;fill-rule:evenodd;stroke:none" transform="translate(5.815 13.236) scale(.32028)"/></g></svg>