<svg xmlns="http://www.w3.org/2000/svg" width="200" height="200" viewBox="0 0 52.917 52.917"><path d="M-66.316 102.037a.455.455 0 0 0-.39.329.455.455 0 0 0 0 .007c-1.513.213-2.942 1.15-4.24 3.228-1.366 2.22-2.394 5.41-3.182 9.382-3.713-1.284-6.943-2.006-9.557-1.96-2.747.048-4.657.75-5.516 2.254a.455.455 0 0 0 0 .007c-.296.538-.442 1.15-.442 1.819 0 1.205.444 2.553 1.282 4.06 1.239 2.292 3.459 4.745 6.422 7.348-3.01 2.646-5.257 5.117-6.497 7.39a.455.455 0 0 0 0 .005c-.788 1.505-1.207 2.824-1.207 3.981 0 .669.146 1.28.442 1.818a.455.455 0 0 0 0 .007c.834 1.48 2.703 2.193 5.403 2.289a.455.455 0 0 0 .007 0c2.617.068 5.882-.669 9.657-1.994.786 3.862 1.786 7.026 3.113 9.268a.455.455 0 0 0 0 .006c1.433 2.365 3.009 3.672 4.751 3.672 1.723 0 3.275-1.307 4.684-3.672a.455.455 0 0 0 0-.006c1.329-2.244 2.336-5.408 3.122-9.275 3.809 1.31 7.082 2.036 9.684 1.967 2.696-.07 4.564-.77 5.4-2.248v-.007c.324-.54.484-1.173.484-1.866 0-1.157-.419-2.463-1.208-3.945a.455.455 0 0 0 0-.007c-1.268-2.283-3.534-4.747-6.57-7.388 2.967-2.605 5.221-5.064 6.503-7.376h-.007c.837-1.484 1.282-2.808 1.282-3.993 0-.693-.16-1.325-.483-1.866-.862-1.503-2.776-2.2-5.544-2.248-2.607-.047-5.842.676-9.563 1.953-.788-3.967-1.809-7.156-3.173-9.375-1.409-2.293-2.934-3.564-4.61-3.564a.455.455 0 0 0-.047 0zm.046 2.685c.43 0 .882.193 1.383.664.502.47 1.031 1.216 1.563 2.233.992 1.876 1.787 4.69 2.402 8.216a62.599 62.599 0 0 0-5.34 2.342 69.439 69.439 0 0 0-5.423-2.342c.615-3.525 1.41-6.34 2.402-8.216.531-1.016 1.065-1.763 1.577-2.233.512-.47.977-.664 1.436-.664zm-17.349 10.728c.261-.003.536 0 .828.016 2.14.108 4.921.823 8.18 2.019a71.873 71.873 0 0 0-.63 5.832 70.432 70.432 0 0 0-4.725 3.477c-2.687-2.223-4.705-4.278-5.872-6.094a.455.455 0 0 0 0-.007c-.632-.97-1.018-1.807-1.169-2.49-.15-.681-.083-1.188.162-1.597a.455.455 0 0 0 .007-.007c.223-.392.62-.695 1.29-.899.5-.152 1.147-.24 1.93-.25zm34.666 0c.783.01 1.43.097 1.937.25.672.203 1.08.507 1.314.898.236.408.306.915.15 1.598-.157.684-.55 1.526-1.183 2.497a.455.455 0 0 0 0 .007c-1.167 1.837-3.198 3.903-5.906 6.127a70.335 70.335 0 0 0-4.723-3.483c-.133-2-.361-3.953-.665-5.86 3.258-1.195 6.055-1.91 8.242-2.018h.006c.29-.015.568-.02.829-.017zm-11.559 2.988c.132 1.014.232 2.047.322 3.093-.503-.31-1.007-.62-1.51-.94a.455.455 0 0 0-.02-.012c-.558-.31-1.092-.596-1.63-.886.956-.438 1.903-.86 2.838-1.255zm-11.576.027c.935.382 1.882.8 2.839 1.236-.533.29-1.06.575-1.603.886a.455.455 0 0 0-.015.006c-.523.323-1.036.633-1.55.946.09-1.043.197-2.073.329-3.074zm5.745 2.684a127.5 127.5 0 0 1 3.267 1.758 79.347 79.347 0 0 1 3.127 1.893 73.57 73.57 0 0 1 0 7.395 57.814 57.814 0 0 1-3.127 1.886.455.455 0 0 0-.007.007 83.751 83.751 0 0 1-3.194 1.784 54.301 54.301 0 0 1-3.207-1.784.455.455 0 0 0-.02-.007 51.582 51.582 0 0 1-3.154-1.886 111.679 111.679 0 0 1 0-7.395 68.103 68.103 0 0 1 3.16-1.893.455.455 0 0 0 .007 0 96.033 96.033 0 0 1 3.148-1.758zm.073 4.255c-.54 0-1.062.143-1.543.41-.49.248-.883.633-1.154 1.12a3.183 3.183 0 0 0 0 3.127.455.455 0 0 0 .007.007c.274.465.664.84 1.147 1.108a3.154 3.154 0 0 0 1.543.408c.522 0 1.034-.143 1.511-.408a3.009 3.009 0 0 0 1.147-1.108.455.455 0 0 0 .008-.007c.267-.481.408-1.01.408-1.55 0-.56-.14-1.093-.408-1.577a2.717 2.717 0 0 0-1.155-1.12 3.102 3.102 0 0 0-1.51-.41zm-9.12 1.262c-.01.613-.02 1.221-.02 1.845 0 .606.01 1.212.02 1.818a59.921 59.921 0 0 1-2.522-1.818 51.96 51.96 0 0 1 2.523-1.845zm18.18 0c.873.602 1.73 1.212 2.55 1.845-.82.62-1.677 1.22-2.55 1.818.02-.606.047-1.212.047-1.818 0-.623-.027-1.232-.048-1.845zm-22.783 3.53a76.262 76.262 0 0 0 4.751 3.482 72.36 72.36 0 0 0 .63 5.825c-3.324 1.218-6.143 1.935-8.28 2.021-1.142.045-2.046-.045-2.705-.249-.658-.203-1.052-.503-1.275-.886-.222-.381-.286-.875-.135-1.55.152-.674.525-1.511 1.135-2.484a.455.455 0 0 0 .007-.006c1.098-1.808 3.122-3.886 5.872-6.154zm27.38 0c2.751 2.268 4.79 4.349 5.912 6.16a.455.455 0 0 0 0 .006c.621.972 1.003 1.805 1.154 2.477.15.672.083 1.161-.148 1.543a.455.455 0 0 0 0 .007c-.222.383-.623.682-1.281.886-.66.204-1.563.294-2.705.249-2.138-.086-4.968-.802-8.315-2.02.285-1.905.5-3.847.632-5.826a76.242 76.242 0 0 0 4.75-3.482zm-19.804 5.254c.514.321 1.02.65 1.565.96.526.31 1.066.597 1.603.886-.959.44-1.91.857-2.846 1.254a72.343 72.343 0 0 1-.322-3.1zm12.227.007c-.09 1.045-.19 2.08-.322 3.093-.935-.396-1.882-.816-2.839-1.254.539-.29 1.073-.575 1.632-.886a.455.455 0 0 0 .006-.007c.522-.307 1.02-.628 1.523-.946zm-6.153 3.356c1.8.883 3.608 1.665 5.428 2.375-.593 3.444-1.38 6.221-2.375 8.147a.455.455 0 0 0 0 .007c-.52 1.028-1.052 1.78-1.558 2.255-.505.474-.964.67-1.422.67-.472 0-.946-.202-1.463-.677-.517-.476-1.053-1.228-1.584-2.255-.995-1.926-1.781-4.703-2.375-8.147a69.611 69.611 0 0 0 5.35-2.375z" style="font-style:normal;font-variant:normal;font-weight:700;font-stretch:normal;font-size:4.23333px;line-height:4.23333px;font-family:Montserrat;-inkscape-font-specification:&quot;Montserrat Bold&quot;;text-align:center;text-anchor:middle;fill:#000;fill-opacity:1;fill-rule:nonzero;stroke:none;stroke-width:.716047;stroke-linecap:butt;stroke-linejoin:round;stroke-miterlimit:4;stroke-dasharray:none;stroke-dashoffset:0;stroke-opacity:.909449;paint-order:normal" transform="translate(92.728 -102.037)"/></svg>